G04*
G04 #@! TF.GenerationSoftware,Altium Limited,Altium Designer,19.1.5 (86)*
G04*
G04 Layer_Physical_Order=2*
G04 Layer_Color=16711680*
%FSLAX25Y25*%
%MOIN*%
G70*
G01*
G75*
%ADD13C,0.19685*%
%ADD14C,0.10039*%
%ADD15C,0.08858*%
%ADD16C,0.02362*%
G36*
X386910Y468658D02*
X389443Y467979D01*
X391865Y466976D01*
X394135Y465665D01*
X396215Y464069D01*
X398069Y462215D01*
X399665Y460135D01*
X400976Y457865D01*
X401979Y455443D01*
X402658Y452910D01*
X403000Y450311D01*
X403000Y449000D01*
X403000Y449000D01*
X403000Y449000D01*
X403000Y377500D01*
X403000Y376189D01*
X402658Y373590D01*
X401979Y371057D01*
X400976Y368635D01*
X399665Y366365D01*
X398069Y364285D01*
X396215Y362431D01*
X394135Y360835D01*
X391865Y359524D01*
X389443Y358521D01*
X386910Y357842D01*
X384311Y357500D01*
X383000Y357500D01*
X120000Y357500D01*
X118689Y357500D01*
X116090Y357842D01*
X113557Y358521D01*
X111135Y359524D01*
X108865Y360835D01*
X106785Y362431D01*
X104931Y364285D01*
X103335Y366365D01*
X102024Y368635D01*
X101021Y371057D01*
X100342Y373590D01*
X100000Y376189D01*
X100000Y377500D01*
X100000Y377500D01*
Y449000D01*
X100000Y450311D01*
X100342Y452910D01*
X101021Y455443D01*
X102024Y457865D01*
X103335Y460135D01*
X104931Y462215D01*
X106785Y464069D01*
X108865Y465665D01*
X111135Y466976D01*
X113557Y467979D01*
X116090Y468658D01*
X118689Y469000D01*
X120000Y469000D01*
X120000Y469000D01*
X383000D01*
X384311Y469000D01*
X386910Y468658D01*
D02*
G37*
%LPC*%
G36*
X127500Y429000D02*
Y423500D01*
X133000D01*
X132933Y424180D01*
X132588Y425315D01*
X132029Y426361D01*
X131277Y427277D01*
X130360Y428029D01*
X129315Y428588D01*
X128180Y428933D01*
X127500Y429000D01*
D02*
G37*
G36*
X107500D02*
Y423500D01*
X113000D01*
X112933Y424180D01*
X112588Y425315D01*
X112029Y426361D01*
X111277Y427277D01*
X110361Y428029D01*
X109315Y428588D01*
X108180Y428933D01*
X107500Y429000D01*
D02*
G37*
G36*
X126500D02*
X125820Y428933D01*
X124685Y428588D01*
X123640Y428029D01*
X122723Y427277D01*
X121971Y426361D01*
X121412Y425315D01*
X121067Y424180D01*
X121000Y423500D01*
X126500D01*
Y429000D01*
D02*
G37*
G36*
X106500D02*
X105820Y428933D01*
X104685Y428588D01*
X103639Y428029D01*
X102723Y427277D01*
X101971Y426361D01*
X101412Y425315D01*
X101067Y424180D01*
X101000Y423500D01*
X106500D01*
Y429000D01*
D02*
G37*
G36*
X133000Y422500D02*
X127500D01*
Y417000D01*
X128180Y417067D01*
X129315Y417412D01*
X130360Y417971D01*
X131277Y418723D01*
X132029Y419639D01*
X132588Y420685D01*
X132933Y421820D01*
X133000Y422500D01*
D02*
G37*
G36*
X113000D02*
X107500D01*
Y417000D01*
X108180Y417067D01*
X109315Y417412D01*
X110361Y417971D01*
X111277Y418723D01*
X112029Y419639D01*
X112588Y420685D01*
X112933Y421820D01*
X113000Y422500D01*
D02*
G37*
G36*
X126500D02*
X121000D01*
X121067Y421820D01*
X121412Y420685D01*
X121971Y419639D01*
X122723Y418723D01*
X123640Y417971D01*
X124685Y417412D01*
X125820Y417067D01*
X126500Y417000D01*
Y422500D01*
D02*
G37*
G36*
X106500D02*
X101000D01*
X101067Y421820D01*
X101412Y420685D01*
X101971Y419639D01*
X102723Y418723D01*
X103639Y417971D01*
X104685Y417412D01*
X105820Y417067D01*
X106500Y417000D01*
Y422500D01*
D02*
G37*
G36*
X117000Y418083D02*
X115684Y417910D01*
X114459Y417402D01*
X113406Y416594D01*
X112598Y415541D01*
X112090Y414316D01*
X111917Y413000D01*
X112090Y411685D01*
X112598Y410459D01*
X113406Y409406D01*
X114459Y408598D01*
X115684Y408090D01*
X117000Y407917D01*
X118315Y408090D01*
X119541Y408598D01*
X120594Y409406D01*
X121402Y410459D01*
X121910Y411685D01*
X122083Y413000D01*
X121910Y414316D01*
X121402Y415541D01*
X120594Y416594D01*
X119541Y417402D01*
X118315Y417910D01*
X117000Y418083D01*
D02*
G37*
G36*
X127500Y409000D02*
Y403500D01*
X133000D01*
X132933Y404180D01*
X132588Y405315D01*
X132029Y406360D01*
X131277Y407277D01*
X130360Y408029D01*
X129315Y408588D01*
X128180Y408933D01*
X127500Y409000D01*
D02*
G37*
G36*
X107500D02*
Y403500D01*
X113000D01*
X112933Y404180D01*
X112588Y405315D01*
X112029Y406360D01*
X111277Y407277D01*
X110361Y408029D01*
X109315Y408588D01*
X108180Y408933D01*
X107500Y409000D01*
D02*
G37*
G36*
X126500D02*
X125820Y408933D01*
X124685Y408588D01*
X123640Y408029D01*
X122723Y407277D01*
X121971Y406360D01*
X121412Y405315D01*
X121067Y404180D01*
X121000Y403500D01*
X126500D01*
Y409000D01*
D02*
G37*
G36*
X106500D02*
X105820Y408933D01*
X104685Y408588D01*
X103639Y408029D01*
X102723Y407277D01*
X101971Y406360D01*
X101412Y405315D01*
X101067Y404180D01*
X101000Y403500D01*
X106500D01*
Y409000D01*
D02*
G37*
G36*
X133000Y402500D02*
X127500D01*
Y397000D01*
X128180Y397067D01*
X129315Y397412D01*
X130360Y397971D01*
X131277Y398723D01*
X132029Y399640D01*
X132588Y400685D01*
X132933Y401820D01*
X133000Y402500D01*
D02*
G37*
G36*
X113000D02*
X107500D01*
Y397000D01*
X108180Y397067D01*
X109315Y397412D01*
X110361Y397971D01*
X111277Y398723D01*
X112029Y399640D01*
X112588Y400685D01*
X112933Y401820D01*
X113000Y402500D01*
D02*
G37*
G36*
X126500D02*
X121000D01*
X121067Y401820D01*
X121412Y400685D01*
X121971Y399640D01*
X122723Y398723D01*
X123640Y397971D01*
X124685Y397412D01*
X125820Y397067D01*
X126500Y397000D01*
Y402500D01*
D02*
G37*
G36*
X106500D02*
X101000D01*
X101067Y401820D01*
X101412Y400685D01*
X101971Y399640D01*
X102723Y398723D01*
X103639Y397971D01*
X104685Y397412D01*
X105820Y397067D01*
X106500Y397000D01*
Y402500D01*
D02*
G37*
%LPD*%
D13*
X366000Y372000D02*
D03*
Y454500D02*
D03*
X207500D02*
D03*
D03*
Y372000D02*
D03*
D14*
X127000Y423000D02*
D03*
X107000D02*
D03*
Y403000D02*
D03*
X127000D02*
D03*
D15*
X117000Y413000D02*
D03*
D16*
X389764Y460630D02*
D03*
X395669Y448819D02*
D03*
X389764Y437008D02*
D03*
X395669Y425197D02*
D03*
X389764Y413386D02*
D03*
X395669Y401575D02*
D03*
X389764Y389764D02*
D03*
X395669Y377953D02*
D03*
X389764Y366142D02*
D03*
X377953Y460630D02*
D03*
X383858Y448819D02*
D03*
X377953Y437008D02*
D03*
X383858Y425197D02*
D03*
X377953Y413386D02*
D03*
X383858Y401575D02*
D03*
X377953Y389764D02*
D03*
X383858Y377953D02*
D03*
X377953Y366142D02*
D03*
X366142Y437008D02*
D03*
X372047Y425197D02*
D03*
X366142Y413386D02*
D03*
X372047Y401575D02*
D03*
X366142Y389764D02*
D03*
X354331Y460630D02*
D03*
Y437008D02*
D03*
X360236Y425197D02*
D03*
X354331Y413386D02*
D03*
X360236Y401575D02*
D03*
X354331Y389764D02*
D03*
Y366142D02*
D03*
X342520Y460630D02*
D03*
X348425Y448819D02*
D03*
X342520Y437008D02*
D03*
X348425Y425197D02*
D03*
Y401575D02*
D03*
X342520Y389764D02*
D03*
X348425Y377953D02*
D03*
X342520Y366142D02*
D03*
X330709Y460630D02*
D03*
X336614Y448819D02*
D03*
Y377953D02*
D03*
X330709Y366142D02*
D03*
X318898Y460630D02*
D03*
Y366142D02*
D03*
X259842Y460630D02*
D03*
Y366142D02*
D03*
X248031Y460630D02*
D03*
Y366142D02*
D03*
X236220Y460630D02*
D03*
X242126Y448819D02*
D03*
X236220Y437008D02*
D03*
Y389764D02*
D03*
X242126Y377953D02*
D03*
X236220Y366142D02*
D03*
X224409Y460630D02*
D03*
X230315Y448819D02*
D03*
X224409Y437008D02*
D03*
X230315Y425197D02*
D03*
Y401575D02*
D03*
X224409Y389764D02*
D03*
X230315Y377953D02*
D03*
X224409Y366142D02*
D03*
X218504Y448819D02*
D03*
X212598Y437008D02*
D03*
X218504Y425197D02*
D03*
Y401575D02*
D03*
X212598Y389764D02*
D03*
X218504Y377953D02*
D03*
X200787Y437008D02*
D03*
X206693Y425197D02*
D03*
Y401575D02*
D03*
X200787Y389764D02*
D03*
X188976Y460630D02*
D03*
X194882Y448819D02*
D03*
X188976Y437008D02*
D03*
X194882Y425197D02*
D03*
Y401575D02*
D03*
X188976Y389764D02*
D03*
X194882Y377953D02*
D03*
X188976Y366142D02*
D03*
X177165Y460630D02*
D03*
X183071Y448819D02*
D03*
X177165Y437008D02*
D03*
X183071Y425197D02*
D03*
Y401575D02*
D03*
X177165Y389764D02*
D03*
X183071Y377953D02*
D03*
X177165Y366142D02*
D03*
X165354Y460630D02*
D03*
X171260Y448819D02*
D03*
X165354Y437008D02*
D03*
X171260Y425197D02*
D03*
Y401575D02*
D03*
X165354Y389764D02*
D03*
X171260Y377953D02*
D03*
X165354Y366142D02*
D03*
X153543Y460630D02*
D03*
X159449Y448819D02*
D03*
X153543Y437008D02*
D03*
X159449Y425197D02*
D03*
Y401575D02*
D03*
X153543Y389764D02*
D03*
X159449Y377953D02*
D03*
X153543Y366142D02*
D03*
X141732Y460630D02*
D03*
X147638Y448819D02*
D03*
X141732Y437008D02*
D03*
X147638Y425197D02*
D03*
Y401575D02*
D03*
X141732Y389764D02*
D03*
X147638Y377953D02*
D03*
X141732Y366142D02*
D03*
X129921Y460630D02*
D03*
X135827Y448819D02*
D03*
X129921Y437008D02*
D03*
X135827Y425197D02*
D03*
Y401575D02*
D03*
X129921Y389764D02*
D03*
X135827Y377953D02*
D03*
X129921Y366142D02*
D03*
X118110Y460630D02*
D03*
X124016Y448819D02*
D03*
X118110Y437008D02*
D03*
Y389764D02*
D03*
X124016Y377953D02*
D03*
X118110Y366142D02*
D03*
X112205Y448819D02*
D03*
X106299Y437008D02*
D03*
Y413386D02*
D03*
Y389764D02*
D03*
X112205Y377953D02*
D03*
M02*
