M48
;Layer_Color=9474304
;FILE_FORMAT=2:5
INCH,TZ
;TYPE=PLATED
T1F00S00C0.01181
T2F00S00C0.04331
T3F00S00C0.05906
T4F00S00C0.06693
T5F00S00C0.07874
%
T01
X303583Y361024
X314724
X323346
X323031Y378031
X328898Y379488
X342480Y386496
X341535Y392756
X340866Y361024
X360512Y361221
Y377953
X380197Y361024
X393701
X402480
X419803
X439370Y362441
X450472Y352165
X456457Y357677
X454606Y372992
X401811Y381575
X407520Y393779
T02
X360315Y391929
X370315
X380315
X390315
X463307Y389724
Y379724
Y369724
Y359724
Y349724
X473307
Y359724
Y369724
Y379724
Y389724
T03
X283780Y369055
T04
X273780Y359055
Y379055
X293779
Y359055
T05
X283780Y345354
Y392756
X445197
Y345354
M30
