G04*
G04 #@! TF.GenerationSoftware,Altium Limited,Altium Designer,20.0.12 (288)*
G04*
G04 Layer_Physical_Order=2*
G04 Layer_Color=16711680*
%FSLAX25Y25*%
%MOIN*%
G70*
G01*
G75*
%ADD10C,0.00394*%
%ADD30C,0.09843*%
%ADD31C,0.06496*%
%ADD32R,0.06496X0.06496*%
%ADD33C,0.06299*%
%ADD34R,0.06299X0.06299*%
%ADD35C,0.08858*%
%ADD36C,0.10039*%
%ADD37C,0.02756*%
%ADD38C,0.03150*%
G36*
X478468Y400020D02*
X479232Y399704D01*
X479920Y399244D01*
X480504Y398660D01*
X480964Y397972D01*
X481280Y397208D01*
X481441Y396398D01*
Y395984D01*
Y343071D01*
Y342657D01*
X481280Y341847D01*
X480964Y341083D01*
X480504Y340395D01*
X479920Y339811D01*
X479232Y339351D01*
X478468Y339035D01*
X477657Y338874D01*
X268642D01*
X267831Y339035D01*
X267067Y339351D01*
X266380Y339811D01*
X265795Y340395D01*
X265336Y341083D01*
X265019Y341846D01*
X264858Y342657D01*
Y343071D01*
Y395984D01*
Y396398D01*
X265019Y397208D01*
X265336Y397972D01*
X265795Y398660D01*
X266380Y399244D01*
X267067Y399704D01*
X267831Y400020D01*
X268642Y400181D01*
X338289D01*
X338496Y399681D01*
X336277Y397463D01*
X326651Y387837D01*
X326147Y387179D01*
X325829Y386413D01*
X325721Y385591D01*
Y379488D01*
X325829Y378666D01*
X326147Y377900D01*
X326651Y377242D01*
X327309Y376737D01*
X328075Y376420D01*
X328898Y376311D01*
X329720Y376420D01*
X330486Y376737D01*
X331144Y377242D01*
X331649Y377900D01*
X331966Y378666D01*
X332074Y379488D01*
Y384275D01*
X338799Y391000D01*
X339289Y390510D01*
X339947Y390005D01*
X340713Y389687D01*
X341535Y389579D01*
X342358Y389687D01*
X343124Y390005D01*
X343782Y390510D01*
X344287Y391167D01*
X344604Y391934D01*
X344712Y392756D01*
X344604Y393578D01*
X344462Y393922D01*
X344796Y394422D01*
X355591D01*
Y387205D01*
X365039D01*
Y394422D01*
X366700D01*
X366921Y393973D01*
X366876Y393915D01*
X366479Y392957D01*
X366410Y392429D01*
X374220D01*
X374151Y392957D01*
X373754Y393915D01*
X373709Y393973D01*
X373930Y394422D01*
X376700D01*
X376921Y393973D01*
X376876Y393915D01*
X376479Y392957D01*
X376410Y392429D01*
X384220D01*
X384151Y392957D01*
X383754Y393915D01*
X383709Y393973D01*
X383930Y394422D01*
X385693D01*
X386027Y393922D01*
X385712Y393162D01*
X385550Y391929D01*
X385712Y390696D01*
X386188Y389546D01*
X386946Y388560D01*
X387932Y387802D01*
X389082Y387326D01*
X390315Y387164D01*
X391548Y387326D01*
X392698Y387802D01*
X393684Y388560D01*
X394442Y389546D01*
X394918Y390696D01*
X395080Y391929D01*
X394918Y393162D01*
X394603Y393922D01*
X394937Y394422D01*
X404343D01*
Y393779D01*
X404451Y392957D01*
X404769Y392191D01*
X405273Y391533D01*
X405931Y391028D01*
X406698Y390711D01*
X407520Y390603D01*
X408342Y390711D01*
X409108Y391028D01*
X409766Y391533D01*
X410271Y392191D01*
X410588Y392957D01*
X410697Y393779D01*
Y394422D01*
X425849D01*
X447296Y372975D01*
Y352165D01*
X447404Y351343D01*
X447495Y351122D01*
X447113Y350740D01*
X446687Y350916D01*
X445697Y351046D01*
Y345854D01*
X450889D01*
X450759Y346845D01*
X450183Y348233D01*
X449937Y348555D01*
X450207Y349024D01*
X450472Y348989D01*
X451295Y349097D01*
X452061Y349414D01*
X452719Y349919D01*
X453224Y350577D01*
X453541Y351343D01*
X453649Y352165D01*
Y374291D01*
X453541Y375114D01*
X453224Y375880D01*
X452719Y376538D01*
X441456Y387801D01*
X441786Y388178D01*
X442318Y387769D01*
X443707Y387194D01*
X444697Y387064D01*
Y392256D01*
X439505D01*
X439635Y391266D01*
X440210Y389877D01*
X440619Y389345D01*
X440242Y389015D01*
X429575Y399681D01*
X429782Y400181D01*
X477658D01*
X478468Y400020D01*
D02*
G37*
%LPC*%
G36*
X445697Y398448D02*
Y393256D01*
X450889D01*
X450759Y394246D01*
X450183Y395635D01*
X449268Y396827D01*
X448076Y397742D01*
X446687Y398318D01*
X445697Y398448D01*
D02*
G37*
G36*
X444697D02*
X443707Y398318D01*
X442318Y397742D01*
X441125Y396827D01*
X440210Y395635D01*
X439635Y394246D01*
X439505Y393256D01*
X444697D01*
Y398448D01*
D02*
G37*
G36*
X284279D02*
Y393256D01*
X289472D01*
X289341Y394246D01*
X288766Y395635D01*
X287851Y396827D01*
X286659Y397742D01*
X285270Y398318D01*
X284279Y398448D01*
D02*
G37*
G36*
X283279D02*
X282289Y398318D01*
X280901Y397742D01*
X279708Y396827D01*
X278793Y395635D01*
X278218Y394246D01*
X278087Y393256D01*
X283279D01*
Y398448D01*
D02*
G37*
G36*
X473807Y393729D02*
Y390224D01*
X477312D01*
X477239Y390778D01*
X476832Y391759D01*
X476185Y392602D01*
X475342Y393249D01*
X474361Y393656D01*
X473807Y393729D01*
D02*
G37*
G36*
X463807D02*
Y390224D01*
X467311D01*
X467239Y390778D01*
X466832Y391759D01*
X466185Y392602D01*
X465342Y393249D01*
X464361Y393656D01*
X463807Y393729D01*
D02*
G37*
G36*
X472807Y393729D02*
X472254Y393656D01*
X471272Y393249D01*
X470429Y392602D01*
X469782Y391759D01*
X469376Y390778D01*
X469303Y390224D01*
X472807D01*
Y393729D01*
D02*
G37*
G36*
X462807D02*
X462254Y393656D01*
X461272Y393249D01*
X460429Y392602D01*
X459782Y391759D01*
X459375Y390778D01*
X459303Y390224D01*
X462807D01*
Y393729D01*
D02*
G37*
G36*
X384220Y391429D02*
X380815D01*
Y388024D01*
X381343Y388093D01*
X382300Y388490D01*
X383123Y389121D01*
X383754Y389944D01*
X384151Y390901D01*
X384220Y391429D01*
D02*
G37*
G36*
X379815D02*
X376410D01*
X376479Y390901D01*
X376876Y389944D01*
X377507Y389121D01*
X378329Y388490D01*
X379287Y388093D01*
X379815Y388024D01*
Y391429D01*
D02*
G37*
G36*
X374220D02*
X370815D01*
Y388024D01*
X371343Y388093D01*
X372300Y388490D01*
X373123Y389121D01*
X373754Y389944D01*
X374151Y390901D01*
X374220Y391429D01*
D02*
G37*
G36*
X369815D02*
X366410D01*
X366479Y390901D01*
X366876Y389944D01*
X367507Y389121D01*
X368330Y388490D01*
X369287Y388093D01*
X369815Y388024D01*
Y391429D01*
D02*
G37*
G36*
X450889Y392256D02*
X445697D01*
Y387064D01*
X446687Y387194D01*
X448076Y387769D01*
X449268Y388685D01*
X450183Y389877D01*
X450759Y391266D01*
X450889Y392256D01*
D02*
G37*
G36*
X289472D02*
X284279D01*
Y387064D01*
X285270Y387194D01*
X286659Y387769D01*
X287851Y388685D01*
X288766Y389877D01*
X289341Y391266D01*
X289472Y392256D01*
D02*
G37*
G36*
X283279D02*
X278087D01*
X278218Y391266D01*
X278793Y389877D01*
X279708Y388685D01*
X280901Y387769D01*
X282289Y387194D01*
X283279Y387064D01*
Y392256D01*
D02*
G37*
G36*
X472807Y389224D02*
X469303D01*
X469376Y388671D01*
X469782Y387689D01*
X470429Y386846D01*
X471272Y386199D01*
X472254Y385793D01*
X472807Y385720D01*
Y389224D01*
D02*
G37*
G36*
X462807D02*
X459303D01*
X459375Y388671D01*
X459782Y387689D01*
X460429Y386846D01*
X461272Y386199D01*
X462254Y385793D01*
X462807Y385720D01*
Y389224D01*
D02*
G37*
G36*
X477312D02*
X473807D01*
Y385720D01*
X474361Y385793D01*
X475342Y386199D01*
X476185Y386846D01*
X476832Y387689D01*
X477239Y388671D01*
X477312Y389224D01*
D02*
G37*
G36*
X467311D02*
X463807D01*
Y385720D01*
X464361Y385793D01*
X465342Y386199D01*
X466185Y386846D01*
X466832Y387689D01*
X467239Y388671D01*
X467311Y389224D01*
D02*
G37*
G36*
X473807Y383729D02*
Y380224D01*
X477312D01*
X477239Y380778D01*
X476832Y381760D01*
X476185Y382603D01*
X475342Y383249D01*
X474361Y383656D01*
X473807Y383729D01*
D02*
G37*
G36*
X463807D02*
Y380224D01*
X467311D01*
X467239Y380778D01*
X466832Y381760D01*
X466185Y382603D01*
X465342Y383249D01*
X464361Y383656D01*
X463807Y383729D01*
D02*
G37*
G36*
X472807Y383729D02*
X472254Y383656D01*
X471272Y383249D01*
X470429Y382603D01*
X469782Y381760D01*
X469376Y380778D01*
X469303Y380224D01*
X472807D01*
Y383729D01*
D02*
G37*
G36*
X462807D02*
X462254Y383656D01*
X461272Y383249D01*
X460429Y382603D01*
X459782Y381760D01*
X459375Y380778D01*
X459303Y380224D01*
X462807D01*
Y383729D01*
D02*
G37*
G36*
X274279Y384841D02*
Y379555D01*
X279566D01*
X279503Y380193D01*
X279170Y381288D01*
X278631Y382297D01*
X277906Y383181D01*
X277021Y383907D01*
X276013Y384446D01*
X274918Y384778D01*
X274279Y384841D01*
D02*
G37*
G36*
X294280D02*
Y379555D01*
X299566D01*
X299503Y380193D01*
X299170Y381288D01*
X298631Y382297D01*
X297906Y383181D01*
X297021Y383907D01*
X296013Y384446D01*
X294918Y384778D01*
X294280Y384841D01*
D02*
G37*
G36*
X273280Y384841D02*
X272641Y384778D01*
X271547Y384446D01*
X270538Y383907D01*
X269653Y383181D01*
X268928Y382297D01*
X268389Y381288D01*
X268057Y380193D01*
X267994Y379555D01*
X273280D01*
Y384841D01*
D02*
G37*
G36*
X293280D02*
X292641Y384778D01*
X291547Y384446D01*
X290538Y383907D01*
X289653Y383181D01*
X288928Y382297D01*
X288388Y381288D01*
X288056Y380193D01*
X287994Y379555D01*
X293280D01*
Y384841D01*
D02*
G37*
G36*
X472807Y379224D02*
X469303D01*
X469376Y378671D01*
X469782Y377689D01*
X470429Y376846D01*
X471272Y376200D01*
X472254Y375793D01*
X472807Y375720D01*
Y379224D01*
D02*
G37*
G36*
X462807D02*
X459303D01*
X459375Y378671D01*
X459782Y377689D01*
X460429Y376846D01*
X461272Y376200D01*
X462254Y375793D01*
X462807Y375720D01*
Y379224D01*
D02*
G37*
G36*
X477312D02*
X473807D01*
Y375720D01*
X474361Y375793D01*
X475342Y376200D01*
X476185Y376846D01*
X476832Y377689D01*
X477239Y378671D01*
X477312Y379224D01*
D02*
G37*
G36*
X467311D02*
X463807D01*
Y375720D01*
X464361Y375793D01*
X465342Y376200D01*
X466185Y376846D01*
X466832Y377689D01*
X467239Y378671D01*
X467311Y379224D01*
D02*
G37*
G36*
X293280Y378555D02*
X287994D01*
X288056Y377917D01*
X288388Y376822D01*
X288928Y375813D01*
X289653Y374929D01*
X290538Y374203D01*
X291547Y373664D01*
X292641Y373332D01*
X293280Y373269D01*
Y378555D01*
D02*
G37*
G36*
X273280D02*
X267994D01*
X268057Y377917D01*
X268389Y376822D01*
X268928Y375813D01*
X269653Y374929D01*
X270538Y374203D01*
X271547Y373664D01*
X272641Y373332D01*
X273280Y373269D01*
Y378555D01*
D02*
G37*
G36*
X299566D02*
X294280D01*
Y373269D01*
X294918Y373332D01*
X296013Y373664D01*
X297021Y374203D01*
X297906Y374929D01*
X298631Y375813D01*
X299170Y376822D01*
X299503Y377917D01*
X299566Y378555D01*
D02*
G37*
G36*
X279566D02*
X274279D01*
Y373269D01*
X274918Y373332D01*
X276013Y373664D01*
X277021Y374203D01*
X277906Y374929D01*
X278631Y375813D01*
X279170Y376822D01*
X279503Y377917D01*
X279566Y378555D01*
D02*
G37*
G36*
X473307Y374589D02*
X472048Y374423D01*
X470875Y373937D01*
X469867Y373164D01*
X469094Y372157D01*
X468608Y370983D01*
X468559Y370610D01*
X468055D01*
X468006Y370983D01*
X467520Y372157D01*
X466747Y373164D01*
X465739Y373937D01*
X464566Y374423D01*
X463307Y374589D01*
X462048Y374423D01*
X460875Y373937D01*
X459867Y373164D01*
X459094Y372157D01*
X458608Y370983D01*
X458443Y369724D01*
X458608Y368465D01*
X459094Y367292D01*
X459867Y366285D01*
X460875Y365512D01*
X462048Y365026D01*
X462421Y364977D01*
Y364472D01*
X462048Y364423D01*
X460875Y363937D01*
X459867Y363164D01*
X459094Y362157D01*
X458608Y360983D01*
X458443Y359724D01*
X458608Y358465D01*
X459094Y357292D01*
X459867Y356285D01*
X460875Y355512D01*
X462048Y355026D01*
X462421Y354977D01*
Y354472D01*
X462048Y354423D01*
X460875Y353937D01*
X459867Y353164D01*
X459094Y352157D01*
X458608Y350983D01*
X458443Y349724D01*
X458608Y348465D01*
X459094Y347292D01*
X459867Y346285D01*
X460875Y345512D01*
X462048Y345026D01*
X463307Y344860D01*
X464566Y345026D01*
X465739Y345512D01*
X466747Y346285D01*
X467520Y347292D01*
X468006Y348465D01*
X468484Y348370D01*
Y344902D01*
X478130D01*
Y354547D01*
X474661D01*
X474566Y355026D01*
X475739Y355512D01*
X476747Y356285D01*
X477520Y357292D01*
X478006Y358465D01*
X478171Y359724D01*
X478006Y360983D01*
X477520Y362157D01*
X476747Y363164D01*
X475739Y363937D01*
X474566Y364423D01*
X474193Y364472D01*
Y364977D01*
X474566Y365026D01*
X475739Y365512D01*
X476747Y366285D01*
X477520Y367292D01*
X478006Y368465D01*
X478171Y369724D01*
X478006Y370983D01*
X477520Y372157D01*
X476747Y373164D01*
X475739Y373937D01*
X474566Y374423D01*
X473307Y374589D01*
D02*
G37*
G36*
X283780Y375088D02*
X282603Y374972D01*
X281471Y374629D01*
X280428Y374071D01*
X279514Y373321D01*
X278763Y372407D01*
X278206Y371364D01*
X277863Y370232D01*
X277747Y369055D01*
X277863Y367878D01*
X278206Y366746D01*
X278763Y365703D01*
X279514Y364789D01*
X280428Y364039D01*
X281471Y363481D01*
X282603Y363138D01*
X283780Y363022D01*
X284957Y363138D01*
X286088Y363481D01*
X287131Y364039D01*
X288046Y364789D01*
X288796Y365703D01*
X289353Y366746D01*
X289697Y367878D01*
X289812Y369055D01*
X289697Y370232D01*
X289353Y371364D01*
X288796Y372407D01*
X288046Y373321D01*
X287131Y374071D01*
X286088Y374629D01*
X284957Y374972D01*
X283780Y375088D01*
D02*
G37*
G36*
X274279Y364841D02*
Y359555D01*
X279566D01*
X279503Y360193D01*
X279170Y361288D01*
X278631Y362297D01*
X277906Y363181D01*
X277021Y363907D01*
X276013Y364446D01*
X274918Y364778D01*
X274279Y364841D01*
D02*
G37*
G36*
X294280D02*
Y359555D01*
X299566D01*
X299503Y360193D01*
X299170Y361288D01*
X298631Y362297D01*
X297906Y363181D01*
X297021Y363907D01*
X296013Y364446D01*
X294918Y364778D01*
X294280Y364841D01*
D02*
G37*
G36*
X273280Y364841D02*
X272641Y364778D01*
X271547Y364446D01*
X270538Y363907D01*
X269653Y363181D01*
X268928Y362297D01*
X268389Y361288D01*
X268057Y360193D01*
X267994Y359555D01*
X273280D01*
Y364841D01*
D02*
G37*
G36*
X293280D02*
X292641Y364778D01*
X291547Y364446D01*
X290538Y363907D01*
X289653Y363181D01*
X288928Y362297D01*
X288388Y361288D01*
X288056Y360193D01*
X287994Y359555D01*
X293280D01*
Y364841D01*
D02*
G37*
G36*
Y358555D02*
X287994D01*
X288056Y357917D01*
X288388Y356822D01*
X288928Y355813D01*
X289653Y354929D01*
X290538Y354203D01*
X291547Y353664D01*
X292641Y353332D01*
X293280Y353269D01*
Y358555D01*
D02*
G37*
G36*
X273280D02*
X267994D01*
X268057Y357917D01*
X268389Y356822D01*
X268928Y355813D01*
X269653Y354929D01*
X270538Y354203D01*
X271547Y353664D01*
X272641Y353332D01*
X273280Y353269D01*
Y358555D01*
D02*
G37*
G36*
X299566D02*
X294280D01*
Y353269D01*
X294918Y353332D01*
X296013Y353664D01*
X297021Y354203D01*
X297906Y354929D01*
X298631Y355813D01*
X299170Y356822D01*
X299503Y357917D01*
X299566Y358555D01*
D02*
G37*
G36*
X279566D02*
X274279D01*
Y353269D01*
X274918Y353332D01*
X276013Y353664D01*
X277021Y354203D01*
X277906Y354929D01*
X278631Y355813D01*
X279170Y356822D01*
X279503Y357917D01*
X279566Y358555D01*
D02*
G37*
G36*
X444697Y351046D02*
X443707Y350916D01*
X442318Y350341D01*
X441125Y349426D01*
X440210Y348233D01*
X439635Y346845D01*
X439505Y345854D01*
X444697D01*
Y351046D01*
D02*
G37*
G36*
X284279D02*
Y345854D01*
X289472D01*
X289341Y346845D01*
X288766Y348233D01*
X287851Y349426D01*
X286659Y350341D01*
X285270Y350916D01*
X284279Y351046D01*
D02*
G37*
G36*
X283279D02*
X282289Y350916D01*
X280901Y350341D01*
X279708Y349426D01*
X278793Y348233D01*
X278218Y346845D01*
X278087Y345854D01*
X283279D01*
Y351046D01*
D02*
G37*
G36*
X450889Y344854D02*
X445697D01*
Y339662D01*
X446687Y339793D01*
X448076Y340368D01*
X449268Y341283D01*
X450183Y342475D01*
X450759Y343864D01*
X450889Y344854D01*
D02*
G37*
G36*
X444697D02*
X439505D01*
X439635Y343864D01*
X440210Y342475D01*
X441125Y341283D01*
X442318Y340368D01*
X443707Y339793D01*
X444697Y339662D01*
Y344854D01*
D02*
G37*
G36*
X289472D02*
X284279D01*
Y339662D01*
X285270Y339793D01*
X286659Y340368D01*
X287851Y341283D01*
X288766Y342475D01*
X289341Y343864D01*
X289472Y344854D01*
D02*
G37*
G36*
X283279D02*
X278087D01*
X278218Y343864D01*
X278793Y342475D01*
X279708Y341283D01*
X280901Y340368D01*
X282289Y339793D01*
X283279Y339662D01*
Y344854D01*
D02*
G37*
%LPD*%
G36*
X468608Y368465D02*
X469094Y367292D01*
X469867Y366285D01*
X470875Y365512D01*
X472048Y365026D01*
X472421Y364977D01*
Y364472D01*
X472048Y364423D01*
X470875Y363937D01*
X469867Y363164D01*
X469094Y362157D01*
X468608Y360983D01*
X468559Y360610D01*
X468055D01*
X468006Y360983D01*
X467520Y362157D01*
X466747Y363164D01*
X465739Y363937D01*
X464566Y364423D01*
X464193Y364472D01*
Y364977D01*
X464566Y365026D01*
X465739Y365512D01*
X466747Y366285D01*
X467520Y367292D01*
X468006Y368465D01*
X468055Y368839D01*
X468559D01*
X468608Y368465D01*
D02*
G37*
D10*
X482244Y395984D02*
G03*
X477244Y400984I-5000J0D01*
G01*
Y338071D02*
G03*
X482244Y343071I0J5000D01*
G01*
X264055D02*
G03*
X269055Y338071I5000J0D01*
G01*
Y400984D02*
G03*
X264055Y395984I0J-5000D01*
G01*
X370118Y400984D02*
X477244D01*
X482244Y343071D02*
Y395984D01*
X269055Y338071D02*
X477244D01*
X264055Y343071D02*
Y395984D01*
X269055Y400984D02*
X370118D01*
D30*
X445197Y345354D02*
D03*
Y392756D02*
D03*
X283780D02*
D03*
Y345354D02*
D03*
D31*
X463307Y389724D02*
D03*
Y379724D02*
D03*
X473307Y389724D02*
D03*
Y379724D02*
D03*
X463307Y369724D02*
D03*
X473307D02*
D03*
X463307Y349724D02*
D03*
X473307Y359724D02*
D03*
X463307D02*
D03*
D32*
X473307Y349724D02*
D03*
D33*
X370315Y391929D02*
D03*
X380315D02*
D03*
X390315D02*
D03*
D34*
X360315D02*
D03*
D35*
X283780Y369055D02*
D03*
D36*
X293779Y379055D02*
D03*
X273780D02*
D03*
Y359055D02*
D03*
X293779D02*
D03*
D37*
X360512Y377953D02*
D03*
Y361221D02*
D03*
X323031Y378031D02*
D03*
X456457Y357677D02*
D03*
X419803Y361024D02*
D03*
X402480D02*
D03*
X401811Y381575D02*
D03*
X342480Y386496D02*
D03*
X303583Y361024D02*
D03*
X314724D02*
D03*
X393701D02*
D03*
X454606Y372992D02*
D03*
X439370Y362441D02*
D03*
X380197Y361024D02*
D03*
X340866D02*
D03*
X323346D02*
D03*
X407520Y393779D02*
D03*
X341535Y392756D02*
D03*
X328898Y379488D02*
D03*
X450472Y352165D02*
D03*
D38*
X340905Y397598D02*
X407520D01*
X338524Y395216D02*
X340905Y397598D01*
X407520D02*
X427165D01*
X407520Y393779D02*
Y397598D01*
X427165D02*
X450472Y374291D01*
Y352165D02*
Y374291D01*
X328898Y385591D02*
X338524Y395216D01*
X339075D01*
X341535Y392756D01*
X328898Y379488D02*
Y385591D01*
M02*
