G04*
G04 #@! TF.GenerationSoftware,Altium Limited,Altium Designer,20.0.13 (296)*
G04*
G04 Layer_Color=8388736*
%FSLAX25Y25*%
%MOIN*%
G70*
G01*
G75*
%ADD10R,0.04409X0.02047*%
%ADD11R,0.05512X0.04331*%
%ADD12R,0.03228X0.03228*%
%ADD13R,0.01929X0.05118*%
%ADD14R,0.03740X0.01378*%
%ADD15R,0.03228X0.03228*%
%ADD16R,0.03543X0.03543*%
%ADD17R,0.02913X0.02284*%
%ADD18R,0.02953X0.02953*%
%ADD19R,0.02953X0.02953*%
%ADD20R,0.03937X0.01968*%
%ADD21R,0.03543X0.03543*%
%ADD22C,0.10236*%
%ADD23C,0.06890*%
%ADD24R,0.06890X0.06890*%
%ADD25C,0.06693*%
%ADD26R,0.06693X0.06693*%
%ADD27C,0.09252*%
%ADD28C,0.10433*%
%ADD29C,0.03150*%
D10*
X355787Y369213D02*
D03*
X365315D02*
D03*
D11*
X360512Y365669D02*
D03*
Y372756D02*
D03*
D12*
X350905Y369252D02*
D03*
X346969D02*
D03*
X352126Y389409D02*
D03*
X348189D02*
D03*
X398583Y389488D02*
D03*
X402520D02*
D03*
X321378Y374488D02*
D03*
X325315D02*
D03*
X400472D02*
D03*
X404410D02*
D03*
X438898Y377835D02*
D03*
X434961D02*
D03*
X438898Y381299D02*
D03*
X434961D02*
D03*
X334882Y369094D02*
D03*
X330945D02*
D03*
X425748Y368779D02*
D03*
X429685D02*
D03*
X374606D02*
D03*
X370669D02*
D03*
X385709Y368819D02*
D03*
X389646D02*
D03*
X413819Y368779D02*
D03*
X409882D02*
D03*
X310984Y369094D02*
D03*
X307047D02*
D03*
X290787Y369055D02*
D03*
X294724D02*
D03*
D13*
X402520Y368779D02*
D03*
X323307Y369094D02*
D03*
D14*
X405748Y366811D02*
D03*
Y368779D02*
D03*
Y370748D02*
D03*
X399291Y366811D02*
D03*
Y368779D02*
D03*
Y370748D02*
D03*
X320079Y371063D02*
D03*
Y369094D02*
D03*
Y367126D02*
D03*
X326535Y371063D02*
D03*
Y369094D02*
D03*
Y367126D02*
D03*
D15*
X455433Y353661D02*
D03*
Y349724D02*
D03*
D16*
X443032Y382205D02*
D03*
X448937D02*
D03*
D17*
X338622Y365669D02*
D03*
Y369134D02*
D03*
X343071Y365748D02*
D03*
Y369213D02*
D03*
X417717Y365315D02*
D03*
Y368779D02*
D03*
X381968Y365354D02*
D03*
Y368819D02*
D03*
X393740Y365354D02*
D03*
Y368819D02*
D03*
X378346Y365354D02*
D03*
Y368819D02*
D03*
X421654Y365315D02*
D03*
Y368779D02*
D03*
X303543Y369094D02*
D03*
Y365630D02*
D03*
X314646Y369094D02*
D03*
Y365630D02*
D03*
X298346Y369055D02*
D03*
Y365591D02*
D03*
D18*
X348051Y393110D02*
D03*
X351988D02*
D03*
X402658D02*
D03*
X398721D02*
D03*
X443819Y378386D02*
D03*
X447756D02*
D03*
D19*
X453819Y364843D02*
D03*
Y368779D02*
D03*
D20*
X434961Y368819D02*
D03*
Y371378D02*
D03*
Y373937D02*
D03*
X443819D02*
D03*
Y371378D02*
D03*
Y368819D02*
D03*
D21*
X449488D02*
D03*
Y374724D02*
D03*
D22*
X445197Y345354D02*
D03*
Y392756D02*
D03*
X283780D02*
D03*
Y345354D02*
D03*
D23*
X463307Y389724D02*
D03*
Y379724D02*
D03*
X473307Y389724D02*
D03*
Y379724D02*
D03*
X463307Y369724D02*
D03*
X473307D02*
D03*
X463307Y349724D02*
D03*
X473307Y359724D02*
D03*
X463307D02*
D03*
D24*
X473307Y349724D02*
D03*
D25*
X370315Y391929D02*
D03*
X380315D02*
D03*
X390315D02*
D03*
D26*
X360315D02*
D03*
D27*
X283780Y369055D02*
D03*
D28*
X293779Y379055D02*
D03*
X273780D02*
D03*
Y359055D02*
D03*
X293779D02*
D03*
D29*
X360512Y377953D02*
D03*
Y361221D02*
D03*
X323031Y378031D02*
D03*
X456457Y357677D02*
D03*
X419803Y361024D02*
D03*
X402480D02*
D03*
X401811Y381575D02*
D03*
X342480Y386496D02*
D03*
X303583Y361024D02*
D03*
X314724D02*
D03*
X393701D02*
D03*
X454606Y372992D02*
D03*
X439370Y362441D02*
D03*
X380197Y361024D02*
D03*
X340866D02*
D03*
X323346D02*
D03*
X407520Y393779D02*
D03*
X341535Y392756D02*
D03*
X328898Y379488D02*
D03*
X450472Y352165D02*
D03*
M02*
