G04*
G04 #@! TF.GenerationSoftware,Altium Limited,Altium Designer,20.0.12 (288)*
G04*
G04 Layer_Color=65535*
%FSLAX25Y25*%
%MOIN*%
G70*
G01*
G75*
%ADD10C,0.00394*%
G36*
X379307Y385602D02*
X379357Y385597D01*
X379415Y385589D01*
X379477Y385581D01*
X379548Y385568D01*
X379623Y385552D01*
X379702Y385535D01*
X379781Y385510D01*
X379864Y385481D01*
X379947Y385448D01*
X380027Y385406D01*
X380106Y385365D01*
X380181Y385311D01*
X380185Y385306D01*
X380197Y385298D01*
X380218Y385281D01*
X380243Y385256D01*
X380276Y385227D01*
X380314Y385190D01*
X380351Y385148D01*
X380397Y385098D01*
X380443Y385044D01*
X380488Y384982D01*
X380534Y384915D01*
X380576Y384840D01*
X380621Y384761D01*
X380659Y384674D01*
X380696Y384582D01*
X380730Y384487D01*
X380230Y384370D01*
Y384374D01*
X380222Y384387D01*
X380218Y384412D01*
X380205Y384441D01*
X380193Y384474D01*
X380172Y384512D01*
X380131Y384603D01*
X380077Y384703D01*
X380006Y384807D01*
X379931Y384903D01*
X379885Y384944D01*
X379839Y384982D01*
X379835Y384986D01*
X379827Y384990D01*
X379814Y384998D01*
X379794Y385011D01*
X379769Y385028D01*
X379739Y385044D01*
X379706Y385061D01*
X379665Y385078D01*
X379619Y385094D01*
X379573Y385111D01*
X379465Y385144D01*
X379340Y385165D01*
X379274Y385173D01*
X379161D01*
X379128Y385169D01*
X379090Y385165D01*
X379045Y385161D01*
X378995Y385157D01*
X378945Y385148D01*
X378824Y385119D01*
X378699Y385082D01*
X378637Y385057D01*
X378575Y385028D01*
X378516Y384994D01*
X378458Y384957D01*
X378454Y384953D01*
X378446Y384949D01*
X378429Y384936D01*
X378408Y384919D01*
X378387Y384899D01*
X378358Y384870D01*
X378329Y384840D01*
X378296Y384807D01*
X378263Y384766D01*
X378225Y384724D01*
X378159Y384628D01*
X378096Y384516D01*
X378042Y384387D01*
Y384383D01*
X378038Y384370D01*
X378030Y384349D01*
X378026Y384325D01*
X378017Y384291D01*
X378005Y384254D01*
X377996Y384208D01*
X377984Y384162D01*
X377972Y384108D01*
X377963Y384050D01*
X377942Y383925D01*
X377930Y383792D01*
X377926Y383651D01*
Y383646D01*
Y383630D01*
Y383605D01*
X377930Y383567D01*
Y383526D01*
X377934Y383476D01*
X377938Y383422D01*
X377942Y383359D01*
X377951Y383293D01*
X377959Y383226D01*
X377984Y383081D01*
X378021Y382935D01*
X378067Y382794D01*
Y382789D01*
X378076Y382777D01*
X378084Y382760D01*
X378092Y382735D01*
X378109Y382702D01*
X378130Y382669D01*
X378175Y382590D01*
X378238Y382498D01*
X378313Y382411D01*
X378404Y382324D01*
X378454Y382286D01*
X378508Y382249D01*
X378512D01*
X378521Y382240D01*
X378537Y382232D01*
X378562Y382220D01*
X378591Y382207D01*
X378625Y382190D01*
X378662Y382178D01*
X378704Y382161D01*
X378799Y382128D01*
X378912Y382099D01*
X379032Y382078D01*
X379095Y382074D01*
X379161Y382070D01*
X379203D01*
X379232Y382074D01*
X379269Y382078D01*
X379311Y382082D01*
X379361Y382091D01*
X379411Y382099D01*
X379527Y382128D01*
X379586Y382149D01*
X379648Y382174D01*
X379710Y382203D01*
X379769Y382236D01*
X379827Y382274D01*
X379885Y382315D01*
X379889Y382319D01*
X379898Y382328D01*
X379914Y382340D01*
X379935Y382361D01*
X379956Y382386D01*
X379985Y382419D01*
X380014Y382457D01*
X380047Y382498D01*
X380081Y382548D01*
X380114Y382602D01*
X380147Y382661D01*
X380181Y382727D01*
X380210Y382798D01*
X380239Y382877D01*
X380268Y382960D01*
X380289Y383047D01*
X380796Y382919D01*
Y382910D01*
X380788Y382889D01*
X380780Y382860D01*
X380763Y382815D01*
X380746Y382765D01*
X380721Y382702D01*
X380696Y382636D01*
X380663Y382565D01*
X380626Y382486D01*
X380584Y382411D01*
X380538Y382328D01*
X380484Y382249D01*
X380426Y382174D01*
X380363Y382099D01*
X380293Y382028D01*
X380218Y381962D01*
X380214Y381958D01*
X380197Y381949D01*
X380176Y381933D01*
X380143Y381912D01*
X380106Y381887D01*
X380056Y381858D01*
X380002Y381829D01*
X379935Y381799D01*
X379864Y381770D01*
X379789Y381741D01*
X379706Y381712D01*
X379615Y381687D01*
X379519Y381666D01*
X379419Y381650D01*
X379315Y381641D01*
X379203Y381637D01*
X379145D01*
X379099Y381641D01*
X379049Y381645D01*
X378987Y381650D01*
X378920Y381658D01*
X378845Y381670D01*
X378766Y381683D01*
X378683Y381700D01*
X378600Y381720D01*
X378516Y381741D01*
X378429Y381770D01*
X378346Y381804D01*
X378267Y381841D01*
X378192Y381887D01*
X378188Y381891D01*
X378175Y381899D01*
X378154Y381912D01*
X378130Y381933D01*
X378096Y381962D01*
X378059Y381991D01*
X378017Y382028D01*
X377972Y382074D01*
X377926Y382124D01*
X377876Y382178D01*
X377830Y382236D01*
X377780Y382303D01*
X377730Y382373D01*
X377684Y382448D01*
X377643Y382532D01*
X377601Y382619D01*
X377597Y382623D01*
X377593Y382640D01*
X377585Y382669D01*
X377572Y382702D01*
X377555Y382748D01*
X377539Y382798D01*
X377522Y382860D01*
X377501Y382927D01*
X377485Y383002D01*
X377464Y383081D01*
X377447Y383164D01*
X377435Y383255D01*
X377410Y383447D01*
X377406Y383547D01*
X377402Y383646D01*
Y383655D01*
Y383671D01*
Y383705D01*
X377406Y383746D01*
X377410Y383800D01*
X377414Y383863D01*
X377422Y383929D01*
X377431Y384004D01*
X377443Y384083D01*
X377456Y384167D01*
X377497Y384345D01*
X377526Y384433D01*
X377555Y384520D01*
X377589Y384612D01*
X377630Y384695D01*
X377635Y384699D01*
X377643Y384716D01*
X377655Y384736D01*
X377672Y384770D01*
X377697Y384807D01*
X377726Y384849D01*
X377759Y384894D01*
X377797Y384949D01*
X377842Y384998D01*
X377888Y385057D01*
X377942Y385111D01*
X378001Y385169D01*
X378063Y385223D01*
X378130Y385277D01*
X378204Y385327D01*
X378279Y385373D01*
X378284Y385377D01*
X378300Y385381D01*
X378321Y385394D01*
X378354Y385410D01*
X378392Y385427D01*
X378442Y385448D01*
X378496Y385469D01*
X378554Y385489D01*
X378620Y385510D01*
X378695Y385531D01*
X378770Y385552D01*
X378853Y385568D01*
X379024Y385597D01*
X379116Y385602D01*
X379211Y385606D01*
X379265D01*
X379307Y385602D01*
D02*
G37*
G36*
X392723Y385548D02*
X392769Y385543D01*
X392823Y385535D01*
X392885Y385527D01*
X392948Y385514D01*
X393018Y385498D01*
X393089Y385477D01*
X393164Y385452D01*
X393234Y385423D01*
X393309Y385385D01*
X393380Y385344D01*
X393447Y385298D01*
X393509Y385244D01*
X393513Y385240D01*
X393522Y385231D01*
X393538Y385211D01*
X393559Y385190D01*
X393584Y385161D01*
X393613Y385123D01*
X393642Y385082D01*
X393671Y385032D01*
X393701Y384982D01*
X393730Y384924D01*
X393759Y384861D01*
X393784Y384795D01*
X393804Y384720D01*
X393821Y384645D01*
X393829Y384566D01*
X393834Y384483D01*
Y384478D01*
Y384474D01*
Y384462D01*
Y384445D01*
X393829Y384399D01*
X393821Y384341D01*
X393809Y384271D01*
X393792Y384196D01*
X393771Y384112D01*
X393738Y384029D01*
Y384025D01*
X393734Y384021D01*
X393730Y384008D01*
X393721Y383992D01*
X393696Y383946D01*
X393663Y383888D01*
X393617Y383817D01*
X393563Y383738D01*
X393501Y383655D01*
X393422Y383563D01*
X393418Y383559D01*
X393413Y383551D01*
X393397Y383538D01*
X393380Y383518D01*
X393355Y383493D01*
X393326Y383463D01*
X393293Y383426D01*
X393251Y383389D01*
X393201Y383343D01*
X393147Y383293D01*
X393089Y383235D01*
X393022Y383176D01*
X392952Y383110D01*
X392873Y383043D01*
X392785Y382968D01*
X392694Y382889D01*
X392690Y382885D01*
X392677Y382873D01*
X392652Y382856D01*
X392627Y382831D01*
X392590Y382802D01*
X392552Y382769D01*
X392465Y382694D01*
X392373Y382615D01*
X392286Y382532D01*
X392245Y382494D01*
X392207Y382461D01*
X392174Y382428D01*
X392149Y382403D01*
X392145Y382399D01*
X392128Y382382D01*
X392107Y382357D01*
X392078Y382324D01*
X392045Y382286D01*
X392011Y382245D01*
X391945Y382153D01*
X393838D01*
Y381700D01*
X391296D01*
Y381708D01*
Y381729D01*
Y381762D01*
X391300Y381804D01*
X391304Y381854D01*
X391317Y381908D01*
X391329Y381966D01*
X391350Y382024D01*
Y382028D01*
X391354Y382037D01*
X391358Y382049D01*
X391367Y382070D01*
X391379Y382091D01*
X391392Y382120D01*
X391425Y382186D01*
X391466Y382265D01*
X391521Y382353D01*
X391583Y382444D01*
X391658Y382536D01*
X391662Y382540D01*
X391666Y382548D01*
X391679Y382561D01*
X391700Y382581D01*
X391720Y382602D01*
X391749Y382631D01*
X391778Y382665D01*
X391816Y382702D01*
X391858Y382744D01*
X391903Y382785D01*
X391953Y382835D01*
X392011Y382885D01*
X392070Y382939D01*
X392136Y382993D01*
X392203Y383052D01*
X392278Y383114D01*
X392286Y383118D01*
X392307Y383139D01*
X392336Y383164D01*
X392378Y383201D01*
X392427Y383243D01*
X392486Y383293D01*
X392552Y383347D01*
X392619Y383409D01*
X392760Y383538D01*
X392898Y383676D01*
X392964Y383742D01*
X393026Y383809D01*
X393081Y383871D01*
X393126Y383929D01*
X393130Y383933D01*
X393135Y383942D01*
X393147Y383959D01*
X393160Y383979D01*
X393180Y384008D01*
X393197Y384037D01*
X393239Y384112D01*
X393280Y384200D01*
X393318Y384295D01*
X393343Y384395D01*
X393347Y384445D01*
X393351Y384495D01*
Y384499D01*
Y384508D01*
Y384524D01*
X393347Y384541D01*
Y384566D01*
X393338Y384595D01*
X393326Y384657D01*
X393301Y384732D01*
X393264Y384811D01*
X393243Y384853D01*
X393214Y384890D01*
X393185Y384928D01*
X393147Y384965D01*
X393143Y384969D01*
X393139Y384974D01*
X393126Y384982D01*
X393110Y384994D01*
X393089Y385011D01*
X393064Y385028D01*
X393006Y385065D01*
X392927Y385098D01*
X392839Y385132D01*
X392735Y385152D01*
X392677Y385161D01*
X392586D01*
X392561Y385157D01*
X392531D01*
X392498Y385148D01*
X392423Y385136D01*
X392336Y385111D01*
X392245Y385073D01*
X392199Y385048D01*
X392153Y385023D01*
X392111Y384990D01*
X392070Y384953D01*
X392066Y384949D01*
X392061Y384944D01*
X392053Y384932D01*
X392037Y384915D01*
X392024Y384894D01*
X392007Y384870D01*
X391986Y384840D01*
X391970Y384807D01*
X391949Y384770D01*
X391933Y384728D01*
X391899Y384628D01*
X391874Y384520D01*
X391870Y384458D01*
X391866Y384391D01*
X391383Y384441D01*
Y384449D01*
X391388Y384466D01*
X391392Y384491D01*
X391396Y384528D01*
X391404Y384574D01*
X391417Y384628D01*
X391429Y384686D01*
X391450Y384749D01*
X391471Y384811D01*
X391496Y384882D01*
X391529Y384949D01*
X391562Y385015D01*
X391604Y385086D01*
X391650Y385148D01*
X391700Y385211D01*
X391758Y385265D01*
X391762Y385269D01*
X391774Y385277D01*
X391791Y385290D01*
X391816Y385311D01*
X391849Y385331D01*
X391891Y385356D01*
X391937Y385381D01*
X391991Y385410D01*
X392049Y385435D01*
X392115Y385460D01*
X392186Y385485D01*
X392265Y385506D01*
X392349Y385527D01*
X392436Y385539D01*
X392531Y385548D01*
X392631Y385552D01*
X392685D01*
X392723Y385548D01*
D02*
G37*
G36*
X389054Y382153D02*
X390947D01*
Y381700D01*
X388546D01*
Y385539D01*
X389054D01*
Y382153D01*
D02*
G37*
G36*
X386533Y385535D02*
X386578D01*
X386633Y385531D01*
X386695Y385527D01*
X386820Y385514D01*
X386949Y385493D01*
X387074Y385469D01*
X387128Y385452D01*
X387182Y385435D01*
X387186D01*
X387194Y385431D01*
X387207Y385423D01*
X387228Y385415D01*
X387277Y385389D01*
X387336Y385352D01*
X387406Y385302D01*
X387477Y385236D01*
X387548Y385161D01*
X387610Y385069D01*
Y385065D01*
X387618Y385057D01*
X387627Y385044D01*
X387635Y385023D01*
X387648Y384998D01*
X387660Y384969D01*
X387677Y384936D01*
X387693Y384899D01*
X387722Y384811D01*
X387748Y384716D01*
X387764Y384607D01*
X387772Y384491D01*
Y384487D01*
Y384474D01*
Y384449D01*
X387768Y384424D01*
X387764Y384387D01*
X387760Y384345D01*
X387752Y384300D01*
X387739Y384250D01*
X387706Y384141D01*
X387685Y384083D01*
X387660Y384025D01*
X387631Y383967D01*
X387594Y383909D01*
X387552Y383855D01*
X387506Y383800D01*
X387502Y383796D01*
X387494Y383788D01*
X387477Y383775D01*
X387456Y383755D01*
X387427Y383734D01*
X387394Y383709D01*
X387352Y383680D01*
X387302Y383651D01*
X387248Y383622D01*
X387190Y383592D01*
X387123Y383563D01*
X387049Y383534D01*
X386970Y383509D01*
X386882Y383484D01*
X386787Y383463D01*
X386687Y383447D01*
X386691D01*
X386695Y383443D01*
X386720Y383430D01*
X386757Y383409D01*
X386803Y383384D01*
X386853Y383355D01*
X386903Y383326D01*
X386953Y383289D01*
X386995Y383255D01*
X386999Y383251D01*
X387003Y383247D01*
X387015Y383235D01*
X387032Y383218D01*
X387053Y383197D01*
X387078Y383172D01*
X387132Y383114D01*
X387194Y383039D01*
X387265Y382952D01*
X387340Y382852D01*
X387415Y382744D01*
X388080Y381700D01*
X387444D01*
X386936Y382498D01*
X386932Y382503D01*
X386928Y382515D01*
X386915Y382532D01*
X386899Y382557D01*
X386882Y382586D01*
X386857Y382619D01*
X386807Y382694D01*
X386749Y382781D01*
X386691Y382869D01*
X386629Y382952D01*
X386570Y383027D01*
Y383031D01*
X386562Y383035D01*
X386545Y383056D01*
X386520Y383089D01*
X386483Y383126D01*
X386445Y383168D01*
X386400Y383210D01*
X386354Y383251D01*
X386312Y383280D01*
X386308Y383285D01*
X386292Y383293D01*
X386271Y383305D01*
X386242Y383322D01*
X386204Y383339D01*
X386167Y383355D01*
X386125Y383372D01*
X386079Y383384D01*
X386075D01*
X386063Y383389D01*
X386042Y383393D01*
X386013Y383397D01*
X385971D01*
X385921Y383401D01*
X385863Y383405D01*
X385210D01*
Y381700D01*
X384702D01*
Y385539D01*
X386487D01*
X386533Y385535D01*
D02*
G37*
G36*
X384170Y385086D02*
X382905D01*
Y381700D01*
X382398D01*
Y385086D01*
X381133D01*
Y385539D01*
X384170D01*
Y385086D01*
D02*
G37*
G36*
X357890Y385539D02*
X357939Y385535D01*
X357998Y385527D01*
X358060Y385519D01*
X358131Y385506D01*
X358206Y385489D01*
X358285Y385473D01*
X358364Y385448D01*
X358447Y385419D01*
X358530Y385385D01*
X358609Y385344D01*
X358688Y385302D01*
X358763Y385248D01*
X358767Y385244D01*
X358780Y385236D01*
X358801Y385219D01*
X358825Y385194D01*
X358859Y385165D01*
X358896Y385127D01*
X358934Y385086D01*
X358979Y385036D01*
X359025Y384982D01*
X359071Y384919D01*
X359117Y384853D01*
X359158Y384778D01*
X359204Y384699D01*
X359242Y384612D01*
X359279Y384520D01*
X359312Y384424D01*
X358813Y384308D01*
Y384312D01*
X358805Y384325D01*
X358801Y384349D01*
X358788Y384379D01*
X358776Y384412D01*
X358755Y384449D01*
X358713Y384541D01*
X358659Y384641D01*
X358588Y384745D01*
X358513Y384840D01*
X358468Y384882D01*
X358422Y384919D01*
X358418Y384924D01*
X358410Y384928D01*
X358397Y384936D01*
X358376Y384949D01*
X358351Y384965D01*
X358322Y384982D01*
X358289Y384998D01*
X358247Y385015D01*
X358202Y385032D01*
X358156Y385048D01*
X358048Y385082D01*
X357923Y385103D01*
X357856Y385111D01*
X357744D01*
X357711Y385107D01*
X357673Y385103D01*
X357627Y385098D01*
X357577Y385094D01*
X357528Y385086D01*
X357407Y385057D01*
X357282Y385019D01*
X357220Y384994D01*
X357157Y384965D01*
X357099Y384932D01*
X357041Y384894D01*
X357037Y384890D01*
X357028Y384886D01*
X357012Y384874D01*
X356991Y384857D01*
X356970Y384836D01*
X356941Y384807D01*
X356912Y384778D01*
X356879Y384745D01*
X356845Y384703D01*
X356808Y384662D01*
X356741Y384566D01*
X356679Y384454D01*
X356625Y384325D01*
Y384320D01*
X356621Y384308D01*
X356612Y384287D01*
X356608Y384262D01*
X356600Y384229D01*
X356587Y384191D01*
X356579Y384146D01*
X356567Y384100D01*
X356554Y384046D01*
X356546Y383988D01*
X356525Y383863D01*
X356513Y383730D01*
X356508Y383588D01*
Y383584D01*
Y383567D01*
Y383542D01*
X356513Y383505D01*
Y383463D01*
X356517Y383414D01*
X356521Y383359D01*
X356525Y383297D01*
X356533Y383230D01*
X356542Y383164D01*
X356567Y383018D01*
X356604Y382873D01*
X356650Y382731D01*
Y382727D01*
X356658Y382715D01*
X356666Y382698D01*
X356675Y382673D01*
X356691Y382640D01*
X356712Y382607D01*
X356758Y382527D01*
X356820Y382436D01*
X356895Y382349D01*
X356987Y382261D01*
X357037Y382224D01*
X357091Y382186D01*
X357095D01*
X357103Y382178D01*
X357120Y382170D01*
X357145Y382157D01*
X357174Y382145D01*
X357207Y382128D01*
X357245Y382116D01*
X357286Y382099D01*
X357382Y382066D01*
X357494Y382037D01*
X357615Y382016D01*
X357677Y382012D01*
X357744Y382007D01*
X357786D01*
X357815Y382012D01*
X357852Y382016D01*
X357894Y382020D01*
X357944Y382028D01*
X357994Y382037D01*
X358110Y382066D01*
X358168Y382086D01*
X358231Y382111D01*
X358293Y382141D01*
X358351Y382174D01*
X358410Y382211D01*
X358468Y382253D01*
X358472Y382257D01*
X358480Y382265D01*
X358497Y382278D01*
X358518Y382299D01*
X358539Y382324D01*
X358568Y382357D01*
X358597Y382394D01*
X358630Y382436D01*
X358663Y382486D01*
X358697Y382540D01*
X358730Y382598D01*
X358763Y382665D01*
X358792Y382735D01*
X358821Y382815D01*
X358851Y382898D01*
X358871Y382985D01*
X359379Y382856D01*
Y382848D01*
X359370Y382827D01*
X359362Y382798D01*
X359346Y382752D01*
X359329Y382702D01*
X359304Y382640D01*
X359279Y382573D01*
X359246Y382503D01*
X359208Y382423D01*
X359167Y382349D01*
X359121Y382265D01*
X359067Y382186D01*
X359009Y382111D01*
X358946Y382037D01*
X358875Y381966D01*
X358801Y381899D01*
X358796Y381895D01*
X358780Y381887D01*
X358759Y381870D01*
X358726Y381849D01*
X358688Y381824D01*
X358638Y381795D01*
X358584Y381766D01*
X358518Y381737D01*
X358447Y381708D01*
X358372Y381679D01*
X358289Y381650D01*
X358197Y381625D01*
X358102Y381604D01*
X358002Y381587D01*
X357898Y381579D01*
X357786Y381575D01*
X357727D01*
X357681Y381579D01*
X357632Y381583D01*
X357569Y381587D01*
X357503Y381596D01*
X357428Y381608D01*
X357349Y381621D01*
X357265Y381637D01*
X357182Y381658D01*
X357099Y381679D01*
X357012Y381708D01*
X356929Y381741D01*
X356850Y381779D01*
X356775Y381824D01*
X356770Y381829D01*
X356758Y381837D01*
X356737Y381849D01*
X356712Y381870D01*
X356679Y381899D01*
X356642Y381928D01*
X356600Y381966D01*
X356554Y382012D01*
X356508Y382062D01*
X356458Y382116D01*
X356413Y382174D01*
X356363Y382240D01*
X356313Y382311D01*
X356267Y382386D01*
X356225Y382469D01*
X356184Y382557D01*
X356180Y382561D01*
X356176Y382577D01*
X356167Y382607D01*
X356155Y382640D01*
X356138Y382685D01*
X356121Y382735D01*
X356105Y382798D01*
X356084Y382864D01*
X356067Y382939D01*
X356047Y383018D01*
X356030Y383102D01*
X356017Y383193D01*
X355993Y383384D01*
X355988Y383484D01*
X355984Y383584D01*
Y383592D01*
Y383609D01*
Y383642D01*
X355988Y383684D01*
X355993Y383738D01*
X355997Y383800D01*
X356005Y383867D01*
X356013Y383942D01*
X356026Y384021D01*
X356038Y384104D01*
X356080Y384283D01*
X356109Y384370D01*
X356138Y384458D01*
X356171Y384549D01*
X356213Y384632D01*
X356217Y384637D01*
X356225Y384653D01*
X356238Y384674D01*
X356255Y384707D01*
X356280Y384745D01*
X356309Y384786D01*
X356342Y384832D01*
X356379Y384886D01*
X356425Y384936D01*
X356471Y384994D01*
X356525Y385048D01*
X356583Y385107D01*
X356646Y385161D01*
X356712Y385215D01*
X356787Y385265D01*
X356862Y385311D01*
X356866Y385315D01*
X356883Y385319D01*
X356904Y385331D01*
X356937Y385348D01*
X356974Y385365D01*
X357024Y385385D01*
X357078Y385406D01*
X357137Y385427D01*
X357203Y385448D01*
X357278Y385469D01*
X357353Y385489D01*
X357436Y385506D01*
X357607Y385535D01*
X357698Y385539D01*
X357794Y385543D01*
X357848D01*
X357890Y385539D01*
D02*
G37*
G36*
X371717Y381637D02*
X371247D01*
Y384637D01*
X371239Y384628D01*
X371218Y384607D01*
X371181Y384578D01*
X371127Y384537D01*
X371064Y384487D01*
X370985Y384433D01*
X370898Y384374D01*
X370798Y384312D01*
X370794D01*
X370785Y384304D01*
X370773Y384295D01*
X370752Y384287D01*
X370727Y384271D01*
X370698Y384258D01*
X370632Y384221D01*
X370557Y384183D01*
X370474Y384141D01*
X370386Y384104D01*
X370303Y384071D01*
Y384524D01*
X370307Y384528D01*
X370320Y384533D01*
X370340Y384545D01*
X370370Y384558D01*
X370403Y384574D01*
X370444Y384599D01*
X370490Y384624D01*
X370536Y384649D01*
X370644Y384716D01*
X370761Y384795D01*
X370881Y384878D01*
X370993Y384974D01*
X370998Y384978D01*
X371006Y384986D01*
X371023Y384998D01*
X371043Y385019D01*
X371064Y385044D01*
X371093Y385069D01*
X371156Y385140D01*
X371227Y385215D01*
X371297Y385302D01*
X371360Y385394D01*
X371414Y385489D01*
X371717D01*
Y381637D01*
D02*
G37*
G36*
X367636Y382091D02*
X369529D01*
Y381637D01*
X367129D01*
Y385477D01*
X367636D01*
Y382091D01*
D02*
G37*
G36*
X365115Y385473D02*
X365161D01*
X365215Y385469D01*
X365278Y385464D01*
X365403Y385452D01*
X365531Y385431D01*
X365656Y385406D01*
X365710Y385389D01*
X365764Y385373D01*
X365769D01*
X365777Y385369D01*
X365789Y385360D01*
X365810Y385352D01*
X365860Y385327D01*
X365918Y385290D01*
X365989Y385240D01*
X366060Y385173D01*
X366130Y385098D01*
X366193Y385007D01*
Y385003D01*
X366201Y384994D01*
X366210Y384982D01*
X366218Y384961D01*
X366230Y384936D01*
X366243Y384907D01*
X366260Y384874D01*
X366276Y384836D01*
X366305Y384749D01*
X366330Y384653D01*
X366347Y384545D01*
X366355Y384429D01*
Y384424D01*
Y384412D01*
Y384387D01*
X366351Y384362D01*
X366347Y384325D01*
X366343Y384283D01*
X366334Y384237D01*
X366322Y384187D01*
X366289Y384079D01*
X366268Y384021D01*
X366243Y383963D01*
X366214Y383904D01*
X366176Y383846D01*
X366135Y383792D01*
X366089Y383738D01*
X366085Y383734D01*
X366076Y383726D01*
X366060Y383713D01*
X366039Y383692D01*
X366010Y383671D01*
X365977Y383646D01*
X365935Y383617D01*
X365885Y383588D01*
X365831Y383559D01*
X365773Y383530D01*
X365706Y383501D01*
X365631Y383472D01*
X365552Y383447D01*
X365465Y383422D01*
X365369Y383401D01*
X365269Y383384D01*
X365273D01*
X365278Y383380D01*
X365303Y383368D01*
X365340Y383347D01*
X365386Y383322D01*
X365436Y383293D01*
X365486Y383264D01*
X365536Y383226D01*
X365577Y383193D01*
X365581Y383189D01*
X365585Y383185D01*
X365598Y383172D01*
X365615Y383156D01*
X365635Y383135D01*
X365660Y383110D01*
X365715Y383052D01*
X365777Y382977D01*
X365848Y382889D01*
X365922Y382789D01*
X365997Y382681D01*
X366663Y381637D01*
X366026D01*
X365519Y382436D01*
X365515Y382440D01*
X365511Y382453D01*
X365498Y382469D01*
X365481Y382494D01*
X365465Y382523D01*
X365440Y382557D01*
X365390Y382631D01*
X365332Y382719D01*
X365273Y382806D01*
X365211Y382889D01*
X365153Y382964D01*
Y382968D01*
X365145Y382973D01*
X365128Y382993D01*
X365103Y383027D01*
X365066Y383064D01*
X365028Y383106D01*
X364982Y383147D01*
X364937Y383189D01*
X364895Y383218D01*
X364891Y383222D01*
X364874Y383230D01*
X364853Y383243D01*
X364824Y383260D01*
X364787Y383276D01*
X364749Y383293D01*
X364708Y383310D01*
X364662Y383322D01*
X364658D01*
X364645Y383326D01*
X364625Y383330D01*
X364595Y383334D01*
X364554D01*
X364504Y383339D01*
X364446Y383343D01*
X363793D01*
Y381637D01*
X363285D01*
Y385477D01*
X365070D01*
X365115Y385473D01*
D02*
G37*
G36*
X362753Y385023D02*
X361488D01*
Y381637D01*
X360980D01*
Y385023D01*
X359716D01*
Y385477D01*
X362753D01*
Y385023D01*
D02*
G37*
G36*
X414366Y349138D02*
X414430D01*
X414509Y349128D01*
X414597Y349118D01*
X414696Y349103D01*
X414799Y349083D01*
X414715Y348596D01*
X414705D01*
X414686Y348601D01*
X414651Y348606D01*
X414607Y348616D01*
X414558Y348621D01*
X414504Y348626D01*
X414386Y348631D01*
X414346D01*
X414297Y348626D01*
X414243Y348616D01*
X414184Y348606D01*
X414125Y348587D01*
X414071Y348557D01*
X414026Y348523D01*
X414021Y348518D01*
X414012Y348503D01*
X413992Y348473D01*
X413977Y348434D01*
X413958Y348375D01*
X413938Y348306D01*
X413928Y348222D01*
X413923Y348119D01*
Y347819D01*
X414563D01*
Y347386D01*
X413923D01*
Y344528D01*
X413367D01*
Y347386D01*
X412875D01*
Y347819D01*
X413367D01*
Y348163D01*
Y348168D01*
Y348178D01*
Y348193D01*
Y348218D01*
X413372Y348277D01*
X413377Y348350D01*
X413382Y348429D01*
X413392Y348508D01*
X413407Y348587D01*
X413426Y348655D01*
Y348660D01*
X413431Y348665D01*
X413441Y348690D01*
X413461Y348729D01*
X413490Y348778D01*
X413529Y348837D01*
X413579Y348897D01*
X413638Y348951D01*
X413707Y349005D01*
X413717Y349010D01*
X413746Y349024D01*
X413790Y349049D01*
X413854Y349074D01*
X413938Y349098D01*
X414036Y349123D01*
X414149Y349138D01*
X414277Y349143D01*
X414317D01*
X414366Y349138D01*
D02*
G37*
G36*
X415556Y348434D02*
X415001D01*
Y349069D01*
X415556D01*
Y348434D01*
D02*
G37*
G36*
X387016D02*
X386460D01*
Y349069D01*
X387016D01*
Y348434D01*
D02*
G37*
G36*
X409043Y349143D02*
X409101Y349138D01*
X409170Y349128D01*
X409244Y349118D01*
X409328Y349103D01*
X409416Y349083D01*
X409510Y349064D01*
X409603Y349034D01*
X409702Y349000D01*
X409800Y348960D01*
X409894Y348911D01*
X409987Y348862D01*
X410076Y348798D01*
X410081Y348793D01*
X410095Y348783D01*
X410120Y348764D01*
X410149Y348734D01*
X410189Y348700D01*
X410233Y348655D01*
X410277Y348606D01*
X410331Y348547D01*
X410386Y348483D01*
X410440Y348409D01*
X410494Y348331D01*
X410543Y348242D01*
X410597Y348149D01*
X410641Y348045D01*
X410686Y347937D01*
X410725Y347824D01*
X410135Y347686D01*
Y347691D01*
X410125Y347706D01*
X410120Y347735D01*
X410105Y347770D01*
X410090Y347809D01*
X410066Y347853D01*
X410017Y347962D01*
X409953Y348080D01*
X409869Y348203D01*
X409781Y348316D01*
X409726Y348365D01*
X409672Y348409D01*
X409667Y348414D01*
X409657Y348419D01*
X409643Y348429D01*
X409618Y348444D01*
X409589Y348464D01*
X409554Y348483D01*
X409515Y348503D01*
X409466Y348523D01*
X409411Y348542D01*
X409357Y348562D01*
X409229Y348601D01*
X409082Y348626D01*
X409003Y348636D01*
X408870D01*
X408831Y348631D01*
X408787Y348626D01*
X408733Y348621D01*
X408673Y348616D01*
X408614Y348606D01*
X408472Y348572D01*
X408324Y348528D01*
X408250Y348498D01*
X408177Y348464D01*
X408108Y348424D01*
X408039Y348380D01*
X408034Y348375D01*
X408024Y348370D01*
X408004Y348355D01*
X407980Y348336D01*
X407955Y348311D01*
X407921Y348277D01*
X407886Y348242D01*
X407847Y348203D01*
X407807Y348154D01*
X407763Y348104D01*
X407685Y347991D01*
X407611Y347858D01*
X407547Y347706D01*
Y347701D01*
X407542Y347686D01*
X407532Y347662D01*
X407527Y347632D01*
X407517Y347593D01*
X407503Y347548D01*
X407493Y347494D01*
X407478Y347440D01*
X407463Y347376D01*
X407453Y347307D01*
X407429Y347160D01*
X407414Y347002D01*
X407409Y346835D01*
Y346830D01*
Y346810D01*
Y346781D01*
X407414Y346737D01*
Y346687D01*
X407419Y346628D01*
X407424Y346564D01*
X407429Y346491D01*
X407439Y346412D01*
X407448Y346333D01*
X407478Y346161D01*
X407522Y345989D01*
X407576Y345821D01*
Y345817D01*
X407586Y345802D01*
X407596Y345782D01*
X407606Y345753D01*
X407625Y345713D01*
X407650Y345674D01*
X407704Y345580D01*
X407778Y345472D01*
X407867Y345369D01*
X407975Y345266D01*
X408034Y345221D01*
X408098Y345177D01*
X408103D01*
X408113Y345167D01*
X408132Y345157D01*
X408162Y345143D01*
X408196Y345128D01*
X408236Y345108D01*
X408280Y345093D01*
X408329Y345074D01*
X408442Y345034D01*
X408575Y345000D01*
X408718Y344975D01*
X408791Y344970D01*
X408870Y344965D01*
X408919D01*
X408954Y344970D01*
X408998Y344975D01*
X409047Y344980D01*
X409106Y344990D01*
X409165Y345000D01*
X409303Y345034D01*
X409372Y345059D01*
X409446Y345088D01*
X409520Y345123D01*
X409589Y345162D01*
X409657Y345206D01*
X409726Y345256D01*
X409731Y345261D01*
X409741Y345270D01*
X409761Y345285D01*
X409785Y345310D01*
X409810Y345339D01*
X409844Y345379D01*
X409879Y345423D01*
X409918Y345472D01*
X409958Y345531D01*
X409997Y345595D01*
X410036Y345664D01*
X410076Y345743D01*
X410110Y345826D01*
X410145Y345920D01*
X410179Y346018D01*
X410204Y346122D01*
X410804Y345969D01*
Y345959D01*
X410794Y345935D01*
X410784Y345900D01*
X410765Y345846D01*
X410745Y345787D01*
X410715Y345713D01*
X410686Y345635D01*
X410646Y345551D01*
X410602Y345457D01*
X410553Y345369D01*
X410499Y345270D01*
X410435Y345177D01*
X410366Y345088D01*
X410292Y345000D01*
X410209Y344916D01*
X410120Y344837D01*
X410115Y344833D01*
X410095Y344823D01*
X410071Y344803D01*
X410031Y344778D01*
X409987Y344749D01*
X409928Y344714D01*
X409864Y344680D01*
X409785Y344646D01*
X409702Y344611D01*
X409613Y344577D01*
X409515Y344542D01*
X409407Y344513D01*
X409293Y344488D01*
X409175Y344468D01*
X409052Y344459D01*
X408919Y344454D01*
X408851D01*
X408797Y344459D01*
X408737Y344464D01*
X408664Y344468D01*
X408585Y344478D01*
X408496Y344493D01*
X408403Y344508D01*
X408305Y344528D01*
X408206Y344552D01*
X408108Y344577D01*
X408004Y344611D01*
X407906Y344651D01*
X407812Y344695D01*
X407724Y344749D01*
X407719Y344754D01*
X407704Y344764D01*
X407680Y344778D01*
X407650Y344803D01*
X407611Y344837D01*
X407566Y344872D01*
X407517Y344916D01*
X407463Y344970D01*
X407409Y345029D01*
X407350Y345093D01*
X407296Y345162D01*
X407237Y345241D01*
X407178Y345325D01*
X407124Y345413D01*
X407074Y345512D01*
X407025Y345615D01*
X407020Y345620D01*
X407015Y345639D01*
X407006Y345674D01*
X406991Y345713D01*
X406971Y345767D01*
X406952Y345826D01*
X406932Y345900D01*
X406907Y345979D01*
X406887Y346068D01*
X406863Y346161D01*
X406843Y346259D01*
X406828Y346368D01*
X406799Y346594D01*
X406794Y346712D01*
X406789Y346830D01*
Y346840D01*
Y346860D01*
Y346899D01*
X406794Y346948D01*
X406799Y347012D01*
X406804Y347086D01*
X406814Y347165D01*
X406823Y347253D01*
X406838Y347347D01*
X406853Y347445D01*
X406902Y347657D01*
X406937Y347760D01*
X406971Y347863D01*
X407011Y347972D01*
X407060Y348070D01*
X407065Y348075D01*
X407074Y348095D01*
X407089Y348119D01*
X407109Y348159D01*
X407138Y348203D01*
X407173Y348252D01*
X407212Y348306D01*
X407257Y348370D01*
X407311Y348429D01*
X407365Y348498D01*
X407429Y348562D01*
X407498Y348631D01*
X407571Y348695D01*
X407650Y348759D01*
X407739Y348818D01*
X407827Y348872D01*
X407832Y348877D01*
X407852Y348882D01*
X407876Y348897D01*
X407916Y348916D01*
X407960Y348936D01*
X408019Y348960D01*
X408083Y348985D01*
X408152Y349010D01*
X408231Y349034D01*
X408319Y349059D01*
X408408Y349083D01*
X408506Y349103D01*
X408708Y349138D01*
X408816Y349143D01*
X408929Y349147D01*
X408993D01*
X409043Y349143D01*
D02*
G37*
G36*
X404462D02*
X404521Y349138D01*
X404590Y349128D01*
X404664Y349118D01*
X404747Y349103D01*
X404836Y349083D01*
X404929Y349064D01*
X405023Y349034D01*
X405121Y349000D01*
X405220Y348960D01*
X405313Y348911D01*
X405407Y348862D01*
X405495Y348798D01*
X405500Y348793D01*
X405515Y348783D01*
X405539Y348764D01*
X405569Y348734D01*
X405608Y348700D01*
X405653Y348655D01*
X405697Y348606D01*
X405751Y348547D01*
X405805Y348483D01*
X405859Y348409D01*
X405913Y348331D01*
X405963Y348242D01*
X406017Y348149D01*
X406061Y348045D01*
X406105Y347937D01*
X406145Y347824D01*
X405554Y347686D01*
Y347691D01*
X405544Y347706D01*
X405539Y347735D01*
X405525Y347770D01*
X405510Y347809D01*
X405485Y347853D01*
X405436Y347962D01*
X405372Y348080D01*
X405289Y348203D01*
X405200Y348316D01*
X405146Y348365D01*
X405092Y348409D01*
X405087Y348414D01*
X405077Y348419D01*
X405062Y348429D01*
X405038Y348444D01*
X405008Y348464D01*
X404974Y348483D01*
X404934Y348503D01*
X404885Y348523D01*
X404831Y348542D01*
X404777Y348562D01*
X404649Y348601D01*
X404501Y348626D01*
X404423Y348636D01*
X404290D01*
X404250Y348631D01*
X404206Y348626D01*
X404152Y348621D01*
X404093Y348616D01*
X404034Y348606D01*
X403891Y348572D01*
X403744Y348528D01*
X403670Y348498D01*
X403596Y348464D01*
X403527Y348424D01*
X403458Y348380D01*
X403453Y348375D01*
X403443Y348370D01*
X403424Y348355D01*
X403399Y348336D01*
X403375Y348311D01*
X403340Y348277D01*
X403306Y348242D01*
X403266Y348203D01*
X403227Y348154D01*
X403183Y348104D01*
X403104Y347991D01*
X403030Y347858D01*
X402966Y347706D01*
Y347701D01*
X402961Y347686D01*
X402951Y347662D01*
X402947Y347632D01*
X402937Y347593D01*
X402922Y347548D01*
X402912Y347494D01*
X402897Y347440D01*
X402883Y347376D01*
X402873Y347307D01*
X402848Y347160D01*
X402833Y347002D01*
X402829Y346835D01*
Y346830D01*
Y346810D01*
Y346781D01*
X402833Y346737D01*
Y346687D01*
X402838Y346628D01*
X402843Y346564D01*
X402848Y346491D01*
X402858Y346412D01*
X402868Y346333D01*
X402897Y346161D01*
X402942Y345989D01*
X402996Y345821D01*
Y345817D01*
X403006Y345802D01*
X403016Y345782D01*
X403025Y345753D01*
X403045Y345713D01*
X403070Y345674D01*
X403124Y345580D01*
X403197Y345472D01*
X403286Y345369D01*
X403394Y345266D01*
X403453Y345221D01*
X403517Y345177D01*
X403522D01*
X403532Y345167D01*
X403552Y345157D01*
X403581Y345143D01*
X403616Y345128D01*
X403655Y345108D01*
X403699Y345093D01*
X403749Y345074D01*
X403862Y345034D01*
X403995Y345000D01*
X404137Y344975D01*
X404211Y344970D01*
X404290Y344965D01*
X404339D01*
X404373Y344970D01*
X404418Y344975D01*
X404467Y344980D01*
X404526Y344990D01*
X404585Y345000D01*
X404723Y345034D01*
X404792Y345059D01*
X404865Y345088D01*
X404939Y345123D01*
X405008Y345162D01*
X405077Y345206D01*
X405146Y345256D01*
X405151Y345261D01*
X405161Y345270D01*
X405180Y345285D01*
X405205Y345310D01*
X405230Y345339D01*
X405264Y345379D01*
X405298Y345423D01*
X405338Y345472D01*
X405377Y345531D01*
X405416Y345595D01*
X405456Y345664D01*
X405495Y345743D01*
X405530Y345826D01*
X405564Y345920D01*
X405598Y346018D01*
X405623Y346122D01*
X406223Y345969D01*
Y345959D01*
X406214Y345935D01*
X406204Y345900D01*
X406184Y345846D01*
X406164Y345787D01*
X406135Y345713D01*
X406105Y345635D01*
X406066Y345551D01*
X406022Y345457D01*
X405972Y345369D01*
X405918Y345270D01*
X405854Y345177D01*
X405785Y345088D01*
X405712Y345000D01*
X405628Y344916D01*
X405539Y344837D01*
X405535Y344833D01*
X405515Y344823D01*
X405490Y344803D01*
X405451Y344778D01*
X405407Y344749D01*
X405347Y344714D01*
X405284Y344680D01*
X405205Y344646D01*
X405121Y344611D01*
X405033Y344577D01*
X404934Y344542D01*
X404826Y344513D01*
X404713Y344488D01*
X404595Y344468D01*
X404472Y344459D01*
X404339Y344454D01*
X404270D01*
X404216Y344459D01*
X404157Y344464D01*
X404083Y344468D01*
X404004Y344478D01*
X403916Y344493D01*
X403822Y344508D01*
X403724Y344528D01*
X403625Y344552D01*
X403527Y344577D01*
X403424Y344611D01*
X403325Y344651D01*
X403232Y344695D01*
X403143Y344749D01*
X403138Y344754D01*
X403124Y344764D01*
X403099Y344778D01*
X403070Y344803D01*
X403030Y344837D01*
X402986Y344872D01*
X402937Y344916D01*
X402883Y344970D01*
X402829Y345029D01*
X402770Y345093D01*
X402715Y345162D01*
X402656Y345241D01*
X402597Y345325D01*
X402543Y345413D01*
X402494Y345512D01*
X402445Y345615D01*
X402440Y345620D01*
X402435Y345639D01*
X402425Y345674D01*
X402410Y345713D01*
X402391Y345767D01*
X402371Y345826D01*
X402351Y345900D01*
X402327Y345979D01*
X402307Y346068D01*
X402282Y346161D01*
X402263Y346259D01*
X402248Y346368D01*
X402218Y346594D01*
X402213Y346712D01*
X402209Y346830D01*
Y346840D01*
Y346860D01*
Y346899D01*
X402213Y346948D01*
X402218Y347012D01*
X402223Y347086D01*
X402233Y347165D01*
X402243Y347253D01*
X402258Y347347D01*
X402273Y347445D01*
X402322Y347657D01*
X402356Y347760D01*
X402391Y347863D01*
X402430Y347972D01*
X402479Y348070D01*
X402484Y348075D01*
X402494Y348095D01*
X402509Y348119D01*
X402528Y348159D01*
X402558Y348203D01*
X402592Y348252D01*
X402632Y348306D01*
X402676Y348370D01*
X402730Y348429D01*
X402784Y348498D01*
X402848Y348562D01*
X402917Y348631D01*
X402991Y348695D01*
X403070Y348759D01*
X403158Y348818D01*
X403247Y348872D01*
X403252Y348877D01*
X403271Y348882D01*
X403296Y348897D01*
X403335Y348916D01*
X403379Y348936D01*
X403439Y348960D01*
X403503Y348985D01*
X403571Y349010D01*
X403650Y349034D01*
X403739Y349059D01*
X403827Y349083D01*
X403926Y349103D01*
X404127Y349138D01*
X404236Y349143D01*
X404349Y349147D01*
X404413D01*
X404462Y349143D01*
D02*
G37*
G36*
X326027D02*
X326077Y349138D01*
X326131Y349133D01*
X326195Y349128D01*
X326332Y349108D01*
X326485Y349079D01*
X326637Y349039D01*
X326790Y348985D01*
X326795D01*
X326810Y348980D01*
X326829Y348970D01*
X326854Y348956D01*
X326888Y348941D01*
X326928Y348921D01*
X327016Y348872D01*
X327119Y348808D01*
X327223Y348734D01*
X327321Y348646D01*
X327415Y348542D01*
X327420Y348537D01*
X327425Y348528D01*
X327434Y348513D01*
X327454Y348493D01*
X327469Y348464D01*
X327494Y348429D01*
X327518Y348390D01*
X327543Y348341D01*
X327572Y348291D01*
X327597Y348237D01*
X327626Y348173D01*
X327656Y348109D01*
X327710Y347962D01*
X327759Y347799D01*
X327213Y347652D01*
Y347657D01*
X327208Y347667D01*
X327203Y347686D01*
X327193Y347711D01*
X327184Y347735D01*
X327174Y347770D01*
X327144Y347849D01*
X327105Y347937D01*
X327061Y348026D01*
X327011Y348114D01*
X326957Y348193D01*
X326952Y348203D01*
X326928Y348227D01*
X326893Y348262D01*
X326849Y348311D01*
X326785Y348360D01*
X326711Y348414D01*
X326623Y348464D01*
X326524Y348513D01*
X326519D01*
X326509Y348518D01*
X326495Y348523D01*
X326475Y348532D01*
X326450Y348542D01*
X326416Y348552D01*
X326342Y348577D01*
X326249Y348596D01*
X326145Y348616D01*
X326027Y348631D01*
X325904Y348636D01*
X325835D01*
X325801Y348631D01*
X325757D01*
X325712Y348626D01*
X325658Y348621D01*
X325550Y348606D01*
X325427Y348582D01*
X325309Y348552D01*
X325191Y348508D01*
X325186D01*
X325176Y348503D01*
X325161Y348493D01*
X325142Y348483D01*
X325088Y348459D01*
X325019Y348419D01*
X324940Y348370D01*
X324861Y348311D01*
X324778Y348247D01*
X324704Y348173D01*
X324694Y348163D01*
X324674Y348139D01*
X324640Y348095D01*
X324601Y348040D01*
X324556Y347976D01*
X324507Y347898D01*
X324463Y347814D01*
X324423Y347726D01*
Y347721D01*
X324418Y347706D01*
X324409Y347686D01*
X324399Y347652D01*
X324384Y347612D01*
X324369Y347568D01*
X324355Y347514D01*
X324340Y347455D01*
X324320Y347391D01*
X324305Y347317D01*
X324281Y347165D01*
X324261Y346992D01*
X324251Y346810D01*
Y346806D01*
Y346786D01*
Y346751D01*
X324256Y346712D01*
Y346658D01*
X324261Y346599D01*
X324271Y346530D01*
X324276Y346456D01*
X324300Y346294D01*
X324340Y346127D01*
X324389Y345954D01*
X324458Y345792D01*
X324463Y345787D01*
X324468Y345772D01*
X324478Y345753D01*
X324497Y345723D01*
X324517Y345694D01*
X324546Y345654D01*
X324610Y345566D01*
X324699Y345467D01*
X324802Y345364D01*
X324920Y345270D01*
X324989Y345226D01*
X325063Y345187D01*
X325068D01*
X325083Y345177D01*
X325102Y345167D01*
X325132Y345157D01*
X325171Y345143D01*
X325216Y345123D01*
X325265Y345108D01*
X325319Y345088D01*
X325378Y345069D01*
X325447Y345054D01*
X325589Y345020D01*
X325747Y345000D01*
X325914Y344990D01*
X325954D01*
X325983Y344995D01*
X326017D01*
X326057Y345000D01*
X326101Y345005D01*
X326155Y345010D01*
X326268Y345024D01*
X326396Y345054D01*
X326534Y345088D01*
X326672Y345138D01*
X326677D01*
X326687Y345143D01*
X326706Y345152D01*
X326736Y345162D01*
X326765Y345177D01*
X326800Y345197D01*
X326883Y345236D01*
X326977Y345285D01*
X327070Y345339D01*
X327159Y345393D01*
X327238Y345457D01*
Y346309D01*
X325904D01*
Y346845D01*
X327828D01*
Y345157D01*
X327823Y345152D01*
X327808Y345143D01*
X327784Y345123D01*
X327749Y345098D01*
X327710Y345069D01*
X327661Y345039D01*
X327607Y345000D01*
X327548Y344960D01*
X327484Y344921D01*
X327410Y344877D01*
X327257Y344788D01*
X327090Y344705D01*
X326913Y344631D01*
X326908D01*
X326893Y344621D01*
X326869Y344616D01*
X326829Y344601D01*
X326790Y344591D01*
X326736Y344577D01*
X326682Y344557D01*
X326618Y344542D01*
X326544Y344528D01*
X326470Y344508D01*
X326308Y344483D01*
X326131Y344464D01*
X325949Y344454D01*
X325885D01*
X325835Y344459D01*
X325776Y344464D01*
X325708Y344468D01*
X325629Y344478D01*
X325545Y344488D01*
X325457Y344503D01*
X325358Y344523D01*
X325260Y344547D01*
X325151Y344577D01*
X325048Y344606D01*
X324945Y344646D01*
X324837Y344690D01*
X324733Y344739D01*
X324728Y344744D01*
X324709Y344754D01*
X324679Y344769D01*
X324645Y344793D01*
X324601Y344823D01*
X324546Y344857D01*
X324487Y344901D01*
X324423Y344951D01*
X324359Y345005D01*
X324290Y345069D01*
X324222Y345133D01*
X324153Y345206D01*
X324089Y345290D01*
X324025Y345374D01*
X323961Y345467D01*
X323907Y345566D01*
X323902Y345571D01*
X323897Y345590D01*
X323882Y345620D01*
X323863Y345659D01*
X323843Y345713D01*
X323818Y345772D01*
X323794Y345841D01*
X323769Y345920D01*
X323744Y346004D01*
X323720Y346097D01*
X323695Y346200D01*
X323675Y346304D01*
X323656Y346417D01*
X323641Y346530D01*
X323636Y346653D01*
X323631Y346776D01*
Y346786D01*
Y346806D01*
Y346840D01*
X323636Y346889D01*
X323641Y346948D01*
X323646Y347017D01*
X323656Y347096D01*
X323666Y347179D01*
X323680Y347273D01*
X323700Y347371D01*
X323749Y347578D01*
X323779Y347686D01*
X323818Y347794D01*
X323858Y347903D01*
X323907Y348011D01*
X323912Y348016D01*
X323921Y348036D01*
X323936Y348065D01*
X323956Y348104D01*
X323986Y348154D01*
X324020Y348208D01*
X324064Y348267D01*
X324109Y348336D01*
X324163Y348405D01*
X324222Y348473D01*
X324286Y348542D01*
X324359Y348616D01*
X324433Y348685D01*
X324517Y348749D01*
X324605Y348813D01*
X324699Y348867D01*
X324704Y348872D01*
X324724Y348877D01*
X324753Y348892D01*
X324792Y348911D01*
X324842Y348931D01*
X324901Y348956D01*
X324970Y348980D01*
X325043Y349010D01*
X325127Y349034D01*
X325220Y349059D01*
X325319Y349083D01*
X325427Y349103D01*
X325535Y349123D01*
X325653Y349138D01*
X325776Y349143D01*
X325899Y349147D01*
X325983D01*
X326027Y349143D01*
D02*
G37*
G36*
X359842Y344528D02*
X359326D01*
Y344941D01*
X359321Y344936D01*
X359311Y344921D01*
X359291Y344897D01*
X359267Y344867D01*
X359232Y344828D01*
X359193Y344788D01*
X359149Y344744D01*
X359095Y344700D01*
X359031Y344651D01*
X358962Y344606D01*
X358888Y344567D01*
X358804Y344532D01*
X358711Y344498D01*
X358617Y344473D01*
X358514Y344459D01*
X358401Y344454D01*
X358362D01*
X358332Y344459D01*
X358298D01*
X358258Y344464D01*
X358214Y344473D01*
X358165Y344483D01*
X358052Y344508D01*
X357929Y344547D01*
X357806Y344601D01*
X357742Y344631D01*
X357678Y344670D01*
X357673Y344675D01*
X357663Y344680D01*
X357648Y344695D01*
X357624Y344710D01*
X357594Y344734D01*
X357564Y344759D01*
X357491Y344828D01*
X357407Y344911D01*
X357323Y345015D01*
X357240Y345138D01*
X357166Y345275D01*
Y345280D01*
X357156Y345295D01*
X357151Y345315D01*
X357137Y345344D01*
X357127Y345379D01*
X357112Y345423D01*
X357092Y345477D01*
X357077Y345531D01*
X357063Y345595D01*
X357043Y345664D01*
X357028Y345738D01*
X357018Y345817D01*
X356999Y345984D01*
X356989Y346166D01*
Y346171D01*
Y346191D01*
Y346215D01*
X356994Y346250D01*
Y346294D01*
X356999Y346343D01*
X357004Y346402D01*
X357009Y346466D01*
X357028Y346604D01*
X357058Y346751D01*
X357097Y346909D01*
X357151Y347061D01*
Y347066D01*
X357161Y347081D01*
X357171Y347101D01*
X357181Y347130D01*
X357200Y347160D01*
X357220Y347199D01*
X357274Y347288D01*
X357343Y347391D01*
X357427Y347489D01*
X357525Y347588D01*
X357643Y347676D01*
X357648Y347681D01*
X357658Y347686D01*
X357678Y347696D01*
X357702Y347711D01*
X357732Y347726D01*
X357771Y347745D01*
X357810Y347765D01*
X357860Y347785D01*
X357968Y347824D01*
X358091Y347858D01*
X358229Y347883D01*
X358302Y347893D01*
X358425D01*
X358485Y347888D01*
X358553Y347878D01*
X358637Y347863D01*
X358726Y347839D01*
X358819Y347809D01*
X358908Y347765D01*
X358913D01*
X358917Y347760D01*
X358947Y347740D01*
X358986Y347716D01*
X359040Y347676D01*
X359100Y347627D01*
X359163Y347573D01*
X359227Y347509D01*
X359286Y347435D01*
Y349069D01*
X359842D01*
Y344528D01*
D02*
G37*
G36*
X339685Y347888D02*
X339725D01*
X339769Y347883D01*
X339813Y347873D01*
X339867Y347863D01*
X339985Y347839D01*
X340108Y347799D01*
X340236Y347745D01*
X340300Y347711D01*
X340359Y347671D01*
X340364D01*
X340374Y347662D01*
X340389Y347647D01*
X340413Y347632D01*
X340472Y347583D01*
X340541Y347514D01*
X340620Y347425D01*
X340704Y347322D01*
X340777Y347199D01*
X340846Y347061D01*
Y347056D01*
X340851Y347042D01*
X340861Y347022D01*
X340871Y346992D01*
X340886Y346958D01*
X340900Y346914D01*
X340915Y346860D01*
X340930Y346806D01*
X340945Y346742D01*
X340960Y346678D01*
X340989Y346530D01*
X341009Y346368D01*
X341014Y346195D01*
Y346191D01*
Y346171D01*
Y346146D01*
X341009Y346112D01*
Y346068D01*
X341004Y346013D01*
X340999Y345954D01*
X340989Y345890D01*
X340969Y345753D01*
X340935Y345600D01*
X340891Y345443D01*
X340832Y345285D01*
Y345280D01*
X340822Y345266D01*
X340812Y345246D01*
X340797Y345221D01*
X340777Y345187D01*
X340758Y345147D01*
X340699Y345059D01*
X340625Y344956D01*
X340531Y344852D01*
X340428Y344754D01*
X340305Y344665D01*
X340300D01*
X340290Y344655D01*
X340271Y344646D01*
X340246Y344631D01*
X340212Y344616D01*
X340177Y344596D01*
X340133Y344582D01*
X340084Y344562D01*
X339976Y344523D01*
X339852Y344488D01*
X339720Y344464D01*
X339651Y344459D01*
X339577Y344454D01*
X339528D01*
X339479Y344459D01*
X339410Y344468D01*
X339331Y344483D01*
X339247Y344503D01*
X339159Y344528D01*
X339075Y344567D01*
X339065Y344572D01*
X339041Y344587D01*
X338996Y344616D01*
X338947Y344651D01*
X338888Y344690D01*
X338829Y344744D01*
X338770Y344803D01*
X338716Y344867D01*
Y343268D01*
X338160D01*
Y347819D01*
X338667D01*
Y347391D01*
X338677Y347396D01*
X338696Y347425D01*
X338736Y347475D01*
X338785Y347529D01*
X338844Y347588D01*
X338913Y347652D01*
X338987Y347711D01*
X339070Y347765D01*
X339075D01*
X339080Y347770D01*
X339110Y347785D01*
X339159Y347804D01*
X339223Y347829D01*
X339301Y347853D01*
X339395Y347873D01*
X339503Y347888D01*
X339616Y347893D01*
X339656D01*
X339685Y347888D01*
D02*
G37*
G36*
X424354D02*
X424378D01*
X424408Y347883D01*
X424481Y347868D01*
X424570Y347849D01*
X424663Y347814D01*
X424772Y347770D01*
X424880Y347711D01*
X424683Y347194D01*
X424673Y347199D01*
X424649Y347214D01*
X424609Y347234D01*
X424555Y347258D01*
X424496Y347278D01*
X424427Y347298D01*
X424354Y347312D01*
X424275Y347317D01*
X424245D01*
X424211Y347312D01*
X424166Y347302D01*
X424112Y347288D01*
X424058Y347268D01*
X424004Y347243D01*
X423945Y347204D01*
X423940Y347199D01*
X423920Y347184D01*
X423896Y347160D01*
X423866Y347125D01*
X423832Y347081D01*
X423798Y347032D01*
X423768Y346968D01*
X423738Y346899D01*
Y346894D01*
X423734Y346884D01*
X423729Y346869D01*
X423724Y346850D01*
X423719Y346820D01*
X423709Y346786D01*
X423694Y346707D01*
X423679Y346609D01*
X423665Y346500D01*
X423655Y346377D01*
X423650Y346250D01*
Y344528D01*
X423094D01*
Y347819D01*
X423596D01*
Y347322D01*
X423606Y347332D01*
X423616Y347352D01*
X423630Y347371D01*
X423665Y347435D01*
X423714Y347504D01*
X423768Y347583D01*
X423827Y347662D01*
X423886Y347726D01*
X423920Y347755D01*
X423950Y347780D01*
X423960Y347785D01*
X423980Y347799D01*
X424014Y347814D01*
X424053Y347839D01*
X424108Y347858D01*
X424166Y347873D01*
X424235Y347888D01*
X424304Y347893D01*
X424334D01*
X424354Y347888D01*
D02*
G37*
G36*
X379257D02*
X379281D01*
X379311Y347883D01*
X379385Y347868D01*
X379473Y347849D01*
X379567Y347814D01*
X379675Y347770D01*
X379783Y347711D01*
X379586Y347194D01*
X379577Y347199D01*
X379552Y347214D01*
X379513Y347234D01*
X379458Y347258D01*
X379399Y347278D01*
X379331Y347298D01*
X379257Y347312D01*
X379178Y347317D01*
X379149D01*
X379114Y347312D01*
X379070Y347302D01*
X379016Y347288D01*
X378962Y347268D01*
X378907Y347243D01*
X378848Y347204D01*
X378843Y347199D01*
X378824Y347184D01*
X378799Y347160D01*
X378770Y347125D01*
X378735Y347081D01*
X378701Y347032D01*
X378671Y346968D01*
X378642Y346899D01*
Y346894D01*
X378637Y346884D01*
X378632Y346869D01*
X378627Y346850D01*
X378622Y346820D01*
X378612Y346786D01*
X378597Y346707D01*
X378583Y346609D01*
X378568Y346500D01*
X378558Y346377D01*
X378553Y346250D01*
Y344528D01*
X377997D01*
Y347819D01*
X378499D01*
Y347322D01*
X378509Y347332D01*
X378519Y347352D01*
X378534Y347371D01*
X378568Y347435D01*
X378617Y347504D01*
X378671Y347583D01*
X378730Y347662D01*
X378789Y347726D01*
X378824Y347755D01*
X378853Y347780D01*
X378863Y347785D01*
X378883Y347799D01*
X378917Y347814D01*
X378957Y347839D01*
X379011Y347858D01*
X379070Y347873D01*
X379139Y347888D01*
X379208Y347893D01*
X379237D01*
X379257Y347888D01*
D02*
G37*
G36*
X354578D02*
X354603D01*
X354632Y347883D01*
X354706Y347868D01*
X354795Y347849D01*
X354888Y347814D01*
X354996Y347770D01*
X355104Y347711D01*
X354908Y347194D01*
X354898Y347199D01*
X354873Y347214D01*
X354834Y347234D01*
X354780Y347258D01*
X354721Y347278D01*
X354652Y347298D01*
X354578Y347312D01*
X354499Y347317D01*
X354470D01*
X354435Y347312D01*
X354391Y347302D01*
X354337Y347288D01*
X354283Y347268D01*
X354229Y347243D01*
X354170Y347204D01*
X354165Y347199D01*
X354145Y347184D01*
X354120Y347160D01*
X354091Y347125D01*
X354057Y347081D01*
X354022Y347032D01*
X353993Y346968D01*
X353963Y346899D01*
Y346894D01*
X353958Y346884D01*
X353953Y346869D01*
X353948Y346850D01*
X353943Y346820D01*
X353934Y346786D01*
X353919Y346707D01*
X353904Y346609D01*
X353889Y346500D01*
X353879Y346377D01*
X353874Y346250D01*
Y344528D01*
X353319D01*
Y347819D01*
X353820D01*
Y347322D01*
X353830Y347332D01*
X353840Y347352D01*
X353855Y347371D01*
X353889Y347435D01*
X353939Y347504D01*
X353993Y347583D01*
X354052Y347662D01*
X354111Y347726D01*
X354145Y347755D01*
X354175Y347780D01*
X354185Y347785D01*
X354204Y347799D01*
X354239Y347814D01*
X354278Y347839D01*
X354332Y347858D01*
X354391Y347873D01*
X354460Y347888D01*
X354529Y347893D01*
X354558D01*
X354578Y347888D01*
D02*
G37*
G36*
X332295Y344528D02*
X331695D01*
Y346668D01*
X329339D01*
Y344528D01*
X328738D01*
Y349069D01*
X329339D01*
Y347204D01*
X331695D01*
Y349069D01*
X332295D01*
Y344528D01*
D02*
G37*
G36*
X370957Y347888D02*
X371001Y347883D01*
X371055Y347878D01*
X371114Y347868D01*
X371178Y347858D01*
X371316Y347824D01*
X371463Y347775D01*
X371537Y347745D01*
X371611Y347711D01*
X371680Y347667D01*
X371744Y347617D01*
X371749Y347612D01*
X371759Y347603D01*
X371778Y347588D01*
X371798Y347568D01*
X371828Y347539D01*
X371857Y347504D01*
X371891Y347465D01*
X371926Y347421D01*
X371965Y347366D01*
X372000Y347312D01*
X372039Y347248D01*
X372074Y347179D01*
X372103Y347106D01*
X372133Y347027D01*
X372162Y346938D01*
X372182Y346850D01*
X371641Y346766D01*
Y346771D01*
X371636Y346781D01*
X371631Y346796D01*
X371626Y346820D01*
X371606Y346879D01*
X371577Y346953D01*
X371537Y347032D01*
X371493Y347115D01*
X371434Y347194D01*
X371365Y347263D01*
X371355Y347273D01*
X371331Y347293D01*
X371286Y347317D01*
X371232Y347352D01*
X371163Y347381D01*
X371085Y347411D01*
X370991Y347430D01*
X370893Y347435D01*
X370853D01*
X370824Y347430D01*
X370784Y347425D01*
X370745Y347421D01*
X370647Y347396D01*
X370538Y347361D01*
X370484Y347337D01*
X370425Y347307D01*
X370371Y347273D01*
X370312Y347229D01*
X370258Y347184D01*
X370209Y347130D01*
X370204Y347125D01*
X370199Y347115D01*
X370184Y347101D01*
X370169Y347071D01*
X370150Y347042D01*
X370125Y347002D01*
X370101Y346953D01*
X370081Y346899D01*
X370056Y346835D01*
X370032Y346766D01*
X370007Y346687D01*
X369988Y346599D01*
X369973Y346505D01*
X369958Y346407D01*
X369953Y346294D01*
X369948Y346176D01*
Y346171D01*
Y346146D01*
Y346112D01*
X369953Y346068D01*
X369958Y346013D01*
X369963Y345949D01*
X369968Y345881D01*
X369978Y345807D01*
X370007Y345649D01*
X370056Y345487D01*
X370081Y345413D01*
X370115Y345339D01*
X370155Y345270D01*
X370199Y345211D01*
X370204Y345206D01*
X370209Y345197D01*
X370224Y345182D01*
X370243Y345167D01*
X370273Y345143D01*
X370302Y345118D01*
X370337Y345088D01*
X370376Y345064D01*
X370475Y345005D01*
X370588Y344960D01*
X370652Y344941D01*
X370716Y344926D01*
X370790Y344916D01*
X370863Y344911D01*
X370893D01*
X370917Y344916D01*
X370947D01*
X370976Y344921D01*
X371055Y344936D01*
X371139Y344960D01*
X371232Y344995D01*
X371321Y345044D01*
X371409Y345108D01*
X371414Y345113D01*
X371419Y345118D01*
X371444Y345147D01*
X371483Y345197D01*
X371503Y345226D01*
X371528Y345261D01*
X371552Y345305D01*
X371577Y345349D01*
X371596Y345398D01*
X371621Y345457D01*
X371641Y345516D01*
X371660Y345585D01*
X371675Y345654D01*
X371690Y345733D01*
X372236Y345659D01*
Y345654D01*
X372231Y345635D01*
X372226Y345605D01*
X372216Y345566D01*
X372201Y345516D01*
X372187Y345462D01*
X372167Y345403D01*
X372143Y345334D01*
X372083Y345197D01*
X372044Y345123D01*
X372000Y345049D01*
X371955Y344975D01*
X371901Y344901D01*
X371837Y344837D01*
X371774Y344774D01*
X371768Y344769D01*
X371759Y344759D01*
X371734Y344744D01*
X371709Y344724D01*
X371670Y344700D01*
X371631Y344670D01*
X371577Y344646D01*
X371522Y344616D01*
X371459Y344582D01*
X371390Y344557D01*
X371316Y344528D01*
X371237Y344503D01*
X371149Y344483D01*
X371060Y344468D01*
X370967Y344459D01*
X370868Y344454D01*
X370839D01*
X370804Y344459D01*
X370755D01*
X370701Y344468D01*
X370632Y344478D01*
X370558Y344488D01*
X370479Y344508D01*
X370396Y344532D01*
X370307Y344562D01*
X370219Y344596D01*
X370125Y344641D01*
X370037Y344690D01*
X369948Y344749D01*
X369865Y344813D01*
X369786Y344892D01*
X369781Y344897D01*
X369766Y344911D01*
X369746Y344936D01*
X369722Y344975D01*
X369692Y345020D01*
X369658Y345074D01*
X369619Y345143D01*
X369584Y345216D01*
X369545Y345300D01*
X369505Y345393D01*
X369471Y345497D01*
X369441Y345610D01*
X369417Y345733D01*
X369397Y345866D01*
X369382Y346008D01*
X369377Y346156D01*
Y346161D01*
Y346181D01*
Y346210D01*
X369382Y346245D01*
Y346294D01*
X369387Y346348D01*
X369392Y346407D01*
X369397Y346476D01*
X369422Y346619D01*
X369451Y346776D01*
X369491Y346938D01*
X369550Y347091D01*
Y347096D01*
X369560Y347111D01*
X369569Y347130D01*
X369584Y347155D01*
X369604Y347189D01*
X369623Y347229D01*
X369683Y347317D01*
X369756Y347411D01*
X369850Y347514D01*
X369958Y347607D01*
X370086Y347691D01*
X370091D01*
X370101Y347701D01*
X370120Y347711D01*
X370150Y347721D01*
X370184Y347740D01*
X370224Y347755D01*
X370268Y347775D01*
X370317Y347794D01*
X370376Y347809D01*
X370435Y347829D01*
X370568Y347863D01*
X370716Y347883D01*
X370868Y347893D01*
X370922D01*
X370957Y347888D01*
D02*
G37*
G36*
X312517Y345890D02*
X310800D01*
Y346451D01*
X312517D01*
Y345890D01*
D02*
G37*
G36*
X384949Y344528D02*
X384379D01*
X383852Y346496D01*
X383724Y347056D01*
X383050Y344528D01*
X382465D01*
X381471Y347819D01*
X382051D01*
X382573Y345915D01*
X382765Y345211D01*
Y345216D01*
X382770Y345231D01*
X382775Y345241D01*
Y345261D01*
X382784Y345285D01*
X382789Y345315D01*
X382799Y345354D01*
X382809Y345398D01*
X382824Y345452D01*
X382843Y345516D01*
X382863Y345590D01*
X382883Y345679D01*
X382907Y345777D01*
X382937Y345885D01*
X383463Y347819D01*
X384029D01*
X384526Y345905D01*
X384688Y345280D01*
X384875Y345915D01*
X385446Y347819D01*
X385987D01*
X384949Y344528D01*
D02*
G37*
G36*
X348290D02*
X347720D01*
X347193Y346496D01*
X347065Y347056D01*
X346391Y344528D01*
X345806D01*
X344812Y347819D01*
X345392D01*
X345914Y345915D01*
X346106Y345211D01*
Y345216D01*
X346111Y345231D01*
X346116Y345241D01*
Y345261D01*
X346126Y345285D01*
X346130Y345315D01*
X346140Y345354D01*
X346150Y345398D01*
X346165Y345452D01*
X346184Y345516D01*
X346204Y345590D01*
X346224Y345679D01*
X346249Y345777D01*
X346278Y345885D01*
X346804Y347819D01*
X347370D01*
X347867Y345905D01*
X348029Y345280D01*
X348217Y345915D01*
X348787Y347819D01*
X349328D01*
X348290Y344528D01*
D02*
G37*
G36*
X321063Y348478D02*
X319248D01*
X319006Y347258D01*
X319011Y347263D01*
X319026Y347273D01*
X319046Y347283D01*
X319075Y347302D01*
X319115Y347322D01*
X319159Y347347D01*
X319208Y347376D01*
X319267Y347401D01*
X319326Y347425D01*
X319395Y347455D01*
X319538Y347499D01*
X319617Y347519D01*
X319695Y347534D01*
X319779Y347539D01*
X319863Y347544D01*
X319887D01*
X319922Y347539D01*
X319961D01*
X320010Y347529D01*
X320069Y347524D01*
X320138Y347509D01*
X320207Y347494D01*
X320286Y347470D01*
X320364Y347445D01*
X320448Y347411D01*
X320532Y347371D01*
X320615Y347322D01*
X320699Y347268D01*
X320783Y347204D01*
X320861Y347130D01*
X320866Y347125D01*
X320881Y347111D01*
X320901Y347086D01*
X320925Y347056D01*
X320960Y347017D01*
X320994Y346963D01*
X321029Y346909D01*
X321068Y346845D01*
X321107Y346771D01*
X321142Y346687D01*
X321181Y346604D01*
X321211Y346505D01*
X321235Y346407D01*
X321255Y346299D01*
X321270Y346186D01*
X321275Y346068D01*
Y346063D01*
Y346038D01*
Y346008D01*
X321270Y345964D01*
X321265Y345910D01*
X321255Y345851D01*
X321245Y345782D01*
X321230Y345703D01*
X321211Y345625D01*
X321186Y345536D01*
X321157Y345448D01*
X321122Y345359D01*
X321083Y345270D01*
X321034Y345177D01*
X320979Y345088D01*
X320915Y345005D01*
X320911Y345000D01*
X320896Y344980D01*
X320871Y344956D01*
X320837Y344921D01*
X320792Y344877D01*
X320738Y344833D01*
X320674Y344778D01*
X320601Y344729D01*
X320522Y344680D01*
X320433Y344626D01*
X320335Y344582D01*
X320227Y344542D01*
X320113Y344503D01*
X319990Y344478D01*
X319863Y344459D01*
X319725Y344454D01*
X319666D01*
X319621Y344459D01*
X319567Y344464D01*
X319508Y344473D01*
X319439Y344483D01*
X319366Y344498D01*
X319287Y344513D01*
X319203Y344537D01*
X319120Y344567D01*
X319036Y344601D01*
X318952Y344641D01*
X318869Y344685D01*
X318790Y344739D01*
X318711Y344798D01*
X318706Y344803D01*
X318696Y344813D01*
X318677Y344833D01*
X318652Y344862D01*
X318618Y344897D01*
X318583Y344936D01*
X318549Y344985D01*
X318510Y345044D01*
X318470Y345103D01*
X318431Y345172D01*
X318396Y345251D01*
X318362Y345329D01*
X318327Y345418D01*
X318303Y345512D01*
X318283Y345615D01*
X318268Y345718D01*
X318854Y345762D01*
Y345758D01*
X318859Y345743D01*
X318864Y345723D01*
X318869Y345694D01*
X318874Y345659D01*
X318888Y345615D01*
X318913Y345521D01*
X318952Y345418D01*
X319006Y345310D01*
X319070Y345211D01*
X319110Y345167D01*
X319149Y345123D01*
X319154D01*
X319159Y345113D01*
X319174Y345103D01*
X319193Y345088D01*
X319243Y345054D01*
X319311Y345020D01*
X319395Y344980D01*
X319494Y344946D01*
X319602Y344921D01*
X319661Y344916D01*
X319725Y344911D01*
X319764D01*
X319794Y344916D01*
X319828Y344921D01*
X319867Y344926D01*
X319961Y344951D01*
X320069Y344985D01*
X320123Y345010D01*
X320182Y345039D01*
X320241Y345074D01*
X320296Y345113D01*
X320350Y345157D01*
X320404Y345211D01*
X320409Y345216D01*
X320414Y345226D01*
X320428Y345241D01*
X320448Y345266D01*
X320468Y345300D01*
X320492Y345334D01*
X320517Y345379D01*
X320546Y345428D01*
X320571Y345482D01*
X320596Y345541D01*
X320620Y345610D01*
X320640Y345679D01*
X320660Y345758D01*
X320674Y345841D01*
X320679Y345925D01*
X320684Y346018D01*
Y346023D01*
Y346038D01*
Y346063D01*
X320679Y346097D01*
X320674Y346136D01*
X320669Y346186D01*
X320660Y346235D01*
X320650Y346294D01*
X320620Y346412D01*
X320571Y346540D01*
X320542Y346599D01*
X320502Y346658D01*
X320463Y346717D01*
X320414Y346771D01*
X320409Y346776D01*
X320404Y346781D01*
X320384Y346796D01*
X320364Y346815D01*
X320340Y346835D01*
X320305Y346860D01*
X320271Y346884D01*
X320227Y346914D01*
X320177Y346938D01*
X320128Y346963D01*
X320005Y347007D01*
X319941Y347027D01*
X319867Y347042D01*
X319794Y347047D01*
X319715Y347052D01*
X319671D01*
X319617Y347047D01*
X319553Y347037D01*
X319474Y347022D01*
X319390Y346997D01*
X319307Y346968D01*
X319223Y346924D01*
X319213Y346919D01*
X319188Y346904D01*
X319149Y346874D01*
X319100Y346840D01*
X319051Y346791D01*
X318992Y346737D01*
X318938Y346673D01*
X318888Y346604D01*
X318367Y346678D01*
X318805Y349010D01*
X321063D01*
Y348478D01*
D02*
G37*
G36*
X416944Y344528D02*
X416388D01*
Y349069D01*
X416944D01*
Y344528D01*
D02*
G37*
G36*
X415556D02*
X415001D01*
Y347819D01*
X415556D01*
Y344528D01*
D02*
G37*
G36*
X401761Y348532D02*
X400265D01*
Y344528D01*
X399665D01*
Y348532D01*
X398169D01*
Y349069D01*
X401761D01*
Y348532D01*
D02*
G37*
G36*
X395557Y345064D02*
X397795D01*
Y344528D01*
X394956D01*
Y349069D01*
X395557D01*
Y345064D01*
D02*
G37*
G36*
X390179Y347435D02*
X390184Y347440D01*
X390199Y347455D01*
X390218Y347480D01*
X390248Y347509D01*
X390287Y347544D01*
X390332Y347578D01*
X390386Y347622D01*
X390450Y347667D01*
X390514Y347706D01*
X390587Y347750D01*
X390671Y347785D01*
X390755Y347824D01*
X390848Y347849D01*
X390947Y347873D01*
X391050Y347888D01*
X391158Y347893D01*
X391217D01*
X391252Y347888D01*
X391286Y347883D01*
X391375Y347873D01*
X391473Y347858D01*
X391577Y347829D01*
X391685Y347794D01*
X391788Y347745D01*
X391793D01*
X391798Y347740D01*
X391813Y347730D01*
X391832Y347721D01*
X391881Y347686D01*
X391940Y347642D01*
X392000Y347588D01*
X392069Y347519D01*
X392127Y347435D01*
X392177Y347347D01*
Y347342D01*
X392182Y347337D01*
X392186Y347322D01*
X392196Y347302D01*
X392206Y347273D01*
X392216Y347243D01*
X392226Y347204D01*
X392236Y347160D01*
X392246Y347111D01*
X392255Y347056D01*
X392265Y346997D01*
X392275Y346929D01*
X392285Y346860D01*
X392290Y346781D01*
X392295Y346697D01*
Y346609D01*
Y344528D01*
X391739D01*
Y346609D01*
Y346614D01*
Y346628D01*
Y346648D01*
X391734Y346678D01*
Y346712D01*
X391729Y346751D01*
X391714Y346840D01*
X391694Y346943D01*
X391660Y347042D01*
X391616Y347140D01*
X391591Y347179D01*
X391557Y347219D01*
X391547Y347229D01*
X391522Y347248D01*
X391483Y347278D01*
X391424Y347317D01*
X391350Y347352D01*
X391266Y347381D01*
X391163Y347401D01*
X391045Y347411D01*
X391006D01*
X390956Y347406D01*
X390893Y347396D01*
X390824Y347376D01*
X390745Y347357D01*
X390661Y347322D01*
X390578Y347278D01*
X390568Y347273D01*
X390543Y347253D01*
X390504Y347224D01*
X390460Y347184D01*
X390406Y347135D01*
X390356Y347076D01*
X390307Y347007D01*
X390268Y346929D01*
X390263Y346919D01*
X390258Y346904D01*
X390253Y346889D01*
X390238Y346840D01*
X390224Y346771D01*
X390209Y346687D01*
X390194Y346584D01*
X390184Y346461D01*
X390179Y346323D01*
Y344528D01*
X389623D01*
Y349069D01*
X390179D01*
Y347435D01*
D02*
G37*
G36*
X387016Y344528D02*
X386460D01*
Y347819D01*
X387016D01*
Y344528D01*
D02*
G37*
G36*
X335744Y347445D02*
X333958Y345359D01*
X333609Y344975D01*
X333624D01*
X333648Y344980D01*
X333673D01*
X333707Y344985D01*
X333747D01*
X333791Y344990D01*
X333840Y344995D01*
X333948Y345000D01*
X334067Y345005D01*
X334194Y345010D01*
X335843D01*
Y344528D01*
X332930D01*
Y344980D01*
X335016Y347381D01*
X334982D01*
X334957Y347376D01*
X334888D01*
X334805Y347371D01*
X334706Y347366D01*
X334603D01*
X334495Y347361D01*
X333053D01*
Y347819D01*
X335744D01*
Y347445D01*
D02*
G37*
G36*
X317452Y344528D02*
X316817D01*
Y345162D01*
X317452D01*
Y344528D01*
D02*
G37*
G36*
X314588Y349079D02*
X314642Y349074D01*
X314706Y349064D01*
X314780Y349054D01*
X314854Y349039D01*
X314938Y349020D01*
X315021Y348995D01*
X315110Y348965D01*
X315194Y348931D01*
X315282Y348887D01*
X315366Y348837D01*
X315444Y348783D01*
X315518Y348719D01*
X315523Y348714D01*
X315533Y348705D01*
X315553Y348680D01*
X315577Y348655D01*
X315607Y348621D01*
X315641Y348577D01*
X315676Y348528D01*
X315710Y348468D01*
X315744Y348409D01*
X315779Y348341D01*
X315813Y348267D01*
X315843Y348188D01*
X315867Y348099D01*
X315887Y348011D01*
X315897Y347917D01*
X315902Y347819D01*
Y347814D01*
Y347809D01*
Y347794D01*
Y347775D01*
X315897Y347721D01*
X315887Y347652D01*
X315872Y347568D01*
X315853Y347480D01*
X315828Y347381D01*
X315789Y347283D01*
Y347278D01*
X315784Y347273D01*
X315779Y347258D01*
X315769Y347238D01*
X315740Y347184D01*
X315700Y347115D01*
X315646Y347032D01*
X315582Y346938D01*
X315508Y346840D01*
X315415Y346732D01*
X315410Y346727D01*
X315405Y346717D01*
X315385Y346702D01*
X315366Y346678D01*
X315336Y346648D01*
X315302Y346614D01*
X315262Y346569D01*
X315213Y346525D01*
X315154Y346471D01*
X315090Y346412D01*
X315021Y346343D01*
X314943Y346274D01*
X314859Y346195D01*
X314765Y346117D01*
X314662Y346028D01*
X314554Y345935D01*
X314549Y345930D01*
X314534Y345915D01*
X314505Y345895D01*
X314475Y345866D01*
X314431Y345831D01*
X314387Y345792D01*
X314283Y345703D01*
X314175Y345610D01*
X314072Y345512D01*
X314022Y345467D01*
X313978Y345428D01*
X313939Y345389D01*
X313909Y345359D01*
X313904Y345354D01*
X313885Y345334D01*
X313860Y345305D01*
X313826Y345266D01*
X313786Y345221D01*
X313747Y345172D01*
X313668Y345064D01*
X315907D01*
Y344528D01*
X312901D01*
Y344537D01*
Y344562D01*
Y344601D01*
X312906Y344651D01*
X312911Y344710D01*
X312925Y344774D01*
X312940Y344842D01*
X312965Y344911D01*
Y344916D01*
X312970Y344926D01*
X312975Y344941D01*
X312984Y344965D01*
X312999Y344990D01*
X313014Y345024D01*
X313053Y345103D01*
X313103Y345197D01*
X313166Y345300D01*
X313240Y345408D01*
X313329Y345516D01*
X313334Y345521D01*
X313339Y345531D01*
X313353Y345546D01*
X313378Y345571D01*
X313403Y345595D01*
X313437Y345630D01*
X313472Y345669D01*
X313516Y345713D01*
X313565Y345762D01*
X313619Y345812D01*
X313678Y345871D01*
X313747Y345930D01*
X313816Y345994D01*
X313895Y346058D01*
X313973Y346127D01*
X314062Y346200D01*
X314072Y346205D01*
X314096Y346230D01*
X314131Y346259D01*
X314180Y346304D01*
X314239Y346353D01*
X314308Y346412D01*
X314387Y346476D01*
X314465Y346550D01*
X314633Y346702D01*
X314795Y346865D01*
X314874Y346943D01*
X314948Y347022D01*
X315011Y347096D01*
X315066Y347165D01*
X315071Y347170D01*
X315075Y347179D01*
X315090Y347199D01*
X315105Y347224D01*
X315129Y347258D01*
X315149Y347293D01*
X315198Y347381D01*
X315248Y347484D01*
X315292Y347598D01*
X315321Y347716D01*
X315326Y347775D01*
X315331Y347834D01*
Y347839D01*
Y347849D01*
Y347868D01*
X315326Y347888D01*
Y347917D01*
X315317Y347952D01*
X315302Y348026D01*
X315272Y348114D01*
X315228Y348208D01*
X315203Y348257D01*
X315169Y348301D01*
X315134Y348345D01*
X315090Y348390D01*
X315085Y348395D01*
X315080Y348400D01*
X315066Y348409D01*
X315046Y348424D01*
X315021Y348444D01*
X314992Y348464D01*
X314923Y348508D01*
X314829Y348547D01*
X314726Y348587D01*
X314603Y348611D01*
X314534Y348621D01*
X314426D01*
X314396Y348616D01*
X314362D01*
X314323Y348606D01*
X314234Y348591D01*
X314131Y348562D01*
X314022Y348518D01*
X313968Y348488D01*
X313914Y348459D01*
X313865Y348419D01*
X313816Y348375D01*
X313811Y348370D01*
X313806Y348365D01*
X313796Y348350D01*
X313776Y348331D01*
X313762Y348306D01*
X313742Y348277D01*
X313718Y348242D01*
X313698Y348203D01*
X313673Y348159D01*
X313653Y348109D01*
X313614Y347991D01*
X313585Y347863D01*
X313580Y347790D01*
X313575Y347711D01*
X313004Y347770D01*
Y347780D01*
X313009Y347799D01*
X313014Y347829D01*
X313019Y347873D01*
X313029Y347927D01*
X313043Y347991D01*
X313058Y348060D01*
X313083Y348134D01*
X313107Y348208D01*
X313137Y348291D01*
X313176Y348370D01*
X313216Y348449D01*
X313265Y348532D01*
X313319Y348606D01*
X313378Y348680D01*
X313447Y348744D01*
X313452Y348749D01*
X313467Y348759D01*
X313486Y348774D01*
X313516Y348798D01*
X313555Y348823D01*
X313604Y348852D01*
X313658Y348882D01*
X313722Y348916D01*
X313791Y348946D01*
X313870Y348975D01*
X313954Y349005D01*
X314047Y349029D01*
X314145Y349054D01*
X314249Y349069D01*
X314362Y349079D01*
X314480Y349083D01*
X314544D01*
X314588Y349079D01*
D02*
G37*
G36*
X309683Y346127D02*
X310298D01*
Y345615D01*
X309683D01*
Y344528D01*
X309127D01*
Y345615D01*
X307149D01*
Y346127D01*
X309226Y349069D01*
X309683D01*
Y346127D01*
D02*
G37*
G36*
X306524Y344528D02*
X305890D01*
Y345162D01*
X306524D01*
Y344528D01*
D02*
G37*
G36*
X303661Y349079D02*
X303715Y349074D01*
X303779Y349064D01*
X303853Y349054D01*
X303927Y349039D01*
X304010Y349020D01*
X304094Y348995D01*
X304183Y348965D01*
X304266Y348931D01*
X304355Y348887D01*
X304438Y348837D01*
X304517Y348783D01*
X304591Y348719D01*
X304596Y348714D01*
X304606Y348705D01*
X304625Y348680D01*
X304650Y348655D01*
X304679Y348621D01*
X304714Y348577D01*
X304748Y348528D01*
X304783Y348468D01*
X304817Y348409D01*
X304852Y348341D01*
X304886Y348267D01*
X304916Y348188D01*
X304940Y348099D01*
X304960Y348011D01*
X304970Y347917D01*
X304975Y347819D01*
Y347814D01*
Y347809D01*
Y347794D01*
Y347775D01*
X304970Y347721D01*
X304960Y347652D01*
X304945Y347568D01*
X304925Y347480D01*
X304901Y347381D01*
X304861Y347283D01*
Y347278D01*
X304856Y347273D01*
X304852Y347258D01*
X304842Y347238D01*
X304812Y347184D01*
X304773Y347115D01*
X304719Y347032D01*
X304655Y346938D01*
X304581Y346840D01*
X304487Y346732D01*
X304483Y346727D01*
X304478Y346717D01*
X304458Y346702D01*
X304438Y346678D01*
X304409Y346648D01*
X304374Y346614D01*
X304335Y346569D01*
X304286Y346525D01*
X304227Y346471D01*
X304163Y346412D01*
X304094Y346343D01*
X304015Y346274D01*
X303932Y346195D01*
X303838Y346117D01*
X303735Y346028D01*
X303626Y345935D01*
X303622Y345930D01*
X303607Y345915D01*
X303577Y345895D01*
X303548Y345866D01*
X303503Y345831D01*
X303459Y345792D01*
X303356Y345703D01*
X303248Y345610D01*
X303144Y345512D01*
X303095Y345467D01*
X303051Y345428D01*
X303011Y345389D01*
X302982Y345359D01*
X302977Y345354D01*
X302957Y345334D01*
X302933Y345305D01*
X302898Y345266D01*
X302859Y345221D01*
X302820Y345172D01*
X302741Y345064D01*
X304979D01*
Y344528D01*
X301973D01*
Y344537D01*
Y344562D01*
Y344601D01*
X301978Y344651D01*
X301983Y344710D01*
X301998Y344774D01*
X302013Y344842D01*
X302037Y344911D01*
Y344916D01*
X302042Y344926D01*
X302047Y344941D01*
X302057Y344965D01*
X302072Y344990D01*
X302087Y345024D01*
X302126Y345103D01*
X302175Y345197D01*
X302239Y345300D01*
X302313Y345408D01*
X302401Y345516D01*
X302406Y345521D01*
X302411Y345531D01*
X302426Y345546D01*
X302451Y345571D01*
X302475Y345595D01*
X302510Y345630D01*
X302544Y345669D01*
X302588Y345713D01*
X302638Y345762D01*
X302692Y345812D01*
X302751Y345871D01*
X302820Y345930D01*
X302888Y345994D01*
X302967Y346058D01*
X303046Y346127D01*
X303134Y346200D01*
X303144Y346205D01*
X303169Y346230D01*
X303203Y346259D01*
X303253Y346304D01*
X303312Y346353D01*
X303380Y346412D01*
X303459Y346476D01*
X303538Y346550D01*
X303705Y346702D01*
X303868Y346865D01*
X303946Y346943D01*
X304020Y347022D01*
X304084Y347096D01*
X304138Y347165D01*
X304143Y347170D01*
X304148Y347179D01*
X304163Y347199D01*
X304178Y347224D01*
X304202Y347258D01*
X304222Y347293D01*
X304271Y347381D01*
X304320Y347484D01*
X304364Y347598D01*
X304394Y347716D01*
X304399Y347775D01*
X304404Y347834D01*
Y347839D01*
Y347849D01*
Y347868D01*
X304399Y347888D01*
Y347917D01*
X304389Y347952D01*
X304374Y348026D01*
X304345Y348114D01*
X304301Y348208D01*
X304276Y348257D01*
X304241Y348301D01*
X304207Y348345D01*
X304163Y348390D01*
X304158Y348395D01*
X304153Y348400D01*
X304138Y348409D01*
X304118Y348424D01*
X304094Y348444D01*
X304064Y348464D01*
X303995Y348508D01*
X303902Y348547D01*
X303799Y348587D01*
X303676Y348611D01*
X303607Y348621D01*
X303499D01*
X303469Y348616D01*
X303435D01*
X303395Y348606D01*
X303307Y348591D01*
X303203Y348562D01*
X303095Y348518D01*
X303041Y348488D01*
X302987Y348459D01*
X302938Y348419D01*
X302888Y348375D01*
X302884Y348370D01*
X302879Y348365D01*
X302869Y348350D01*
X302849Y348331D01*
X302834Y348306D01*
X302815Y348277D01*
X302790Y348242D01*
X302770Y348203D01*
X302746Y348159D01*
X302726Y348109D01*
X302687Y347991D01*
X302657Y347863D01*
X302652Y347790D01*
X302647Y347711D01*
X302077Y347770D01*
Y347780D01*
X302082Y347799D01*
X302087Y347829D01*
X302092Y347873D01*
X302101Y347927D01*
X302116Y347991D01*
X302131Y348060D01*
X302155Y348134D01*
X302180Y348208D01*
X302210Y348291D01*
X302249Y348370D01*
X302288Y348449D01*
X302338Y348532D01*
X302392Y348606D01*
X302451Y348680D01*
X302519Y348744D01*
X302524Y348749D01*
X302539Y348759D01*
X302559Y348774D01*
X302588Y348798D01*
X302628Y348823D01*
X302677Y348852D01*
X302731Y348882D01*
X302795Y348916D01*
X302864Y348946D01*
X302943Y348975D01*
X303026Y349005D01*
X303120Y349029D01*
X303218Y349054D01*
X303322Y349069D01*
X303435Y349079D01*
X303553Y349083D01*
X303617D01*
X303661Y349079D01*
D02*
G37*
G36*
X418459Y347819D02*
X419025D01*
Y347386D01*
X418459D01*
Y345457D01*
Y345452D01*
Y345448D01*
Y345418D01*
Y345379D01*
X418464Y345329D01*
Y345280D01*
X418474Y345231D01*
X418479Y345187D01*
X418489Y345152D01*
Y345147D01*
X418494Y345143D01*
X418513Y345113D01*
X418543Y345079D01*
X418582Y345044D01*
X418587D01*
X418597Y345039D01*
X418612Y345034D01*
X418632Y345024D01*
X418661Y345020D01*
X418691Y345010D01*
X418730Y345005D01*
X418814D01*
X418843Y345010D01*
X418878D01*
X418922Y345015D01*
X418971Y345020D01*
X419025Y345024D01*
X419099Y344532D01*
X419089D01*
X419060Y344523D01*
X419015Y344518D01*
X418956Y344508D01*
X418892Y344498D01*
X418823Y344493D01*
X418676Y344483D01*
X418627D01*
X418573Y344488D01*
X418504Y344493D01*
X418425Y344508D01*
X418346Y344523D01*
X418272Y344547D01*
X418203Y344577D01*
X418199Y344582D01*
X418179Y344596D01*
X418149Y344616D01*
X418110Y344646D01*
X418071Y344680D01*
X418031Y344724D01*
X417997Y344774D01*
X417967Y344828D01*
X417962Y344837D01*
X417957Y344862D01*
X417953Y344882D01*
X417948Y344906D01*
X417943Y344936D01*
X417938Y344970D01*
X417928Y345010D01*
X417923Y345059D01*
X417918Y345113D01*
X417913Y345172D01*
X417908Y345241D01*
Y345315D01*
X417903Y345398D01*
Y345487D01*
Y347386D01*
X417490D01*
Y347819D01*
X417903D01*
Y348631D01*
X418459Y348965D01*
Y347819D01*
D02*
G37*
G36*
X388511D02*
X389077D01*
Y347386D01*
X388511D01*
Y345457D01*
Y345452D01*
Y345448D01*
Y345418D01*
Y345379D01*
X388516Y345329D01*
Y345280D01*
X388526Y345231D01*
X388531Y345187D01*
X388541Y345152D01*
Y345147D01*
X388546Y345143D01*
X388565Y345113D01*
X388595Y345079D01*
X388634Y345044D01*
X388639D01*
X388649Y345039D01*
X388664Y345034D01*
X388684Y345024D01*
X388713Y345020D01*
X388742Y345010D01*
X388782Y345005D01*
X388865D01*
X388895Y345010D01*
X388930D01*
X388974Y345015D01*
X389023Y345020D01*
X389077Y345024D01*
X389151Y344532D01*
X389141D01*
X389111Y344523D01*
X389067Y344518D01*
X389008Y344508D01*
X388944Y344498D01*
X388875Y344493D01*
X388728Y344483D01*
X388679D01*
X388625Y344488D01*
X388556Y344493D01*
X388477Y344508D01*
X388398Y344523D01*
X388324Y344547D01*
X388256Y344577D01*
X388250Y344582D01*
X388231Y344596D01*
X388201Y344616D01*
X388162Y344646D01*
X388123Y344680D01*
X388083Y344724D01*
X388049Y344774D01*
X388019Y344828D01*
X388014Y344837D01*
X388010Y344862D01*
X388004Y344882D01*
X388000Y344906D01*
X387995Y344936D01*
X387990Y344970D01*
X387980Y345010D01*
X387975Y345059D01*
X387970Y345113D01*
X387965Y345172D01*
X387960Y345241D01*
Y345315D01*
X387955Y345398D01*
Y345487D01*
Y347386D01*
X387542D01*
Y347819D01*
X387955D01*
Y348631D01*
X388511Y348965D01*
Y347819D01*
D02*
G37*
G36*
X373363D02*
X373928D01*
Y347386D01*
X373363D01*
Y345457D01*
Y345452D01*
Y345448D01*
Y345418D01*
Y345379D01*
X373368Y345329D01*
Y345280D01*
X373377Y345231D01*
X373382Y345187D01*
X373392Y345152D01*
Y345147D01*
X373397Y345143D01*
X373417Y345113D01*
X373446Y345079D01*
X373486Y345044D01*
X373491D01*
X373500Y345039D01*
X373515Y345034D01*
X373535Y345024D01*
X373564Y345020D01*
X373594Y345010D01*
X373633Y345005D01*
X373717D01*
X373746Y345010D01*
X373781D01*
X373825Y345015D01*
X373874Y345020D01*
X373928Y345024D01*
X374002Y344532D01*
X373992D01*
X373963Y344523D01*
X373919Y344518D01*
X373860Y344508D01*
X373796Y344498D01*
X373727Y344493D01*
X373579Y344483D01*
X373530D01*
X373476Y344488D01*
X373407Y344493D01*
X373328Y344508D01*
X373250Y344523D01*
X373176Y344547D01*
X373107Y344577D01*
X373102Y344582D01*
X373082Y344596D01*
X373053Y344616D01*
X373013Y344646D01*
X372974Y344680D01*
X372935Y344724D01*
X372900Y344774D01*
X372871Y344828D01*
X372866Y344837D01*
X372861Y344862D01*
X372856Y344882D01*
X372851Y344906D01*
X372846Y344936D01*
X372841Y344970D01*
X372831Y345010D01*
X372826Y345059D01*
X372821Y345113D01*
X372816Y345172D01*
X372812Y345241D01*
Y345315D01*
X372807Y345398D01*
Y345487D01*
Y347386D01*
X372393D01*
Y347819D01*
X372807D01*
Y348631D01*
X373363Y348965D01*
Y347819D01*
D02*
G37*
G36*
X364900D02*
X365466D01*
Y347386D01*
X364900D01*
Y345457D01*
Y345452D01*
Y345448D01*
Y345418D01*
Y345379D01*
X364905Y345329D01*
Y345280D01*
X364915Y345231D01*
X364920Y345187D01*
X364930Y345152D01*
Y345147D01*
X364935Y345143D01*
X364954Y345113D01*
X364984Y345079D01*
X365023Y345044D01*
X365028D01*
X365038Y345039D01*
X365053Y345034D01*
X365072Y345024D01*
X365102Y345020D01*
X365131Y345010D01*
X365171Y345005D01*
X365254D01*
X365284Y345010D01*
X365318D01*
X365363Y345015D01*
X365412Y345020D01*
X365466Y345024D01*
X365540Y344532D01*
X365530D01*
X365500Y344523D01*
X365456Y344518D01*
X365397Y344508D01*
X365333Y344498D01*
X365264Y344493D01*
X365117Y344483D01*
X365068D01*
X365013Y344488D01*
X364945Y344493D01*
X364866Y344508D01*
X364787Y344523D01*
X364713Y344547D01*
X364644Y344577D01*
X364639Y344582D01*
X364620Y344596D01*
X364590Y344616D01*
X364551Y344646D01*
X364511Y344680D01*
X364472Y344724D01*
X364438Y344774D01*
X364408Y344828D01*
X364403Y344837D01*
X364398Y344862D01*
X364393Y344882D01*
X364388Y344906D01*
X364384Y344936D01*
X364379Y344970D01*
X364369Y345010D01*
X364364Y345059D01*
X364359Y345113D01*
X364354Y345172D01*
X364349Y345241D01*
Y345315D01*
X364344Y345398D01*
Y345487D01*
Y347386D01*
X363931D01*
Y347819D01*
X364344D01*
Y348631D01*
X364900Y348965D01*
Y347819D01*
D02*
G37*
G36*
X420983Y347888D02*
X421028D01*
X421087Y347878D01*
X421151Y347868D01*
X421224Y347853D01*
X421303Y347839D01*
X421387Y347814D01*
X421470Y347785D01*
X421564Y347745D01*
X421652Y347701D01*
X421741Y347652D01*
X421830Y347588D01*
X421918Y347519D01*
X421997Y347440D01*
X422002Y347435D01*
X422016Y347421D01*
X422036Y347396D01*
X422061Y347357D01*
X422095Y347312D01*
X422130Y347258D01*
X422169Y347189D01*
X422208Y347115D01*
X422243Y347032D01*
X422282Y346938D01*
X422317Y346835D01*
X422351Y346722D01*
X422376Y346599D01*
X422395Y346466D01*
X422410Y346328D01*
X422415Y346181D01*
Y346171D01*
Y346146D01*
Y346097D01*
X422410Y346033D01*
X419955D01*
Y346028D01*
Y346008D01*
X419960Y345979D01*
X419965Y345944D01*
X419970Y345895D01*
X419980Y345846D01*
X419989Y345787D01*
X420004Y345723D01*
X420044Y345590D01*
X420098Y345448D01*
X420132Y345384D01*
X420167Y345315D01*
X420211Y345256D01*
X420260Y345197D01*
X420265Y345192D01*
X420275Y345187D01*
X420290Y345172D01*
X420309Y345152D01*
X420339Y345133D01*
X420368Y345108D01*
X420408Y345079D01*
X420452Y345054D01*
X420550Y345000D01*
X420668Y344956D01*
X420732Y344936D01*
X420801Y344926D01*
X420875Y344916D01*
X420949Y344911D01*
X420978D01*
X420998Y344916D01*
X421057Y344921D01*
X421131Y344931D01*
X421210Y344951D01*
X421298Y344980D01*
X421387Y345015D01*
X421470Y345069D01*
X421475D01*
X421480Y345079D01*
X421505Y345098D01*
X421544Y345138D01*
X421593Y345197D01*
X421648Y345266D01*
X421706Y345359D01*
X421766Y345467D01*
X421815Y345590D01*
X422395Y345516D01*
Y345512D01*
X422390Y345492D01*
X422381Y345467D01*
X422366Y345433D01*
X422351Y345389D01*
X422331Y345339D01*
X422307Y345285D01*
X422282Y345226D01*
X422213Y345103D01*
X422125Y344970D01*
X422071Y344906D01*
X422016Y344842D01*
X421957Y344783D01*
X421889Y344729D01*
X421884Y344724D01*
X421874Y344719D01*
X421849Y344705D01*
X421825Y344685D01*
X421785Y344665D01*
X421741Y344641D01*
X421692Y344616D01*
X421633Y344591D01*
X421569Y344567D01*
X421495Y344542D01*
X421421Y344518D01*
X421338Y344498D01*
X421249Y344478D01*
X421156Y344464D01*
X421052Y344459D01*
X420949Y344454D01*
X420919D01*
X420880Y344459D01*
X420831D01*
X420767Y344468D01*
X420698Y344478D01*
X420619Y344493D01*
X420536Y344508D01*
X420447Y344532D01*
X420354Y344562D01*
X420255Y344596D01*
X420162Y344641D01*
X420063Y344690D01*
X419975Y344749D01*
X419886Y344818D01*
X419803Y344897D01*
X419798Y344901D01*
X419783Y344916D01*
X419763Y344941D01*
X419738Y344980D01*
X419704Y345024D01*
X419670Y345079D01*
X419630Y345143D01*
X419596Y345216D01*
X419557Y345300D01*
X419517Y345393D01*
X419483Y345497D01*
X419448Y345610D01*
X419424Y345728D01*
X419404Y345856D01*
X419389Y345994D01*
X419384Y346141D01*
Y346151D01*
Y346176D01*
X419389Y346220D01*
Y346279D01*
X419399Y346348D01*
X419409Y346427D01*
X419419Y346520D01*
X419438Y346614D01*
X419458Y346717D01*
X419488Y346820D01*
X419522Y346929D01*
X419561Y347037D01*
X419611Y347140D01*
X419670Y347243D01*
X419734Y347342D01*
X419807Y347430D01*
X419812Y347435D01*
X419827Y347450D01*
X419852Y347475D01*
X419886Y347504D01*
X419925Y347539D01*
X419980Y347578D01*
X420039Y347617D01*
X420108Y347662D01*
X420181Y347706D01*
X420265Y347745D01*
X420359Y347785D01*
X420457Y347819D01*
X420565Y347849D01*
X420673Y347873D01*
X420796Y347888D01*
X420919Y347893D01*
X420949D01*
X420983Y347888D01*
D02*
G37*
G36*
X375872D02*
X375921D01*
X375980Y347878D01*
X376044Y347868D01*
X376118Y347853D01*
X376202Y347839D01*
X376285Y347814D01*
X376379Y347785D01*
X376467Y347745D01*
X376561Y347706D01*
X376654Y347652D01*
X376743Y347593D01*
X376831Y347524D01*
X376915Y347445D01*
X376920Y347440D01*
X376935Y347425D01*
X376954Y347401D01*
X376984Y347361D01*
X377013Y347317D01*
X377053Y347263D01*
X377092Y347199D01*
X377131Y347125D01*
X377171Y347042D01*
X377210Y346948D01*
X377249Y346850D01*
X377279Y346742D01*
X377309Y346623D01*
X377328Y346496D01*
X377343Y346358D01*
X377348Y346215D01*
Y346210D01*
Y346186D01*
Y346156D01*
X377343Y346112D01*
Y346058D01*
X377338Y345994D01*
X377333Y345925D01*
X377323Y345851D01*
X377304Y345694D01*
X377269Y345526D01*
X377220Y345364D01*
X377190Y345290D01*
X377156Y345216D01*
Y345211D01*
X377146Y345202D01*
X377136Y345182D01*
X377121Y345157D01*
X377102Y345128D01*
X377077Y345088D01*
X377013Y345010D01*
X376935Y344916D01*
X376841Y344823D01*
X376728Y344734D01*
X376600Y344651D01*
X376595D01*
X376585Y344641D01*
X376566Y344631D01*
X376536Y344621D01*
X376502Y344606D01*
X376462Y344587D01*
X376418Y344572D01*
X376364Y344552D01*
X376310Y344532D01*
X376246Y344518D01*
X376113Y344483D01*
X375965Y344464D01*
X375808Y344454D01*
X375778D01*
X375744Y344459D01*
X375695D01*
X375636Y344468D01*
X375567Y344478D01*
X375493Y344493D01*
X375409Y344508D01*
X375321Y344532D01*
X375232Y344562D01*
X375139Y344596D01*
X375045Y344641D01*
X374952Y344690D01*
X374863Y344749D01*
X374775Y344818D01*
X374691Y344897D01*
X374686Y344901D01*
X374671Y344916D01*
X374652Y344941D01*
X374627Y344980D01*
X374593Y345024D01*
X374558Y345079D01*
X374519Y345147D01*
X374480Y345221D01*
X374440Y345310D01*
X374401Y345403D01*
X374366Y345507D01*
X374332Y345620D01*
X374307Y345743D01*
X374288Y345876D01*
X374273Y346018D01*
X374268Y346171D01*
Y346176D01*
Y346181D01*
Y346210D01*
X374273Y346259D01*
X374278Y346318D01*
X374283Y346397D01*
X374292Y346486D01*
X374312Y346579D01*
X374332Y346683D01*
X374357Y346791D01*
X374391Y346904D01*
X374435Y347017D01*
X374480Y347130D01*
X374538Y347238D01*
X374607Y347342D01*
X374686Y347435D01*
X374775Y347524D01*
X374780Y347529D01*
X374794Y347539D01*
X374819Y347558D01*
X374849Y347583D01*
X374893Y347607D01*
X374942Y347642D01*
X374996Y347676D01*
X375065Y347711D01*
X375134Y347745D01*
X375213Y347775D01*
X375296Y347809D01*
X375390Y347834D01*
X375488Y347858D01*
X375587Y347878D01*
X375695Y347888D01*
X375808Y347893D01*
X375837D01*
X375872Y347888D01*
D02*
G37*
G36*
X367424D02*
X367469D01*
X367528Y347878D01*
X367592Y347868D01*
X367665Y347853D01*
X367744Y347839D01*
X367828Y347814D01*
X367911Y347785D01*
X368005Y347745D01*
X368093Y347701D01*
X368182Y347652D01*
X368270Y347588D01*
X368359Y347519D01*
X368438Y347440D01*
X368443Y347435D01*
X368457Y347421D01*
X368477Y347396D01*
X368502Y347357D01*
X368536Y347312D01*
X368570Y347258D01*
X368610Y347189D01*
X368649Y347115D01*
X368684Y347032D01*
X368723Y346938D01*
X368758Y346835D01*
X368792Y346722D01*
X368816Y346599D01*
X368836Y346466D01*
X368851Y346328D01*
X368856Y346181D01*
Y346171D01*
Y346146D01*
Y346097D01*
X368851Y346033D01*
X366396D01*
Y346028D01*
Y346008D01*
X366401Y345979D01*
X366406Y345944D01*
X366411Y345895D01*
X366421Y345846D01*
X366430Y345787D01*
X366445Y345723D01*
X366484Y345590D01*
X366539Y345448D01*
X366573Y345384D01*
X366607Y345315D01*
X366652Y345256D01*
X366701Y345197D01*
X366706Y345192D01*
X366716Y345187D01*
X366730Y345172D01*
X366750Y345152D01*
X366780Y345133D01*
X366809Y345108D01*
X366848Y345079D01*
X366893Y345054D01*
X366991Y345000D01*
X367109Y344956D01*
X367173Y344936D01*
X367242Y344926D01*
X367316Y344916D01*
X367390Y344911D01*
X367419D01*
X367439Y344916D01*
X367498Y344921D01*
X367572Y344931D01*
X367651Y344951D01*
X367739Y344980D01*
X367828Y345015D01*
X367911Y345069D01*
X367916D01*
X367921Y345079D01*
X367946Y345098D01*
X367985Y345138D01*
X368034Y345197D01*
X368088Y345266D01*
X368147Y345359D01*
X368207Y345467D01*
X368256Y345590D01*
X368836Y345516D01*
Y345512D01*
X368831Y345492D01*
X368822Y345467D01*
X368807Y345433D01*
X368792Y345389D01*
X368772Y345339D01*
X368748Y345285D01*
X368723Y345226D01*
X368654Y345103D01*
X368566Y344970D01*
X368512Y344906D01*
X368457Y344842D01*
X368398Y344783D01*
X368330Y344729D01*
X368324Y344724D01*
X368315Y344719D01*
X368290Y344705D01*
X368266Y344685D01*
X368226Y344665D01*
X368182Y344641D01*
X368133Y344616D01*
X368074Y344591D01*
X368010Y344567D01*
X367936Y344542D01*
X367862Y344518D01*
X367778Y344498D01*
X367690Y344478D01*
X367596Y344464D01*
X367493Y344459D01*
X367390Y344454D01*
X367360D01*
X367321Y344459D01*
X367272D01*
X367208Y344468D01*
X367139Y344478D01*
X367060Y344493D01*
X366976Y344508D01*
X366888Y344532D01*
X366794Y344562D01*
X366696Y344596D01*
X366602Y344641D01*
X366504Y344690D01*
X366416Y344749D01*
X366327Y344818D01*
X366243Y344897D01*
X366238Y344901D01*
X366224Y344916D01*
X366204Y344941D01*
X366179Y344980D01*
X366145Y345024D01*
X366110Y345079D01*
X366071Y345143D01*
X366037Y345216D01*
X365997Y345300D01*
X365958Y345393D01*
X365924Y345497D01*
X365889Y345610D01*
X365864Y345728D01*
X365845Y345856D01*
X365830Y345994D01*
X365825Y346141D01*
Y346151D01*
Y346176D01*
X365830Y346220D01*
Y346279D01*
X365840Y346348D01*
X365850Y346427D01*
X365860Y346520D01*
X365879Y346614D01*
X365899Y346717D01*
X365929Y346820D01*
X365963Y346929D01*
X366002Y347037D01*
X366052Y347140D01*
X366110Y347243D01*
X366175Y347342D01*
X366248Y347430D01*
X366253Y347435D01*
X366268Y347450D01*
X366293Y347475D01*
X366327Y347504D01*
X366366Y347539D01*
X366421Y347578D01*
X366479Y347617D01*
X366548Y347662D01*
X366622Y347706D01*
X366706Y347745D01*
X366799Y347785D01*
X366898Y347819D01*
X367006Y347849D01*
X367114Y347873D01*
X367237Y347888D01*
X367360Y347893D01*
X367390D01*
X367424Y347888D01*
D02*
G37*
G36*
X362135D02*
X362179D01*
X362239Y347878D01*
X362302Y347868D01*
X362376Y347853D01*
X362455Y347839D01*
X362539Y347814D01*
X362622Y347785D01*
X362716Y347745D01*
X362804Y347701D01*
X362893Y347652D01*
X362981Y347588D01*
X363070Y347519D01*
X363149Y347440D01*
X363154Y347435D01*
X363168Y347421D01*
X363188Y347396D01*
X363213Y347357D01*
X363247Y347312D01*
X363281Y347258D01*
X363321Y347189D01*
X363360Y347115D01*
X363395Y347032D01*
X363434Y346938D01*
X363469Y346835D01*
X363503Y346722D01*
X363527Y346599D01*
X363547Y346466D01*
X363562Y346328D01*
X363567Y346181D01*
Y346171D01*
Y346146D01*
Y346097D01*
X363562Y346033D01*
X361107D01*
Y346028D01*
Y346008D01*
X361112Y345979D01*
X361117Y345944D01*
X361122Y345895D01*
X361132Y345846D01*
X361141Y345787D01*
X361156Y345723D01*
X361195Y345590D01*
X361250Y345448D01*
X361284Y345384D01*
X361318Y345315D01*
X361363Y345256D01*
X361412Y345197D01*
X361417Y345192D01*
X361427Y345187D01*
X361441Y345172D01*
X361461Y345152D01*
X361491Y345133D01*
X361520Y345108D01*
X361560Y345079D01*
X361604Y345054D01*
X361702Y345000D01*
X361820Y344956D01*
X361884Y344936D01*
X361953Y344926D01*
X362027Y344916D01*
X362101Y344911D01*
X362130D01*
X362150Y344916D01*
X362209Y344921D01*
X362283Y344931D01*
X362362Y344951D01*
X362450Y344980D01*
X362539Y345015D01*
X362622Y345069D01*
X362627D01*
X362632Y345079D01*
X362657Y345098D01*
X362696Y345138D01*
X362745Y345197D01*
X362799Y345266D01*
X362858Y345359D01*
X362917Y345467D01*
X362967Y345590D01*
X363547Y345516D01*
Y345512D01*
X363542Y345492D01*
X363532Y345467D01*
X363518Y345433D01*
X363503Y345389D01*
X363483Y345339D01*
X363459Y345285D01*
X363434Y345226D01*
X363365Y345103D01*
X363277Y344970D01*
X363223Y344906D01*
X363168Y344842D01*
X363109Y344783D01*
X363040Y344729D01*
X363035Y344724D01*
X363026Y344719D01*
X363001Y344705D01*
X362977Y344685D01*
X362937Y344665D01*
X362893Y344641D01*
X362844Y344616D01*
X362785Y344591D01*
X362721Y344567D01*
X362647Y344542D01*
X362573Y344518D01*
X362489Y344498D01*
X362401Y344478D01*
X362307Y344464D01*
X362204Y344459D01*
X362101Y344454D01*
X362071D01*
X362032Y344459D01*
X361983D01*
X361919Y344468D01*
X361850Y344478D01*
X361771Y344493D01*
X361687Y344508D01*
X361599Y344532D01*
X361505Y344562D01*
X361407Y344596D01*
X361314Y344641D01*
X361215Y344690D01*
X361127Y344749D01*
X361038Y344818D01*
X360954Y344897D01*
X360949Y344901D01*
X360935Y344916D01*
X360915Y344941D01*
X360890Y344980D01*
X360856Y345024D01*
X360822Y345079D01*
X360782Y345143D01*
X360748Y345216D01*
X360708Y345300D01*
X360669Y345393D01*
X360635Y345497D01*
X360600Y345610D01*
X360576Y345728D01*
X360556Y345856D01*
X360541Y345994D01*
X360536Y346141D01*
Y346151D01*
Y346176D01*
X360541Y346220D01*
Y346279D01*
X360551Y346348D01*
X360561Y346427D01*
X360571Y346520D01*
X360590Y346614D01*
X360610Y346717D01*
X360640Y346820D01*
X360674Y346929D01*
X360713Y347037D01*
X360763Y347140D01*
X360822Y347243D01*
X360886Y347342D01*
X360959Y347430D01*
X360964Y347435D01*
X360979Y347450D01*
X361004Y347475D01*
X361038Y347504D01*
X361077Y347539D01*
X361132Y347578D01*
X361191Y347617D01*
X361259Y347662D01*
X361333Y347706D01*
X361417Y347745D01*
X361510Y347785D01*
X361609Y347819D01*
X361717Y347849D01*
X361825Y347873D01*
X361948Y347888D01*
X362071Y347893D01*
X362101D01*
X362135Y347888D01*
D02*
G37*
G36*
X351208D02*
X351252D01*
X351311Y347878D01*
X351375Y347868D01*
X351449Y347853D01*
X351528Y347839D01*
X351611Y347814D01*
X351695Y347785D01*
X351788Y347745D01*
X351877Y347701D01*
X351965Y347652D01*
X352054Y347588D01*
X352143Y347519D01*
X352221Y347440D01*
X352226Y347435D01*
X352241Y347421D01*
X352261Y347396D01*
X352285Y347357D01*
X352320Y347312D01*
X352354Y347258D01*
X352394Y347189D01*
X352433Y347115D01*
X352467Y347032D01*
X352507Y346938D01*
X352541Y346835D01*
X352576Y346722D01*
X352600Y346599D01*
X352620Y346466D01*
X352635Y346328D01*
X352640Y346181D01*
Y346171D01*
Y346146D01*
Y346097D01*
X352635Y346033D01*
X350180D01*
Y346028D01*
Y346008D01*
X350184Y345979D01*
X350189Y345944D01*
X350194Y345895D01*
X350204Y345846D01*
X350214Y345787D01*
X350229Y345723D01*
X350268Y345590D01*
X350322Y345448D01*
X350357Y345384D01*
X350391Y345315D01*
X350435Y345256D01*
X350485Y345197D01*
X350489Y345192D01*
X350499Y345187D01*
X350514Y345172D01*
X350534Y345152D01*
X350563Y345133D01*
X350593Y345108D01*
X350632Y345079D01*
X350676Y345054D01*
X350775Y345000D01*
X350893Y344956D01*
X350957Y344936D01*
X351026Y344926D01*
X351100Y344916D01*
X351173Y344911D01*
X351203D01*
X351223Y344916D01*
X351282Y344921D01*
X351356Y344931D01*
X351434Y344951D01*
X351523Y344980D01*
X351611Y345015D01*
X351695Y345069D01*
X351700D01*
X351705Y345079D01*
X351729Y345098D01*
X351769Y345138D01*
X351818Y345197D01*
X351872Y345266D01*
X351931Y345359D01*
X351990Y345467D01*
X352039Y345590D01*
X352620Y345516D01*
Y345512D01*
X352615Y345492D01*
X352605Y345467D01*
X352590Y345433D01*
X352576Y345389D01*
X352556Y345339D01*
X352531Y345285D01*
X352507Y345226D01*
X352438Y345103D01*
X352349Y344970D01*
X352295Y344906D01*
X352241Y344842D01*
X352182Y344783D01*
X352113Y344729D01*
X352108Y344724D01*
X352098Y344719D01*
X352074Y344705D01*
X352049Y344685D01*
X352010Y344665D01*
X351965Y344641D01*
X351916Y344616D01*
X351857Y344591D01*
X351793Y344567D01*
X351719Y344542D01*
X351646Y344518D01*
X351562Y344498D01*
X351473Y344478D01*
X351380Y344464D01*
X351277Y344459D01*
X351173Y344454D01*
X351144D01*
X351104Y344459D01*
X351055D01*
X350991Y344468D01*
X350922Y344478D01*
X350844Y344493D01*
X350760Y344508D01*
X350672Y344532D01*
X350578Y344562D01*
X350480Y344596D01*
X350386Y344641D01*
X350288Y344690D01*
X350199Y344749D01*
X350111Y344818D01*
X350027Y344897D01*
X350022Y344901D01*
X350007Y344916D01*
X349988Y344941D01*
X349963Y344980D01*
X349929Y345024D01*
X349894Y345079D01*
X349855Y345143D01*
X349820Y345216D01*
X349781Y345300D01*
X349742Y345393D01*
X349707Y345497D01*
X349673Y345610D01*
X349648Y345728D01*
X349628Y345856D01*
X349614Y345994D01*
X349609Y346141D01*
Y346151D01*
Y346176D01*
X349614Y346220D01*
Y346279D01*
X349624Y346348D01*
X349634Y346427D01*
X349643Y346520D01*
X349663Y346614D01*
X349683Y346717D01*
X349712Y346820D01*
X349747Y346929D01*
X349786Y347037D01*
X349835Y347140D01*
X349894Y347243D01*
X349958Y347342D01*
X350032Y347430D01*
X350037Y347435D01*
X350052Y347450D01*
X350076Y347475D01*
X350111Y347504D01*
X350150Y347539D01*
X350204Y347578D01*
X350263Y347617D01*
X350332Y347662D01*
X350406Y347706D01*
X350489Y347745D01*
X350583Y347785D01*
X350681Y347819D01*
X350790Y347849D01*
X350898Y347873D01*
X351021Y347888D01*
X351144Y347893D01*
X351173D01*
X351208Y347888D01*
D02*
G37*
G36*
X343085D02*
X343134D01*
X343193Y347878D01*
X343257Y347868D01*
X343331Y347853D01*
X343415Y347839D01*
X343498Y347814D01*
X343592Y347785D01*
X343680Y347745D01*
X343774Y347706D01*
X343867Y347652D01*
X343956Y347593D01*
X344044Y347524D01*
X344128Y347445D01*
X344133Y347440D01*
X344148Y347425D01*
X344167Y347401D01*
X344197Y347361D01*
X344226Y347317D01*
X344266Y347263D01*
X344305Y347199D01*
X344344Y347125D01*
X344384Y347042D01*
X344423Y346948D01*
X344462Y346850D01*
X344492Y346742D01*
X344522Y346623D01*
X344541Y346496D01*
X344556Y346358D01*
X344561Y346215D01*
Y346210D01*
Y346186D01*
Y346156D01*
X344556Y346112D01*
Y346058D01*
X344551Y345994D01*
X344546Y345925D01*
X344536Y345851D01*
X344517Y345694D01*
X344482Y345526D01*
X344433Y345364D01*
X344404Y345290D01*
X344369Y345216D01*
Y345211D01*
X344359Y345202D01*
X344349Y345182D01*
X344335Y345157D01*
X344315Y345128D01*
X344290Y345088D01*
X344226Y345010D01*
X344148Y344916D01*
X344054Y344823D01*
X343941Y344734D01*
X343813Y344651D01*
X343808D01*
X343798Y344641D01*
X343779Y344631D01*
X343749Y344621D01*
X343715Y344606D01*
X343675Y344587D01*
X343631Y344572D01*
X343577Y344552D01*
X343523Y344532D01*
X343459Y344518D01*
X343326Y344483D01*
X343178Y344464D01*
X343021Y344454D01*
X342991D01*
X342957Y344459D01*
X342908D01*
X342849Y344468D01*
X342780Y344478D01*
X342706Y344493D01*
X342622Y344508D01*
X342534Y344532D01*
X342445Y344562D01*
X342352Y344596D01*
X342258Y344641D01*
X342165Y344690D01*
X342076Y344749D01*
X341988Y344818D01*
X341904Y344897D01*
X341899Y344901D01*
X341884Y344916D01*
X341865Y344941D01*
X341840Y344980D01*
X341806Y345024D01*
X341771Y345079D01*
X341732Y345147D01*
X341693Y345221D01*
X341653Y345310D01*
X341614Y345403D01*
X341579Y345507D01*
X341545Y345620D01*
X341520Y345743D01*
X341501Y345876D01*
X341486Y346018D01*
X341481Y346171D01*
Y346176D01*
Y346181D01*
Y346210D01*
X341486Y346259D01*
X341491Y346318D01*
X341496Y346397D01*
X341506Y346486D01*
X341525Y346579D01*
X341545Y346683D01*
X341570Y346791D01*
X341604Y346904D01*
X341648Y347017D01*
X341693Y347130D01*
X341752Y347238D01*
X341821Y347342D01*
X341899Y347435D01*
X341988Y347524D01*
X341993Y347529D01*
X342007Y347539D01*
X342032Y347558D01*
X342062Y347583D01*
X342106Y347607D01*
X342155Y347642D01*
X342209Y347676D01*
X342278Y347711D01*
X342347Y347745D01*
X342426Y347775D01*
X342509Y347809D01*
X342603Y347834D01*
X342701Y347858D01*
X342800Y347878D01*
X342908Y347888D01*
X343021Y347893D01*
X343051D01*
X343085Y347888D01*
D02*
G37*
%LPC*%
G36*
X386504Y385115D02*
X385210D01*
Y383846D01*
X386358D01*
X386387Y383850D01*
X386420D01*
X386500Y383855D01*
X386587Y383863D01*
X386678Y383875D01*
X386766Y383892D01*
X386845Y383917D01*
X386849D01*
X386853Y383921D01*
X386878Y383929D01*
X386911Y383946D01*
X386957Y383971D01*
X387003Y384004D01*
X387053Y384042D01*
X387103Y384092D01*
X387144Y384146D01*
X387148Y384154D01*
X387161Y384175D01*
X387178Y384204D01*
X387198Y384250D01*
X387215Y384300D01*
X387232Y384358D01*
X387244Y384424D01*
X387248Y384491D01*
Y384495D01*
Y384503D01*
Y384516D01*
X387244Y384537D01*
Y384558D01*
X387240Y384587D01*
X387223Y384649D01*
X387198Y384720D01*
X387165Y384795D01*
X387115Y384865D01*
X387082Y384903D01*
X387049Y384936D01*
X387045Y384940D01*
X387040Y384944D01*
X387028Y384953D01*
X387011Y384965D01*
X386990Y384978D01*
X386961Y384994D01*
X386932Y385011D01*
X386895Y385028D01*
X386853Y385044D01*
X386807Y385057D01*
X386757Y385073D01*
X386703Y385086D01*
X386641Y385098D01*
X386574Y385107D01*
X386504Y385115D01*
D02*
G37*
G36*
X365086Y385053D02*
X363793D01*
Y383784D01*
X364941D01*
X364970Y383788D01*
X365003D01*
X365082Y383792D01*
X365170Y383800D01*
X365261Y383813D01*
X365348Y383829D01*
X365427Y383855D01*
X365432D01*
X365436Y383859D01*
X365461Y383867D01*
X365494Y383884D01*
X365540Y383909D01*
X365585Y383942D01*
X365635Y383979D01*
X365685Y384029D01*
X365727Y384083D01*
X365731Y384092D01*
X365744Y384112D01*
X365760Y384141D01*
X365781Y384187D01*
X365798Y384237D01*
X365814Y384295D01*
X365827Y384362D01*
X365831Y384429D01*
Y384433D01*
Y384441D01*
Y384454D01*
X365827Y384474D01*
Y384495D01*
X365823Y384524D01*
X365806Y384587D01*
X365781Y384657D01*
X365748Y384732D01*
X365698Y384803D01*
X365665Y384840D01*
X365631Y384874D01*
X365627Y384878D01*
X365623Y384882D01*
X365611Y384890D01*
X365594Y384903D01*
X365573Y384915D01*
X365544Y384932D01*
X365515Y384949D01*
X365477Y384965D01*
X365436Y384982D01*
X365390Y384994D01*
X365340Y385011D01*
X365286Y385023D01*
X365224Y385036D01*
X365157Y385044D01*
X365086Y385053D01*
D02*
G37*
G36*
X358430Y347430D02*
X358396D01*
X358366Y347425D01*
X358337Y347421D01*
X358298Y347416D01*
X358214Y347391D01*
X358116Y347357D01*
X358061Y347332D01*
X358007Y347302D01*
X357958Y347268D01*
X357904Y347224D01*
X357855Y347179D01*
X357806Y347125D01*
X357801Y347120D01*
X357796Y347111D01*
X357781Y347091D01*
X357766Y347066D01*
X357747Y347037D01*
X357727Y346992D01*
X357707Y346948D01*
X357683Y346889D01*
X357658Y346830D01*
X357638Y346756D01*
X357619Y346678D01*
X357599Y346594D01*
X357584Y346496D01*
X357569Y346397D01*
X357564Y346284D01*
X357560Y346166D01*
Y346161D01*
Y346136D01*
Y346107D01*
X357564Y346063D01*
X357569Y346008D01*
X357574Y345949D01*
X357584Y345885D01*
X357594Y345812D01*
X357624Y345659D01*
X357673Y345502D01*
X357702Y345428D01*
X357737Y345354D01*
X357781Y345285D01*
X357825Y345221D01*
X357830Y345216D01*
X357835Y345206D01*
X357855Y345192D01*
X357874Y345172D01*
X357899Y345147D01*
X357929Y345123D01*
X358002Y345069D01*
X358096Y345010D01*
X358204Y344960D01*
X358263Y344941D01*
X358322Y344926D01*
X358386Y344916D01*
X358455Y344911D01*
X358489D01*
X358519Y344916D01*
X358548Y344921D01*
X358588Y344926D01*
X358671Y344951D01*
X358770Y344985D01*
X358824Y345010D01*
X358873Y345034D01*
X358927Y345069D01*
X358981Y345108D01*
X359031Y345152D01*
X359080Y345206D01*
X359085Y345211D01*
X359090Y345221D01*
X359104Y345236D01*
X359119Y345266D01*
X359139Y345295D01*
X359163Y345334D01*
X359188Y345379D01*
X359213Y345433D01*
X359232Y345492D01*
X359257Y345561D01*
X359282Y345639D01*
X359301Y345718D01*
X359316Y345807D01*
X359331Y345905D01*
X359336Y346008D01*
X359341Y346122D01*
Y346131D01*
Y346151D01*
Y346186D01*
X359336Y346230D01*
X359331Y346289D01*
X359326Y346353D01*
X359321Y346422D01*
X359306Y346500D01*
X359277Y346658D01*
X359227Y346825D01*
X359198Y346904D01*
X359163Y346978D01*
X359124Y347047D01*
X359075Y347111D01*
X359070Y347115D01*
X359065Y347125D01*
X359050Y347140D01*
X359031Y347160D01*
X359001Y347184D01*
X358972Y347214D01*
X358898Y347273D01*
X358804Y347327D01*
X358691Y347381D01*
X358632Y347401D01*
X358568Y347416D01*
X358499Y347425D01*
X358430Y347430D01*
D02*
G37*
G36*
X339562Y347455D02*
X339528D01*
X339503Y347450D01*
X339474Y347445D01*
X339434Y347435D01*
X339351Y347416D01*
X339252Y347371D01*
X339203Y347347D01*
X339149Y347312D01*
X339095Y347278D01*
X339041Y347229D01*
X338987Y347179D01*
X338932Y347120D01*
X338928Y347115D01*
X338923Y347106D01*
X338908Y347086D01*
X338888Y347056D01*
X338868Y347022D01*
X338849Y346983D01*
X338824Y346933D01*
X338800Y346874D01*
X338770Y346810D01*
X338745Y346737D01*
X338726Y346658D01*
X338706Y346569D01*
X338686Y346476D01*
X338672Y346377D01*
X338667Y346269D01*
X338662Y346151D01*
Y346146D01*
Y346122D01*
Y346092D01*
X338667Y346048D01*
X338672Y345994D01*
X338677Y345935D01*
X338682Y345866D01*
X338696Y345797D01*
X338726Y345644D01*
X338770Y345487D01*
X338800Y345413D01*
X338834Y345339D01*
X338873Y345270D01*
X338918Y345211D01*
X338923Y345206D01*
X338928Y345197D01*
X338942Y345182D01*
X338962Y345167D01*
X338987Y345143D01*
X339016Y345118D01*
X339090Y345064D01*
X339183Y345005D01*
X339287Y344960D01*
X339346Y344941D01*
X339405Y344926D01*
X339469Y344916D01*
X339538Y344911D01*
X339572D01*
X339602Y344916D01*
X339631Y344921D01*
X339670Y344926D01*
X339759Y344951D01*
X339857Y344985D01*
X339912Y345015D01*
X339966Y345044D01*
X340020Y345079D01*
X340074Y345118D01*
X340128Y345167D01*
X340177Y345221D01*
X340182Y345226D01*
X340187Y345236D01*
X340202Y345256D01*
X340217Y345280D01*
X340241Y345315D01*
X340261Y345354D01*
X340285Y345403D01*
X340310Y345462D01*
X340335Y345526D01*
X340359Y345595D01*
X340384Y345679D01*
X340404Y345767D01*
X340418Y345861D01*
X340433Y345964D01*
X340438Y346077D01*
X340443Y346195D01*
Y346200D01*
Y346225D01*
Y346254D01*
X340438Y346299D01*
X340433Y346353D01*
X340428Y346412D01*
X340423Y346476D01*
X340408Y346550D01*
X340379Y346702D01*
X340335Y346860D01*
X340305Y346938D01*
X340271Y347007D01*
X340226Y347076D01*
X340182Y347140D01*
X340177Y347145D01*
X340172Y347155D01*
X340158Y347170D01*
X340138Y347189D01*
X340113Y347214D01*
X340079Y347238D01*
X340005Y347298D01*
X339916Y347357D01*
X339813Y347406D01*
X339754Y347425D01*
X339690Y347440D01*
X339626Y347450D01*
X339562Y347455D01*
D02*
G37*
G36*
X309127Y348173D02*
X307695Y346127D01*
X309127D01*
Y348173D01*
D02*
G37*
G36*
X420919Y347435D02*
X420880D01*
X420855Y347430D01*
X420821Y347425D01*
X420787Y347421D01*
X420693Y347401D01*
X420595Y347371D01*
X420481Y347327D01*
X420427Y347298D01*
X420373Y347263D01*
X420319Y347219D01*
X420270Y347175D01*
X420265Y347170D01*
X420260Y347165D01*
X420245Y347150D01*
X420230Y347130D01*
X420211Y347101D01*
X420186Y347071D01*
X420162Y347037D01*
X420137Y346992D01*
X420113Y346948D01*
X420088Y346894D01*
X420039Y346776D01*
X420004Y346643D01*
X419994Y346569D01*
X419984Y346491D01*
X421825D01*
Y346496D01*
Y346510D01*
X421820Y346530D01*
X421815Y346560D01*
X421810Y346594D01*
X421805Y346633D01*
X421785Y346722D01*
X421756Y346825D01*
X421721Y346929D01*
X421672Y347027D01*
X421613Y347111D01*
X421608Y347115D01*
X421603Y347125D01*
X421584Y347140D01*
X421564Y347160D01*
X421539Y347184D01*
X421505Y347214D01*
X421465Y347243D01*
X421426Y347273D01*
X421377Y347302D01*
X421323Y347332D01*
X421205Y347386D01*
X421141Y347406D01*
X421072Y347421D01*
X420998Y347430D01*
X420919Y347435D01*
D02*
G37*
G36*
X375808Y347430D02*
X375768D01*
X375739Y347425D01*
X375705Y347421D01*
X375660Y347416D01*
X375567Y347391D01*
X375454Y347352D01*
X375399Y347327D01*
X375341Y347298D01*
X375281Y347263D01*
X375222Y347219D01*
X375168Y347170D01*
X375114Y347115D01*
X375109Y347111D01*
X375104Y347101D01*
X375090Y347081D01*
X375070Y347056D01*
X375050Y347022D01*
X375026Y346983D01*
X375001Y346933D01*
X374976Y346879D01*
X374952Y346815D01*
X374927Y346746D01*
X374903Y346668D01*
X374883Y346584D01*
X374863Y346491D01*
X374849Y346392D01*
X374844Y346284D01*
X374839Y346171D01*
Y346166D01*
Y346141D01*
Y346112D01*
X374844Y346068D01*
X374849Y346013D01*
X374853Y345954D01*
X374863Y345885D01*
X374873Y345817D01*
X374907Y345659D01*
X374957Y345502D01*
X374986Y345428D01*
X375026Y345354D01*
X375065Y345285D01*
X375114Y345221D01*
X375119Y345216D01*
X375129Y345206D01*
X375144Y345192D01*
X375163Y345172D01*
X375193Y345147D01*
X375222Y345123D01*
X375262Y345093D01*
X375306Y345069D01*
X375404Y345010D01*
X375522Y344960D01*
X375587Y344941D01*
X375660Y344926D01*
X375729Y344916D01*
X375808Y344911D01*
X375847D01*
X375877Y344916D01*
X375911Y344921D01*
X375956Y344926D01*
X376049Y344951D01*
X376157Y344990D01*
X376216Y345015D01*
X376275Y345044D01*
X376329Y345079D01*
X376388Y345123D01*
X376443Y345172D01*
X376497Y345226D01*
X376502Y345231D01*
X376506Y345241D01*
X376521Y345261D01*
X376541Y345285D01*
X376561Y345320D01*
X376585Y345359D01*
X376610Y345408D01*
X376639Y345467D01*
X376664Y345526D01*
X376689Y345600D01*
X376713Y345679D01*
X376733Y345767D01*
X376752Y345861D01*
X376767Y345964D01*
X376772Y346072D01*
X376777Y346191D01*
Y346195D01*
Y346215D01*
Y346250D01*
X376772Y346289D01*
X376767Y346343D01*
X376762Y346402D01*
X376752Y346466D01*
X376743Y346535D01*
X376708Y346683D01*
X376689Y346761D01*
X376659Y346840D01*
X376625Y346914D01*
X376590Y346988D01*
X376546Y347052D01*
X376497Y347115D01*
X376492Y347120D01*
X376482Y347130D01*
X376467Y347145D01*
X376448Y347165D01*
X376418Y347189D01*
X376388Y347214D01*
X376349Y347243D01*
X376310Y347273D01*
X376206Y347332D01*
X376088Y347381D01*
X376024Y347401D01*
X375956Y347416D01*
X375882Y347425D01*
X375808Y347430D01*
D02*
G37*
G36*
X367360Y347435D02*
X367321D01*
X367296Y347430D01*
X367262Y347425D01*
X367227Y347421D01*
X367134Y347401D01*
X367036Y347371D01*
X366922Y347327D01*
X366868Y347298D01*
X366814Y347263D01*
X366760Y347219D01*
X366711Y347175D01*
X366706Y347170D01*
X366701Y347165D01*
X366686Y347150D01*
X366671Y347130D01*
X366652Y347101D01*
X366627Y347071D01*
X366602Y347037D01*
X366578Y346992D01*
X366553Y346948D01*
X366529Y346894D01*
X366479Y346776D01*
X366445Y346643D01*
X366435Y346569D01*
X366425Y346491D01*
X368266D01*
Y346496D01*
Y346510D01*
X368261Y346530D01*
X368256Y346560D01*
X368251Y346594D01*
X368246Y346633D01*
X368226Y346722D01*
X368197Y346825D01*
X368162Y346929D01*
X368113Y347027D01*
X368054Y347111D01*
X368049Y347115D01*
X368044Y347125D01*
X368024Y347140D01*
X368005Y347160D01*
X367980Y347184D01*
X367946Y347214D01*
X367906Y347243D01*
X367867Y347273D01*
X367818Y347302D01*
X367764Y347332D01*
X367646Y347386D01*
X367582Y347406D01*
X367513Y347421D01*
X367439Y347430D01*
X367360Y347435D01*
D02*
G37*
G36*
X362071D02*
X362032D01*
X362007Y347430D01*
X361973Y347425D01*
X361938Y347421D01*
X361845Y347401D01*
X361747Y347371D01*
X361633Y347327D01*
X361579Y347298D01*
X361525Y347263D01*
X361471Y347219D01*
X361422Y347175D01*
X361417Y347170D01*
X361412Y347165D01*
X361397Y347150D01*
X361382Y347130D01*
X361363Y347101D01*
X361338Y347071D01*
X361314Y347037D01*
X361289Y346992D01*
X361264Y346948D01*
X361240Y346894D01*
X361191Y346776D01*
X361156Y346643D01*
X361146Y346569D01*
X361136Y346491D01*
X362977D01*
Y346496D01*
Y346510D01*
X362972Y346530D01*
X362967Y346560D01*
X362962Y346594D01*
X362957Y346633D01*
X362937Y346722D01*
X362908Y346825D01*
X362873Y346929D01*
X362824Y347027D01*
X362765Y347111D01*
X362760Y347115D01*
X362755Y347125D01*
X362735Y347140D01*
X362716Y347160D01*
X362691Y347184D01*
X362657Y347214D01*
X362617Y347243D01*
X362578Y347273D01*
X362529Y347302D01*
X362475Y347332D01*
X362357Y347386D01*
X362293Y347406D01*
X362224Y347421D01*
X362150Y347430D01*
X362071Y347435D01*
D02*
G37*
G36*
X351144D02*
X351104D01*
X351080Y347430D01*
X351045Y347425D01*
X351011Y347421D01*
X350918Y347401D01*
X350819Y347371D01*
X350706Y347327D01*
X350652Y347298D01*
X350598Y347263D01*
X350544Y347219D01*
X350495Y347175D01*
X350489Y347170D01*
X350485Y347165D01*
X350470Y347150D01*
X350455Y347130D01*
X350435Y347101D01*
X350411Y347071D01*
X350386Y347037D01*
X350362Y346992D01*
X350337Y346948D01*
X350312Y346894D01*
X350263Y346776D01*
X350229Y346643D01*
X350219Y346569D01*
X350209Y346491D01*
X352049D01*
Y346496D01*
Y346510D01*
X352044Y346530D01*
X352039Y346560D01*
X352034Y346594D01*
X352029Y346633D01*
X352010Y346722D01*
X351980Y346825D01*
X351946Y346929D01*
X351897Y347027D01*
X351838Y347111D01*
X351833Y347115D01*
X351828Y347125D01*
X351808Y347140D01*
X351788Y347160D01*
X351764Y347184D01*
X351729Y347214D01*
X351690Y347243D01*
X351651Y347273D01*
X351602Y347302D01*
X351547Y347332D01*
X351429Y347386D01*
X351365Y347406D01*
X351296Y347421D01*
X351223Y347430D01*
X351144Y347435D01*
D02*
G37*
G36*
X343021Y347430D02*
X342982D01*
X342952Y347425D01*
X342918Y347421D01*
X342873Y347416D01*
X342780Y347391D01*
X342667Y347352D01*
X342613Y347327D01*
X342554Y347298D01*
X342495Y347263D01*
X342436Y347219D01*
X342381Y347170D01*
X342327Y347115D01*
X342322Y347111D01*
X342317Y347101D01*
X342303Y347081D01*
X342283Y347056D01*
X342263Y347022D01*
X342239Y346983D01*
X342214Y346933D01*
X342190Y346879D01*
X342165Y346815D01*
X342140Y346746D01*
X342116Y346668D01*
X342096Y346584D01*
X342076Y346491D01*
X342062Y346392D01*
X342057Y346284D01*
X342052Y346171D01*
Y346166D01*
Y346141D01*
Y346112D01*
X342057Y346068D01*
X342062Y346013D01*
X342067Y345954D01*
X342076Y345885D01*
X342086Y345817D01*
X342121Y345659D01*
X342170Y345502D01*
X342199Y345428D01*
X342239Y345354D01*
X342278Y345285D01*
X342327Y345221D01*
X342332Y345216D01*
X342342Y345206D01*
X342357Y345192D01*
X342376Y345172D01*
X342406Y345147D01*
X342436Y345123D01*
X342475Y345093D01*
X342519Y345069D01*
X342618Y345010D01*
X342736Y344960D01*
X342800Y344941D01*
X342873Y344926D01*
X342942Y344916D01*
X343021Y344911D01*
X343060D01*
X343090Y344916D01*
X343124Y344921D01*
X343169Y344926D01*
X343262Y344951D01*
X343370Y344990D01*
X343429Y345015D01*
X343488Y345044D01*
X343543Y345079D01*
X343601Y345123D01*
X343656Y345172D01*
X343710Y345226D01*
X343715Y345231D01*
X343720Y345241D01*
X343734Y345261D01*
X343754Y345285D01*
X343774Y345320D01*
X343798Y345359D01*
X343823Y345408D01*
X343852Y345467D01*
X343877Y345526D01*
X343902Y345600D01*
X343926Y345679D01*
X343946Y345767D01*
X343966Y345861D01*
X343980Y345964D01*
X343985Y346072D01*
X343990Y346191D01*
Y346195D01*
Y346215D01*
Y346250D01*
X343985Y346289D01*
X343980Y346343D01*
X343975Y346402D01*
X343966Y346466D01*
X343956Y346535D01*
X343921Y346683D01*
X343902Y346761D01*
X343872Y346840D01*
X343838Y346914D01*
X343803Y346988D01*
X343759Y347052D01*
X343710Y347115D01*
X343705Y347120D01*
X343695Y347130D01*
X343680Y347145D01*
X343661Y347165D01*
X343631Y347189D01*
X343601Y347214D01*
X343562Y347243D01*
X343523Y347273D01*
X343420Y347332D01*
X343301Y347381D01*
X343237Y347401D01*
X343169Y347416D01*
X343095Y347425D01*
X343021Y347430D01*
D02*
G37*
%LPD*%
D10*
X482244Y395984D02*
G03*
X477244Y400984I-5000J0D01*
G01*
Y338071D02*
G03*
X482244Y343071I0J5000D01*
G01*
X264055D02*
G03*
X269055Y338071I5000J0D01*
G01*
Y400984D02*
G03*
X264055Y395984I0J-5000D01*
G01*
X370118Y400984D02*
X477244D01*
X482244Y343071D02*
Y395984D01*
X269055Y338071D02*
X477244D01*
X264055Y343071D02*
Y395984D01*
X269055Y400984D02*
X370118D01*
M02*
