G04*
G04 #@! TF.GenerationSoftware,Altium Limited,Altium Designer,19.1.5 (86)*
G04*
G04 Layer_Physical_Order=2*
G04 Layer_Color=16711680*
%FSLAX25Y25*%
%MOIN*%
G70*
G01*
G75*
%ADD17C,0.01000*%
%ADD20C,0.06496*%
%ADD21R,0.06496X0.06496*%
%ADD22C,0.10039*%
%ADD23C,0.08858*%
%ADD24C,0.02362*%
%ADD25C,0.05000*%
G36*
X221000Y501000D02*
X221000Y501000D01*
X221689D01*
X223042Y500731D01*
X224316Y500203D01*
X225462Y499437D01*
X226437Y498462D01*
X227203Y497316D01*
X227731Y496042D01*
X228000Y494689D01*
X228000Y494000D01*
X228000Y449000D01*
X228000Y449000D01*
Y448311D01*
X227731Y446958D01*
X227203Y445684D01*
X226437Y444538D01*
X225462Y443563D01*
X224316Y442797D01*
X223042Y442269D01*
X221689Y442000D01*
X221000D01*
X108000Y442000D01*
X107310Y442000D01*
X105958Y442269D01*
X104684Y442797D01*
X103538Y443563D01*
X102563Y444538D01*
X101797Y445684D01*
X101269Y446958D01*
X101000Y448311D01*
X101000Y449000D01*
Y494000D01*
X101000Y494000D01*
X101000Y494000D01*
X101000Y494689D01*
X101269Y496042D01*
X101797Y497316D01*
X102563Y498462D01*
X103538Y499437D01*
X104684Y500203D01*
X105958Y500731D01*
X107310Y501000D01*
X108000Y501000D01*
X221000Y501000D01*
X221000Y501000D01*
D02*
G37*
%LPC*%
G36*
X221000Y495955D02*
Y492236D01*
X224719D01*
X224639Y492845D01*
X224211Y493879D01*
X223530Y494766D01*
X222642Y495447D01*
X221609Y495875D01*
X221000Y495955D01*
D02*
G37*
G36*
X211000D02*
Y492236D01*
X214719D01*
X214639Y492845D01*
X214211Y493879D01*
X213530Y494766D01*
X212642Y495447D01*
X211609Y495875D01*
X211000Y495955D01*
D02*
G37*
G36*
X220000Y495955D02*
X219391Y495875D01*
X218358Y495447D01*
X217470Y494766D01*
X216789Y493879D01*
X216361Y492845D01*
X216281Y492236D01*
X220000D01*
Y495955D01*
D02*
G37*
G36*
X210000D02*
X209391Y495875D01*
X208358Y495447D01*
X207470Y494766D01*
X206789Y493879D01*
X206361Y492845D01*
X206281Y492236D01*
X210000D01*
Y495955D01*
D02*
G37*
G36*
X214719Y491236D02*
X211000D01*
Y487517D01*
X211609Y487598D01*
X212642Y488026D01*
X213530Y488706D01*
X214211Y489594D01*
X214639Y490627D01*
X214719Y491236D01*
D02*
G37*
G36*
X224719D02*
X221000D01*
Y487517D01*
X221609Y487598D01*
X222642Y488026D01*
X223530Y488706D01*
X224211Y489594D01*
X224639Y490627D01*
X224719Y491236D01*
D02*
G37*
G36*
X220000D02*
X216281D01*
X216361Y490627D01*
X216789Y489594D01*
X217470Y488706D01*
X218358Y488026D01*
X219391Y487598D01*
X220000Y487517D01*
Y491236D01*
D02*
G37*
G36*
X210000D02*
X206281D01*
X206361Y490627D01*
X206789Y489594D01*
X207470Y488706D01*
X208358Y488026D01*
X209391Y487598D01*
X210000Y487517D01*
Y491236D01*
D02*
G37*
G36*
X194500Y487208D02*
X193655Y487040D01*
X192939Y486561D01*
X192740Y486263D01*
X149530D01*
X149117Y486540D01*
X148272Y486708D01*
X147427Y486540D01*
X146711Y486061D01*
X146232Y485345D01*
X146064Y484500D01*
X146232Y483655D01*
X146711Y482939D01*
X147427Y482460D01*
X148272Y482292D01*
X149117Y482460D01*
X149833Y482939D01*
X150032Y483237D01*
X193242D01*
X193655Y482960D01*
X194500Y482792D01*
X195345Y482960D01*
X196061Y483439D01*
X196540Y484155D01*
X196708Y485000D01*
X196540Y485845D01*
X196061Y486561D01*
X195345Y487040D01*
X194500Y487208D01*
D02*
G37*
G36*
X130226Y488979D02*
Y483479D01*
X135725D01*
X135658Y484159D01*
X135314Y485294D01*
X134755Y486340D01*
X134003Y487256D01*
X133086Y488009D01*
X132040Y488568D01*
X130905Y488912D01*
X130226Y488979D01*
D02*
G37*
G36*
X110225D02*
Y483479D01*
X115725D01*
X115658Y484159D01*
X115314Y485294D01*
X114755Y486340D01*
X114003Y487256D01*
X113086Y488009D01*
X112040Y488568D01*
X110906Y488912D01*
X110225Y488979D01*
D02*
G37*
G36*
X109225D02*
X108545Y488912D01*
X107411Y488568D01*
X106365Y488009D01*
X105448Y487256D01*
X104696Y486340D01*
X104137Y485294D01*
X103793Y484159D01*
X103726Y483479D01*
X109225D01*
Y488979D01*
D02*
G37*
G36*
X129226D02*
X128545Y488912D01*
X127411Y488568D01*
X126365Y488009D01*
X125448Y487256D01*
X124696Y486340D01*
X124137Y485294D01*
X123793Y484159D01*
X123726Y483479D01*
X129226D01*
Y488979D01*
D02*
G37*
G36*
X220500Y486005D02*
X219395Y485860D01*
X218366Y485433D01*
X217481Y484755D01*
X216803Y483871D01*
X216546Y483250D01*
X214454D01*
X214197Y483871D01*
X213519Y484755D01*
X212634Y485433D01*
X211605Y485860D01*
X210500Y486005D01*
X209395Y485860D01*
X208366Y485433D01*
X207482Y484755D01*
X206803Y483871D01*
X206377Y482841D01*
X206231Y481736D01*
X206377Y480631D01*
X206803Y479602D01*
X207482Y478718D01*
X208366Y478039D01*
X209395Y477613D01*
X210500Y477467D01*
X211605Y477613D01*
X212634Y478039D01*
X213519Y478718D01*
X214197Y479602D01*
X214454Y480223D01*
X216546D01*
X216803Y479602D01*
X217481Y478718D01*
X218366Y478039D01*
X219395Y477613D01*
X220500Y477467D01*
X221605Y477613D01*
X222634Y478039D01*
X223518Y478718D01*
X224197Y479602D01*
X224623Y480631D01*
X224769Y481736D01*
X224623Y482841D01*
X224197Y483871D01*
X223518Y484755D01*
X222634Y485433D01*
X221605Y485860D01*
X220500Y486005D01*
D02*
G37*
G36*
X195000Y480600D02*
Y478976D01*
X196624D01*
X196555Y479327D01*
X196072Y480049D01*
X195351Y480531D01*
X195000Y480600D01*
D02*
G37*
G36*
X194000D02*
X193649Y480531D01*
X192928Y480049D01*
X192446Y479327D01*
X192376Y478976D01*
X194000D01*
Y480600D01*
D02*
G37*
G36*
X135725Y482479D02*
X130226D01*
Y476980D01*
X130905Y477047D01*
X132040Y477391D01*
X133086Y477950D01*
X134003Y478702D01*
X134755Y479619D01*
X135314Y480665D01*
X135658Y481799D01*
X135725Y482479D01*
D02*
G37*
G36*
X115725D02*
X110225D01*
Y476980D01*
X110906Y477047D01*
X112040Y477391D01*
X113086Y477950D01*
X114003Y478702D01*
X114755Y479619D01*
X115314Y480665D01*
X115658Y481799D01*
X115725Y482479D01*
D02*
G37*
G36*
X129226D02*
X123726D01*
X123793Y481799D01*
X124137Y480665D01*
X124696Y479619D01*
X125448Y478702D01*
X126365Y477950D01*
X127411Y477391D01*
X128545Y477047D01*
X129226Y476980D01*
Y482479D01*
D02*
G37*
G36*
X109225D02*
X103726D01*
X103793Y481799D01*
X104137Y480665D01*
X104696Y479619D01*
X105448Y478702D01*
X106365Y477950D01*
X107411Y477391D01*
X108545Y477047D01*
X109225Y476980D01*
Y482479D01*
D02*
G37*
G36*
X196624Y477976D02*
X195000D01*
Y476352D01*
X195351Y476421D01*
X196072Y476903D01*
X196555Y477625D01*
X196624Y477976D01*
D02*
G37*
G36*
X194000D02*
X192376D01*
X192446Y477625D01*
X192928Y476903D01*
X193649Y476421D01*
X194000Y476352D01*
Y477976D01*
D02*
G37*
G36*
X220500Y476005D02*
X219395Y475860D01*
X218366Y475433D01*
X217481Y474755D01*
X216803Y473871D01*
X216546Y473249D01*
X214454D01*
X214197Y473871D01*
X213519Y474755D01*
X212634Y475433D01*
X211605Y475860D01*
X210500Y476005D01*
X209395Y475860D01*
X208366Y475433D01*
X207482Y474755D01*
X206803Y473871D01*
X206377Y472841D01*
X206231Y471736D01*
X206377Y470631D01*
X206803Y469602D01*
X207482Y468718D01*
X208366Y468039D01*
X209395Y467613D01*
X210500Y467467D01*
X211605Y467613D01*
X212634Y468039D01*
X213519Y468718D01*
X214197Y469602D01*
X214454Y470223D01*
X216546D01*
X216803Y469602D01*
X217481Y468718D01*
X218366Y468039D01*
X219395Y467613D01*
X220500Y467467D01*
X221605Y467613D01*
X222634Y468039D01*
X223518Y468718D01*
X224197Y469602D01*
X224623Y470631D01*
X224769Y471736D01*
X224623Y472841D01*
X224197Y473871D01*
X223518Y474755D01*
X222634Y475433D01*
X221605Y475860D01*
X220500Y476005D01*
D02*
G37*
G36*
X119726Y478440D02*
X118312Y478253D01*
X116995Y477708D01*
X115865Y476840D01*
X114997Y475709D01*
X114451Y474393D01*
X114265Y472979D01*
X114451Y471566D01*
X114997Y470249D01*
X115865Y469118D01*
X116995Y468251D01*
X118312Y467705D01*
X119726Y467519D01*
X121139Y467705D01*
X122456Y468251D01*
X123586Y469118D01*
X124454Y470249D01*
X124999Y471566D01*
X125186Y472979D01*
X124999Y474393D01*
X124454Y475709D01*
X123586Y476840D01*
X122456Y477708D01*
X121139Y478253D01*
X119726Y478440D01*
D02*
G37*
G36*
X153000Y466182D02*
Y464557D01*
X154624D01*
X154554Y464908D01*
X154072Y465630D01*
X153351Y466112D01*
X153000Y466182D01*
D02*
G37*
G36*
X152000D02*
X151649Y466112D01*
X150927Y465630D01*
X150445Y464908D01*
X150376Y464557D01*
X152000D01*
Y466182D01*
D02*
G37*
G36*
X130226Y468979D02*
Y463479D01*
X135725D01*
X135658Y464159D01*
X135314Y465294D01*
X134755Y466340D01*
X134003Y467256D01*
X133086Y468009D01*
X132040Y468568D01*
X130905Y468912D01*
X130226Y468979D01*
D02*
G37*
G36*
X110225D02*
Y463479D01*
X115725D01*
X115658Y464159D01*
X115314Y465294D01*
X114755Y466340D01*
X114003Y467256D01*
X113086Y468009D01*
X112040Y468568D01*
X110906Y468912D01*
X110225Y468979D01*
D02*
G37*
G36*
X109225D02*
X108545Y468912D01*
X107411Y468568D01*
X106365Y468009D01*
X105448Y467256D01*
X104696Y466340D01*
X104137Y465294D01*
X103793Y464159D01*
X103726Y463479D01*
X109225D01*
Y468979D01*
D02*
G37*
G36*
X129226D02*
X128545Y468912D01*
X127411Y468568D01*
X126365Y468009D01*
X125448Y467256D01*
X124696Y466340D01*
X124137Y465294D01*
X123793Y464159D01*
X123726Y463479D01*
X129226D01*
Y468979D01*
D02*
G37*
G36*
X220500Y466005D02*
X219395Y465860D01*
X218366Y465433D01*
X217481Y464755D01*
X216803Y463871D01*
X216546Y463249D01*
X214454D01*
X214197Y463871D01*
X213519Y464755D01*
X212634Y465433D01*
X211605Y465860D01*
X210500Y466005D01*
X209395Y465860D01*
X208366Y465433D01*
X207482Y464755D01*
X206803Y463871D01*
X206377Y462841D01*
X206231Y461736D01*
X206377Y460631D01*
X206634Y460010D01*
X206072Y459449D01*
X205745Y458958D01*
X205629Y458379D01*
X205629Y458379D01*
Y456688D01*
X196638Y447697D01*
X196581Y447708D01*
X195737Y447540D01*
X195020Y447061D01*
X194542Y446345D01*
X194374Y445500D01*
X194542Y444655D01*
X195020Y443939D01*
X195737Y443460D01*
X196581Y443292D01*
X197426Y443460D01*
X198143Y443939D01*
X198621Y444655D01*
X198789Y445500D01*
X198778Y445556D01*
X205843Y452622D01*
X206317Y452388D01*
X206231Y451736D01*
X206377Y450631D01*
X206803Y449602D01*
X207482Y448718D01*
X208366Y448039D01*
X209395Y447613D01*
X210500Y447467D01*
X211605Y447613D01*
X212634Y448039D01*
X213519Y448718D01*
X214197Y449602D01*
X214454Y450223D01*
X216268D01*
Y447504D01*
X224732D01*
Y455969D01*
X216268D01*
Y453250D01*
X214454D01*
X214197Y453871D01*
X213519Y454755D01*
X212634Y455433D01*
X211605Y455860D01*
X210500Y456005D01*
X209395Y455860D01*
X209036Y455711D01*
X208682Y456001D01*
X208656Y456061D01*
Y457378D01*
X209156Y457712D01*
X209395Y457613D01*
X210500Y457467D01*
X211605Y457613D01*
X212634Y458039D01*
X213519Y458718D01*
X214197Y459602D01*
X214454Y460223D01*
X216546D01*
X216803Y459602D01*
X217481Y458718D01*
X218366Y458039D01*
X219395Y457613D01*
X220500Y457467D01*
X221605Y457613D01*
X222634Y458039D01*
X223518Y458718D01*
X224197Y459602D01*
X224623Y460631D01*
X224769Y461736D01*
X224623Y462841D01*
X224197Y463871D01*
X223518Y464755D01*
X222634Y465433D01*
X221605Y465860D01*
X220500Y466005D01*
D02*
G37*
G36*
X154624Y463557D02*
X153000D01*
Y461933D01*
X153351Y462003D01*
X154072Y462485D01*
X154554Y463206D01*
X154624Y463557D01*
D02*
G37*
G36*
X152000D02*
X150376D01*
X150445Y463206D01*
X150927Y462485D01*
X151649Y462003D01*
X152000Y461933D01*
Y463557D01*
D02*
G37*
G36*
X180000Y495708D02*
X179155Y495540D01*
X178439Y495061D01*
X177960Y494345D01*
X177792Y493500D01*
X177960Y492655D01*
X178439Y491939D01*
X179155Y491460D01*
X180000Y491292D01*
X180845Y491460D01*
X181561Y491939D01*
X181593Y491987D01*
X194873D01*
X198987Y487873D01*
Y461000D01*
X199102Y460421D01*
X199430Y459930D01*
X199757Y459712D01*
X199939Y459439D01*
X200655Y458960D01*
X201500Y458792D01*
X202345Y458960D01*
X203061Y459439D01*
X203540Y460155D01*
X203708Y461000D01*
X203540Y461845D01*
X203061Y462561D01*
X202345Y463040D01*
X202013Y463106D01*
Y488500D01*
X202013Y488500D01*
X201898Y489079D01*
X201570Y489570D01*
X201570Y489570D01*
X196570Y494570D01*
X196079Y494898D01*
X195500Y495013D01*
X195500Y495013D01*
X181593D01*
X181561Y495061D01*
X180845Y495540D01*
X180000Y495708D01*
D02*
G37*
G36*
X178000Y461464D02*
Y458500D01*
X180964D01*
X180910Y458914D01*
X180557Y459765D01*
X179996Y460496D01*
X179265Y461057D01*
X178414Y461410D01*
X178000Y461464D01*
D02*
G37*
G36*
X177000D02*
X176586Y461410D01*
X175735Y461057D01*
X175004Y460496D01*
X174443Y459765D01*
X174090Y458914D01*
X174036Y458500D01*
X177000D01*
Y461464D01*
D02*
G37*
G36*
X191500Y458624D02*
Y457000D01*
X193124D01*
X193054Y457351D01*
X192572Y458073D01*
X191851Y458555D01*
X191500Y458624D01*
D02*
G37*
G36*
X190500D02*
X190149Y458555D01*
X189427Y458073D01*
X188945Y457351D01*
X188876Y457000D01*
X190500D01*
Y458624D01*
D02*
G37*
G36*
X135725Y462479D02*
X130226D01*
Y456980D01*
X130905Y457047D01*
X132040Y457391D01*
X133086Y457950D01*
X134003Y458702D01*
X134755Y459619D01*
X135314Y460665D01*
X135658Y461799D01*
X135725Y462479D01*
D02*
G37*
G36*
X115725D02*
X110225D01*
Y456980D01*
X110906Y457047D01*
X112040Y457391D01*
X113086Y457950D01*
X114003Y458702D01*
X114755Y459619D01*
X115314Y460665D01*
X115658Y461799D01*
X115725Y462479D01*
D02*
G37*
G36*
X129226D02*
X123726D01*
X123793Y461799D01*
X124137Y460665D01*
X124696Y459619D01*
X125448Y458702D01*
X126365Y457950D01*
X127411Y457391D01*
X128545Y457047D01*
X129226Y456980D01*
Y462479D01*
D02*
G37*
G36*
X109225D02*
X103726D01*
X103793Y461799D01*
X104137Y460665D01*
X104696Y459619D01*
X105448Y458702D01*
X106365Y457950D01*
X107411Y457391D01*
X108545Y457047D01*
X109225Y456980D01*
Y462479D01*
D02*
G37*
G36*
X180964Y457500D02*
X178000D01*
Y454536D01*
X178414Y454590D01*
X179265Y454943D01*
X179996Y455504D01*
X180557Y456235D01*
X180910Y457086D01*
X180964Y457500D01*
D02*
G37*
G36*
X177000D02*
X174036D01*
X174090Y457086D01*
X174443Y456235D01*
X175004Y455504D01*
X175735Y454943D01*
X176586Y454590D01*
X177000Y454536D01*
Y457500D01*
D02*
G37*
G36*
X193124Y456000D02*
X191500D01*
Y454376D01*
X191851Y454445D01*
X192572Y454927D01*
X193054Y455649D01*
X193124Y456000D01*
D02*
G37*
G36*
X190500D02*
X188876D01*
X188945Y455649D01*
X189427Y454927D01*
X190149Y454445D01*
X190500Y454376D01*
Y456000D01*
D02*
G37*
%LPD*%
D17*
X196581Y445500D02*
X207143Y456061D01*
X200500Y461000D02*
Y488500D01*
X210500Y451736D02*
X220500D01*
X210500Y481736D02*
X220500D01*
X210500Y471736D02*
X220500D01*
X210500Y461736D02*
X220500D01*
X207143Y456061D02*
Y458379D01*
X210500Y461736D01*
X148272Y484500D02*
X148522Y484750D01*
X194250D01*
X194500Y485000D01*
X180000Y493500D02*
X195500D01*
X200500Y488500D01*
D20*
X210500Y461736D02*
D03*
X220500D02*
D03*
X210500Y451736D02*
D03*
X220500Y471736D02*
D03*
X210500D02*
D03*
X220500Y481736D02*
D03*
Y491736D02*
D03*
X210500Y481736D02*
D03*
Y491736D02*
D03*
D21*
X220500Y451736D02*
D03*
D22*
X129726Y482979D02*
D03*
X109725D02*
D03*
Y462979D02*
D03*
X129726D02*
D03*
D23*
X119726Y472979D02*
D03*
D24*
X196581Y445500D02*
D03*
X152500Y464057D02*
D03*
X148272Y484500D02*
D03*
X180000Y493500D02*
D03*
X194500Y485000D02*
D03*
Y478476D02*
D03*
X191000Y456500D02*
D03*
X201500Y461000D02*
D03*
D25*
X177500Y458000D02*
D03*
M02*
