G04*
G04 #@! TF.GenerationSoftware,Altium Limited,Altium Designer,20.0.13 (296)*
G04*
G04 Layer_Color=16711935*
%FSLAX25Y25*%
%MOIN*%
G70*
G01*
G75*
%ADD22C,0.10236*%
%ADD23C,0.06890*%
%ADD24R,0.06890X0.06890*%
%ADD25C,0.06693*%
%ADD26R,0.06693X0.06693*%
%ADD27C,0.09252*%
%ADD28C,0.10433*%
%ADD29C,0.03150*%
D22*
X445197Y345354D02*
D03*
Y392756D02*
D03*
X283780D02*
D03*
Y345354D02*
D03*
D23*
X463307Y389724D02*
D03*
Y379724D02*
D03*
X473307Y389724D02*
D03*
Y379724D02*
D03*
X463307Y369724D02*
D03*
X473307D02*
D03*
X463307Y349724D02*
D03*
X473307Y359724D02*
D03*
X463307D02*
D03*
D24*
X473307Y349724D02*
D03*
D25*
X370315Y391929D02*
D03*
X380315D02*
D03*
X390315D02*
D03*
D26*
X360315D02*
D03*
D27*
X283780Y369055D02*
D03*
D28*
X293779Y379055D02*
D03*
X273780D02*
D03*
Y359055D02*
D03*
X293779D02*
D03*
D29*
X360512Y377953D02*
D03*
Y361221D02*
D03*
X323031Y378031D02*
D03*
X456457Y357677D02*
D03*
X419803Y361024D02*
D03*
X402480D02*
D03*
X401811Y381575D02*
D03*
X342480Y386496D02*
D03*
X303583Y361024D02*
D03*
X314724D02*
D03*
X393701D02*
D03*
X454606Y372992D02*
D03*
X439370Y362441D02*
D03*
X380197Y361024D02*
D03*
X340866D02*
D03*
X323346D02*
D03*
X407520Y393779D02*
D03*
X341535Y392756D02*
D03*
X328898Y379488D02*
D03*
X450472Y352165D02*
D03*
M02*
